<mxfile host="app.diagrams.net" agent="Mozilla/5.0 (Windows NT 10.0; Win64; x64) AppleWebKit/537.36 (KHTML, like Gecko) Chrome/131.0.0.0 Safari/537.36" version="25.0.3">
  <diagram name="Page-1" id="EYQe4CiDdpZpB8KwuAZc">
    <mxGraphModel dx="-256" dy="187" grid="1" gridSize="10" guides="1" tooltips="1" connect="1" arrows="1" fold="1" page="1" pageScale="1" pageWidth="850" pageHeight="1100" math="0" shadow="0">
      <root>
        <mxCell id="0" />
        <mxCell id="1" parent="0" />
        <mxCell id="jUlRzr_6Oyi4RR8aSzZF-1" value="" style="shape=mxgraph.sap.icon;labelPosition=center;verticalLabelPosition=bottom;align=center;verticalAlign=top;strokeWidth=1;strokeColor=#D5DADD;fillColor=#EDEFF0;gradientColor=#FCFCFC;gradientDirection=west;aspect=fixed;SAPIcon=SAP_Cloud_Identity,_SAP_Malware_Scanning_Service" vertex="1" parent="1">
          <mxGeometry x="1763.3000000000002" y="1258" width="32" height="32" as="geometry" />
        </mxCell>
        <mxCell id="jUlRzr_6Oyi4RR8aSzZF-2" value="" style="group" vertex="1" connectable="0" parent="1">
          <mxGeometry x="1743" y="1381" width="92.5" height="87" as="geometry" />
        </mxCell>
        <mxCell id="jUlRzr_6Oyi4RR8aSzZF-3" value="DeathStalker" style="text;html=1;align=center;verticalAlign=middle;whiteSpace=wrap;rounded=0;" vertex="1" parent="jUlRzr_6Oyi4RR8aSzZF-2">
          <mxGeometry y="53" width="81" height="34" as="geometry" />
        </mxCell>
        <mxCell id="jUlRzr_6Oyi4RR8aSzZF-4" style="edgeStyle=orthogonalEdgeStyle;rounded=0;orthogonalLoop=1;jettySize=auto;html=1;" edge="1" parent="jUlRzr_6Oyi4RR8aSzZF-2" source="jUlRzr_6Oyi4RR8aSzZF-5">
          <mxGeometry relative="1" as="geometry">
            <mxPoint x="168.6578465511925" y="29.999999999999545" as="targetPoint" />
          </mxGeometry>
        </mxCell>
        <mxCell id="jUlRzr_6Oyi4RR8aSzZF-5" value="" style="shape=actor;whiteSpace=wrap;html=1;" vertex="1" parent="jUlRzr_6Oyi4RR8aSzZF-2">
          <mxGeometry x="15.5" width="50" height="60" as="geometry" />
        </mxCell>
        <mxCell id="jUlRzr_6Oyi4RR8aSzZF-9" style="edgeStyle=orthogonalEdgeStyle;rounded=0;orthogonalLoop=1;jettySize=auto;html=1;" edge="1" parent="1" source="jUlRzr_6Oyi4RR8aSzZF-10">
          <mxGeometry relative="1" as="geometry">
            <mxPoint x="2209.2654611687913" y="1414.1999999999998" as="targetPoint" />
          </mxGeometry>
        </mxCell>
        <mxCell id="jUlRzr_6Oyi4RR8aSzZF-37" value="2.Victim downloading&amp;nbsp;&lt;br&gt;malicious file" style="edgeLabel;html=1;align=center;verticalAlign=middle;resizable=0;points=[];" vertex="1" connectable="0" parent="jUlRzr_6Oyi4RR8aSzZF-9">
          <mxGeometry x="-0.0966" y="3" relative="1" as="geometry">
            <mxPoint x="-57" y="-32" as="offset" />
          </mxGeometry>
        </mxCell>
        <mxCell id="jUlRzr_6Oyi4RR8aSzZF-10" value="Archive Folder" style="sketch=0;outlineConnect=0;fontColor=#232F3E;gradientColor=none;strokeColor=#232F3E;fillColor=#ffffff;dashed=0;verticalLabelPosition=bottom;verticalAlign=top;align=center;html=1;fontSize=12;fontStyle=0;aspect=fixed;shape=mxgraph.aws4.resourceIcon;resIcon=mxgraph.aws4.archive;" vertex="1" parent="1">
          <mxGeometry x="2073" y="1394.2" width="40" height="40" as="geometry" />
        </mxCell>
        <mxCell id="jUlRzr_6Oyi4RR8aSzZF-11" value="" style="group" vertex="1" connectable="0" parent="1">
          <mxGeometry x="2199" y="1376" width="116.9" height="93.19999999999999" as="geometry" />
        </mxCell>
        <mxCell id="jUlRzr_6Oyi4RR8aSzZF-12" style="edgeStyle=orthogonalEdgeStyle;rounded=0;orthogonalLoop=1;jettySize=auto;html=1;" edge="1" parent="jUlRzr_6Oyi4RR8aSzZF-11" source="jUlRzr_6Oyi4RR8aSzZF-13">
          <mxGeometry relative="1" as="geometry">
            <mxPoint x="210.26546116879126" y="33.19999999999982" as="targetPoint" />
          </mxGeometry>
        </mxCell>
        <mxCell id="jUlRzr_6Oyi4RR8aSzZF-13" value="" style="image;points=[];aspect=fixed;html=1;align=center;shadow=0;dashed=0;image=img/lib/allied_telesis/computer_and_terminals/Personal_Computer_with_Server.svg;" vertex="1" parent="jUlRzr_6Oyi4RR8aSzZF-11">
          <mxGeometry x="50.5" width="66.4" height="66.4" as="geometry" />
        </mxCell>
        <mxCell id="jUlRzr_6Oyi4RR8aSzZF-14" value="" style="shape=actor;whiteSpace=wrap;html=1;" vertex="1" parent="jUlRzr_6Oyi4RR8aSzZF-11">
          <mxGeometry x="15.5" y="3.1999999999999886" width="50" height="60" as="geometry" />
        </mxCell>
        <mxCell id="jUlRzr_6Oyi4RR8aSzZF-15" value="Victim" style="text;html=1;align=center;verticalAlign=middle;whiteSpace=wrap;rounded=0;" vertex="1" parent="jUlRzr_6Oyi4RR8aSzZF-11">
          <mxGeometry y="59.19999999999999" width="81" height="34" as="geometry" />
        </mxCell>
        <mxCell id="jUlRzr_6Oyi4RR8aSzZF-16" value="" style="group" vertex="1" connectable="0" parent="1">
          <mxGeometry x="2382" y="1383" width="100" height="84" as="geometry" />
        </mxCell>
        <mxCell id="jUlRzr_6Oyi4RR8aSzZF-17" value="" style="image;points=[];aspect=fixed;html=1;align=center;shadow=0;dashed=0;image=img/lib/allied_telesis/computer_and_terminals/Server_Desktop.svg;" vertex="1" parent="jUlRzr_6Oyi4RR8aSzZF-16">
          <mxGeometry x="29" width="42.599999999999994" height="54" as="geometry" />
        </mxCell>
        <mxCell id="jUlRzr_6Oyi4RR8aSzZF-18" value="C2 Connection" style="text;html=1;align=center;verticalAlign=middle;resizable=0;points=[];autosize=1;strokeColor=none;fillColor=none;" vertex="1" parent="jUlRzr_6Oyi4RR8aSzZF-16">
          <mxGeometry y="54" width="100" height="30" as="geometry" />
        </mxCell>
        <mxCell id="jUlRzr_6Oyi4RR8aSzZF-19" style="edgeStyle=orthogonalEdgeStyle;rounded=0;orthogonalLoop=1;jettySize=auto;html=1;" edge="1" parent="1">
          <mxGeometry relative="1" as="geometry">
            <mxPoint x="1911" y="1305" as="targetPoint" />
            <mxPoint x="1857" y="1305" as="sourcePoint" />
          </mxGeometry>
        </mxCell>
        <mxCell id="jUlRzr_6Oyi4RR8aSzZF-21" value="" style="group" vertex="1" connectable="0" parent="1">
          <mxGeometry x="2285" y="1265" width="150" height="62" as="geometry" />
        </mxCell>
        <mxCell id="jUlRzr_6Oyi4RR8aSzZF-22" style="edgeStyle=orthogonalEdgeStyle;rounded=0;orthogonalLoop=1;jettySize=auto;html=1;" edge="1" parent="jUlRzr_6Oyi4RR8aSzZF-21" source="jUlRzr_6Oyi4RR8aSzZF-23">
          <mxGeometry relative="1" as="geometry">
            <mxPoint x="75" y="138" as="targetPoint" />
          </mxGeometry>
        </mxCell>
        <mxCell id="jUlRzr_6Oyi4RR8aSzZF-23" value="DarkMeRAT (.cmd,.lnk)" style="text;html=1;align=center;verticalAlign=middle;resizable=0;points=[];autosize=1;strokeColor=none;fillColor=none;" vertex="1" parent="jUlRzr_6Oyi4RR8aSzZF-21">
          <mxGeometry y="32" width="150" height="30" as="geometry" />
        </mxCell>
        <mxCell id="jUlRzr_6Oyi4RR8aSzZF-24" value="" style="shape=mxgraph.sap.icon;labelPosition=center;verticalLabelPosition=bottom;align=center;verticalAlign=top;strokeWidth=1;strokeColor=#D5DADD;fillColor=#EDEFF0;gradientColor=#FCFCFC;gradientDirection=west;aspect=fixed;SAPIcon=SAP_Cloud_Identity,_SAP_Malware_Scanning_Service" vertex="1" parent="jUlRzr_6Oyi4RR8aSzZF-21">
          <mxGeometry x="56.30000000000018" width="32" height="32" as="geometry" />
        </mxCell>
        <mxCell id="jUlRzr_6Oyi4RR8aSzZF-26" style="edgeStyle=orthogonalEdgeStyle;rounded=0;orthogonalLoop=1;jettySize=auto;html=1;entryX=0.513;entryY=0.05;entryDx=0;entryDy=0;entryPerimeter=0;" edge="1" parent="1">
          <mxGeometry relative="1" as="geometry">
            <mxPoint x="1953" y="1330" as="sourcePoint" />
            <mxPoint x="1952.8632" y="1384.32" as="targetPoint" />
          </mxGeometry>
        </mxCell>
        <mxCell id="jUlRzr_6Oyi4RR8aSzZF-27" style="edgeStyle=orthogonalEdgeStyle;rounded=0;orthogonalLoop=1;jettySize=auto;html=1;" edge="1" parent="1" target="jUlRzr_6Oyi4RR8aSzZF-10">
          <mxGeometry relative="1" as="geometry">
            <mxPoint x="1985.1999999999998" y="1414.2" as="sourcePoint" />
          </mxGeometry>
        </mxCell>
        <mxCell id="jUlRzr_6Oyi4RR8aSzZF-28" style="edgeStyle=orthogonalEdgeStyle;rounded=0;orthogonalLoop=1;jettySize=auto;html=1;entryX=-0.001;entryY=0.314;entryDx=0;entryDy=0;entryPerimeter=0;" edge="1" parent="1" source="jUlRzr_6Oyi4RR8aSzZF-14" target="jUlRzr_6Oyi4RR8aSzZF-23">
          <mxGeometry relative="1" as="geometry">
            <Array as="points">
              <mxPoint x="2239" y="1306" />
            </Array>
          </mxGeometry>
        </mxCell>
        <mxCell id="jUlRzr_6Oyi4RR8aSzZF-34" value="DarkMeRAT (.cmd,.lnk)" style="text;html=1;align=center;verticalAlign=middle;resizable=0;points=[];autosize=1;strokeColor=none;fillColor=none;" vertex="1" parent="1">
          <mxGeometry x="1707" y="1290" width="150" height="30" as="geometry" />
        </mxCell>
        <mxCell id="jUlRzr_6Oyi4RR8aSzZF-36" value="" style="group" vertex="1" connectable="0" parent="1">
          <mxGeometry x="1902" y="1277.5" width="100" height="55" as="geometry" />
        </mxCell>
        <mxCell id="jUlRzr_6Oyi4RR8aSzZF-31" value="" style="shape=image;html=1;verticalAlign=top;verticalLabelPosition=bottom;labelBackgroundColor=#ffffff;imageAspect=0;aspect=fixed;image=https://cdn0.iconfinder.com/data/icons/evericons-24px-vol-1/24/folder-zip-128.png" vertex="1" parent="jUlRzr_6Oyi4RR8aSzZF-36">
          <mxGeometry x="35.75" width="28.5" height="28.5" as="geometry" />
        </mxCell>
        <mxCell id="jUlRzr_6Oyi4RR8aSzZF-35" value="Archive Folder" style="text;html=1;align=center;verticalAlign=middle;resizable=0;points=[];autosize=1;strokeColor=none;fillColor=none;" vertex="1" parent="jUlRzr_6Oyi4RR8aSzZF-36">
          <mxGeometry y="25" width="100" height="30" as="geometry" />
        </mxCell>
        <mxCell id="jUlRzr_6Oyi4RR8aSzZF-38" value="1.Attacker uploading &lt;br&gt;Malware" style="edgeLabel;html=1;align=center;verticalAlign=middle;resizable=0;points=[];" vertex="1" connectable="0" parent="1">
          <mxGeometry x="1859.996153846154" y="1394.200769230769" as="geometry" />
        </mxCell>
        <mxCell id="jUlRzr_6Oyi4RR8aSzZF-40" value="" style="shape=image;verticalLabelPosition=bottom;labelBackgroundColor=default;verticalAlign=top;aspect=fixed;imageAspect=0;image=data:image/png,iVBORw0KGgoAAAANSUhEUgAAAoAAAAKACAYAAAAMzckjAAAABGdBTUEAALGPC/xhBQAAACBjSFJNAAB6JgAAgIQAAPoAAACA6AAAdTAAAOpgAAA6mAAAF3CculE8AAAABmJLR0QA/wD/AP+gvaeTAAAAB3RJTUUH6AcGExAvXvuCogAAX9ZJREFUeNrt3XeYXHWh//HP98zM7mxJsrvZTW9bs8kigqHXUJWmSFmSkEIAxWtB/Ymo94LEil7LVdGrUSAQpC1FBS5FkI4UCSWQuiWVTbYk2/vM+f7+CCAlCZvsTjvn/Xqe+zxXkezM55zsfObbjhEAJKGKqrY849rciKMcE4jkOlGT4xrlGCnHGJPjWuU4xoSt1UhZG5ZMhmSzjVHIGuXIKihp5G7+6GxJoQ/8d1ZS627+tz2SeiW1W9mIsU6rjB2QTKeR7bFSj5VaHanFSq3W2lbHUauVbY26tjUUcVvzx4/Z8eQJJsIVBZBMDBEAiJeSB216uL1tUsSxkxzHTjauHSPHjJPVWCsVSBovaYx2/f8hj7xtK9kmyTTJqlGOthnZJmtNg2S2G+tuk7RZim5eVTmmk7sEAAUQQEqZVLUlI1tZJcYxxY7rFsnRFFlNsdaZJGMnvV3wsGetRtoiabOVtlirrY6jOhm3RtFQ7arKUTuJCAAFEEDcVVTZNDfYUmaidoZkSowxxbK2RFKJlSaSUEztlEyNla2VbI3k1Dg2ujaSbtes+0xBB/EAoAACGJJZS22oP79tsmvdClnNlFGFrGZaqUJSmISSTousVsvRKuua1QpEV4VM+sqV54xoJBoAFEAAHzL9b00jgn2Bj7sys4xjZ8pVhYwOkZROOilvm5VWGNkVklbJaPXq80avIhaAAgjAd2UvdKg17uGS+YSMPVhWRfw+8BPbKGteldEr1piXZCIvrjm3YBu5ABRAAB7xsXtaiyKuPcbInWVkjpZ0kJUCJIMPeHek0Dr22Y5oz3NbKyf3EAtAAQSQ5KYt2xDOGJlzmOPqeGt1nIw9XNIIksF+GJDMqzJ61sg+6fQ5z75xYU4LsQAUQAAJNuv++szenvAnZHS0teZkGXuM2KCB2KmT0WPWmucCEfeJN+eO3kIkAAUQQKxV2UC5dh4WkHOKNfZkSUfIOwcmI/WsMrKPusY8Guruf2rlwnFdRAJQAAEMg4/d01rkRt2TrTEnS/ZkSbmkgiQUMdLrrvSYHPexzObRT624zAwQC0ABBDAIJQ/a9HDXzuNdmTMlnSGpiFSQgnbI6BEjPeD0OQ+zfhCgAAL4gLLb2vODoYETjDFnyerTVhpFKvDQB01U0mtW9gHXBu5fW5mzglQACiDgS+V3NJU5gcC5kj4j6VBJDqnAJ2pkzH3G2HtXvZH7vJYYl0gACiDgWTPv3lFhrDnTWp0lo6NJBFCzMXpI0l3hHbkPs24QoAACnlBe1TrLcdzzZO25kiklEWAvZVDmr1b23oyduY9RBgEKIJBSZtzTMtVx7RxJi600nUSAfdZijB5wjbt8zTmj/yFjLJEAFEAg6Uy/vWmCEwieb2TPl9FR/P0Chs1Wyd5rrLlrVWXes8QBUACBhDpw+fasgYz0c43cRZKZLTZyALFl9aYx+nMkEr1l3dyCegIBKIBA3Ly9ru/zspornrULJIIrax63Rrd02M67tlZO7iESgAIIDLsZ9zSNVzRY6Rh7iZU+RiJA0miVUZU1ztI15+a8QhwABRAYmiXWmTGz5TQZfcGRTrNSgFCApP5QWyFjlwa6B27j2cQABRDYJwfe2zEmGh1YLOkyKxWSCJBy2mV0hyP97s3z8lYSB0ABBPbonbV9xmqBlTJIBPDEB90KWf2xTV23sFYQoAACkqRJVVsyRilrgTW6XFIFiQBeZRuttFSO+/s15xZsIw9QAAEfqqhqHGdN4AuS+ZKkfBIBfKNfMn9zrfs/aytHP08coAACPlBe1Tor4LhftVZzJIVIBPD1h+AKV+Y3Y/NzbnvyBBMhEVAAAS9ZYp0ZM1s/Y2SvlNERBALgA5+GGyXzP8HuvhvYPQwKIJDiKqpsmmta5xjZb0maSSIAPkKzZH/nBkLXrT1n5A7iAAUQSKni15jtKnSJcew3ZDWZRADsoy7J3mCs+cWqyrzNxAEKIJDEyu9tHx2IDnzNSl+SlEsiAIZowMjc7hj32jfOy19LHKAAAklW/JzowFeM9DUrjSIRAMPMtbIPOjZw9arK3NeIAxRAIIHKbmvPD4YGvkzxAxDPImhM4Lurz8t9lThAAQTiqKSqoyDN9H9J0tcljSQRAHFmrez/ybHXrDm34BXiAAUQiKHpf2saEewPfNHK/pekESQCINFFUNLdbtS9au2cgvXEAQogMIxm3V+f2dsb/orddZwLmzsAJJuIMeb26ID57tq5uRuJAxRAYCjFb6kN9ea2LLbGXiNpAokASHL9Mrop6AxcvfKccY3EAQogsC+sNRV3tcy1jvt9WVNMIABS7MO1zZX9eWa4/5crzprQTSKgAAIfYebdzYdba35ppKNIA0CKqzfWfG+Vcm9QpYkSByiAwAfMuLux1LiBH0k6j3sTgMesljFXrD4/7yGiAAUQkPSxW1tzI2mRbxmrr0kmnUQAeNhj1jVfXzMn702iAAUQvjT7CRtsaNr5JSNdI3b2AvCPiGT+EBhwvvvGhTktxAEKIHyjvKrl+IDc66z0MdIA4FM7rfT9Ncr7LesDQQGEp02/vWlCMBD4iZWdz/0HAJJkXzXW+cqqC/KeIwtQAOEps5baUHfuzi8a6QfiCR4A8KEWaGT+LEWuXFU5ZjtxgAKIlFdx545PWmN+K9kS0gCAvX4ot1lrv7vajP4d08KgACIlHXBbw1gbDP3Myi4gDQDYJ68Z2ctWVea/RBSgACI1WGtm3L1jgbHml5JGEwgA7BdX0vXRdPeKdZ8p6CAOUACRtMqrdn7MyP6Bp3gAwLCpl9HXVp8/+i6iAAUQSWXasg3hzMxR35WxV0gKkQgADPsH9l/cgPulNecWbCMNUACRcDPu2HGEcXSjpBmkAQAx/dBuk8yVq87P/ZOMsSQCCiDiblLVlowRJuMax5orrBQgEQCIm0eMzOdXVeZtJgpQABE3B9y14yhrdaOVppMGACREu5W+u2Z13nVaYlziAAUQMTPr/vrMnu7wT2TslyQ5JAIACfeYDTiXrjk3dxNRgAKIYVdR1XyYK7NcjPoBQLJptzLfXFuZ90eiAAUQw2L2EzbY0NjyDRn7A7HDFwCS2YMKuJeyUxgUQAxJ2d3N5QHX3CLpENIAgORnpcaA3M+tqiy4jzRAAcQ+/gaxpvyuls8Z2V9KyiIQAEi5j/hbHEW+uKpyTCdZgAKIj3TAbQ1j3WDwZit9kjQAIKVVW7lz11YWrCAKUACxRzPvaj7JWnOLpPGkAQCeEDFWP1q9Ju/7HBcDCiDeZ/YTNtjY2HyVNeZqcbwLAHjRYwrYhWwQAQUQkqQZ97RMVTR6m6SjSAMAvMtKjY5xLlp9ft5DpEEBhJ/L311Nc2TNUkkjSQMAfME1Vj8dM2b0d588wUSIgwIIH5n9hA02NO/4oay+RRoA4MsK8LQbdeeum1tQTxYUQPjAAbfvmBwN2DslHUkaAOBrTbKat+aC/MeIggIID6uoaj4xKt1upDGkAQCQFDXW/nD1mnx2CVMA4TnWmhlVO66U0Y/FLl8AwIc94Ci0aFXlqJ1EQQGEB5Tf2z7aRPrvkHQyaQAA9sxucFz3s6vmjH2dLLyNkSCPm373zgOdyMBLlD8AwEczha4TeGHGXc0LycLjV5oIvGvmXTvOt9YuE8/yBQDsI2v0m7V29P9TpYmSBgUQKfG39t31ftdyjQEAQygJjwQGgnPfuDCnhTQogEhi0//WNMLpM7dI+gxpAACGQY1c57Nr5uS9SRQUQCShiqrGElfOA5KmkwYAYBh1yLpz1lww5kGi8AY2gXjE9Dt3Hu3K+SflDwAQAyNknPtm3NnM06M8ghFAD5h5147F1to/SEojDQBAbJuD+VPmzrwvrbjMDBAGBRCJYK2ZWdV8jTXmGsIAAMTRo+mhQOVrn81tJQoKIOLowOXbswbCwVskfZY0AAAJUG1de+baOQXriYICiDg44LaGsdFg4AFJh5AGACBRrNQYkM5aVZn/EmmkFjaBpJiyexqKosHAM5Q/AECiGWmMKz1RflfTmaRBAUSMVNzRfKgTDTwvqZQ0AABJItNY89eZdzZ9gSgogBhm5XftONV19A8jjSENAECSCVhjfj/jruafyFqWl6UALlIKePuYlz9KCpIGACDJm8XNmTtHf45jYiiAGIIZd+64WsZ+nyQAAClUL/6vQ93nb62c3EMWFEDsC2vNzKqdP7PGfoMwAAApWDGe6ZM5q64yr40sKIAYjCobmKHmpZK5hDAAACnslVAwctrKc8Y1EgUFEHtR8mB1erAz989GOo80AACpXzRMXSQQOWX9uWPrSIMCiN14++kef5F0CmkAADxkm1zn1DVz8t4kCgog3uNjt7bmRoKRhyUdRhoAAA9qMq77ydVzx7xKFBRAvF3+BoKRR4x0KGkAADys1bj61Oq5+S8SBQXQ1w68d/uYgUjgUVlzIGkAAHygzRpz2trK0c8TBQXQlw64rWFsNGAek8wBpAEA8JEuVzpr3QUFTxAFBdBXKqoax7kyj8mqgjQAAD7UbVzz6dVz8/9BFPHHs4AT4IDbd0x2rXmG8gcA8LFM69j7ZlTt4OSLBGAEMN7l77aGsa7jPGmNykkDAAD1OMacuaoy/3GiiB9GAOPowHu3j4kGnMcpfwAAvCvDtfb+8tubZhNF/DACGCclVdsKQjbwOBs+AADYrS7Jnr7mgjFPE0XsMQIYBwf9pSUnZIMPU/4AANijLMncX1HVzAMRKIDeKH99A5FHJX2CNAAA2KuRrrV/n3570yFEEVtMAcfQ9L81jXB69Zh4vBsAAPvA7jDRwPGr541eRRaxwQhgjFRU2TSnz95N+QMAYF+Z0Tbg/n161fZCsqAApo4qG4jaHbfKmlMJAwCA/TLBsYFHZ9zTNJ4oKIDJz1ozw21eamTPIwwAAIakWBHzSEVVWx5RUACT2syq5p/J6BKSAABgONiPuep/sKKqMZssKIBJacadTVdb6RskAQDAcHZAHW6tc3dFlU0jDApgcpW/O5oulfR9kgAAIBYd0H7Stc03a4mlu1AAk6T8VTWdIaPfkwQAADE1Z8aM5muJYeg4B3CIKu5oPtQ19glJWaQBAEA82ov92prKMb8mCApgQhxwR0Nx1DjPSRpLGgAAxI1r5VauvWDsPURBAYyrkqptBSE3+JyMSkkDAIC463WMPWVV5ZhniWLfsQZwPxy4fHtWSMEHKX8AACRM2LXmb2V3N5cTBQUw9pZYZyDduUVWPKgaAIDEygtE7YMlVdsKiIICGFO7dh+Zz5IEAABJoTBkg/eWPFidThQUwJgor2q8SNKVJAEAQFI5JtQxaikxUACH3czbG4811vyBJAAASEZmUfmdzd8hh0GmRQQfbXrV9kLHBl6UxBoDAACSl5XVvDVzCu4gCgrgkBz0l5acvv7IC5KmkwYAAEmv2xodt7ayYAVR7BlTwHuzxDp9/ZE/U/4AAEgZmcbqLwfeu30MUVAA98vMGU0/lHQGSQAAkFImRwYC91ZU2TSioADuk/I7ms+xMt8mCQAAUo+VjrZu0y9IYvdYA7gb029rONAJmH9KyiINAABSuQmaz62ZU3A9QVAA96qiqi3PtX0vSSomDQAAUt6AY3Qizwx+P6aA36vKBlzbfyflDwAAzwi5VncccFvDWKKgAO7WDLfpe5I9mSQAAPCUidGguWP2EzZIFBTA95e/OxtPlxEniAMA4EVWsxsbm75PELuwBlDSAbfvmBx1oq9IyicNAAA8XANlz1lzwdi/+j0I348AzlpqQ9FA9A7KHwAAnmckc2PZPQ1FFECf685p+pWsjuLvBAAAvpDrRMy9k6q2ZFAAfWrGHU1zJH2RvwsAAPiHkT4+wg3/wucZ+FPZPQ1FgYh5VdJI/ioAAOBD1sxdM6fgDj++dV+OAM5+wgYDEfNnyh8AAD5m7O/Lb982jQLoEw0NzT+WdCR3PgAAvpZjHOfOWUttiALoceV3NJwqY7/BPQ8AACRzWHdO49W+e9d+erPF924fExpwXpM0nhseAAC8zXVc99TVc8f9wy9v2D8jgNaa0ICznPIHAAA+2Idcx7m57LZ635wJ7JsCOP2upsslfZJ7HAAA7MZEEwj9yS9v1hdTwGW3NZc7jvuKpAzubwAAsOdiZBetmTN2udffp+dHAGc/YYMBE72Z8gcAAD6KlfnNjFvrp1IAU9y2xsbvWmMO45YGAACDMEpO8M+qsgEKYIoqr2qaZaz5NvcyAAAYLGt0TLlt/pqX36Nn1wDOur8+s6sr+KqkMm5lAACwj/qsaw9bN2/sSi++Oc+OAHZ1BX9C+QMAAPsp3TjmJq8+JcSTBbD89oajJH2JexcAAAzBwZ2jmq704hvz3BTwpKotGdlu+uuSSrlvAQDA0Nh+IztrzZxxb3rpXXluBDDbTfsh5Q8AAAwPkyZrbvDarmBPFcCZt28/XDJf5WYFAADDxRpz2HS38f95qtZ65Y2UPFidHmzPWSHZCm5VAAAwzPqicg6unpO/xgtvxjMjgMG2UddQ/gAAQIykO3KXaon1RHfyxJuYccf2A2R0BfcmAACIFSMdW17efCkFMBkssY6V8wdJIW5NAAAQW/a/Z9zSND7V30Uw1d/A9BmNn5fV0dyQAAAgDkbZkP2ZpPmp/CZSehPIAbc1jI04WiMpl/sRAADErUAZc8aaC8Y8mKqvP6WngCOO+RXlDwAAxJu19ncHLt+eRQGMs/I7Gk6V7BxuQQAAkADTBtKc76Tqi0/JKeBdZ/6NfFNSCfcfAABIkH7XDXx8/bz8tan2wlNyBDDQPuIKyh8AAEiwNMeJXpeKLzzlRgBL/rxjUjAYWSspi/sOAAAkvEwZfXbNBWP/mkqvOeVGAEOBgV9Q/gAAQLKwVr+edX99JgUwRmbe3nisNeZ8bjUAAJBEpnR1B76ZSi84ZaaAZz9hg9sbGldIOpD7DAAAJJke69iKdZXjNqTCi02ZEcBtDQ1fovwBAIAklWGs+UWqvNiUGAH82K2tuQNOX7WMRnN/AQCApC1WRqesuWDsY8n+OlNiBDAS6L+G8gcAAJKda/UzLbFJ36+S/gWW3dpQZGW/wC0FAACSnZEOmlHeOJ8CONQXGNTPJaVzSwEAgFRgpR8n+3OCk7oAlt/ecJSszuZWAgAAKWRiX7q+TgHcr/psjYz5lVL0ecUAAMC/jDXfmnFL03gK4D4qv6NhrmQP5RYCAAApKNuG3CVJW1CT8UXNWmpD3aMa11ipmPsHAACkqKjrBg5YPy9/bbK9sKQcAewe2fR5yh8AAEhxAeMk5yhg0o0ATqrakpHtplVLmsh9AwAAUpw1cg5ZM6fglWR6UUk3Apht079G+QMAAB5hJPeHSfiiksdBf2nJ6e3rr5WUx/0CAAA8w7onrJ07/slkeTlJNQLY29f3LcofAADwHOMk1Shg0owAHnBbw9iIo1pJWdwlAADAa1yZ09fPGfNQMryWpBkBjDj6JuUPAAB4lSP7A1mbFINvSfEiym6rz3ecwAZJ2dweAADAq6xrTls3b8zDiS+jSSDgBK6k/AEAAK8zjr0mKV5Hol9A+b1bR6s/tEHSCG4LAADg/RaoT629YOwjiXwJCR8BtAOhb1L+AACAb1gtSXwHTaBdo39BRv8AAICvGNecumbe2EcT9fMTOgJo+oJfo/wBAAAfNsDvJvTHJ+oHT/9b0wjT426SbC53AQAA8BtrzDHrLhj7XCJ+dsJGAE23exnlDwAA+JWx9lsJ+9mJ+KGzltpQ58iGWiNN5vIDAACfssbowDVzxr0Z7x+ckBHA7pENCyl/AADA54xr7ZWJ+MHxL4BLrGOt/h/XHAAA+L4BysyZcWv9VM8XwPLyxrNlNJNLDgAAoJB1nLgPjMV/BNDab3KtAQAA3nVJRdWWPM8WwPLbGo6UdATXGQAA4F1ZUTf0ec8WQGvsV7nGAAAAHyxJ+vKspTbkuQJYVtU80UjncIUBAAA+ZGL3qIZz4/XDgnFrmpHIl2UU4voCABJlRJrRlOygxmc6Gp8ZUGbQKDtkNOBKXRGr5p6oNnREVdsWUVfEEhjiylp9Q9Id8fhZcTkIelLVlozsaGiLpNFcXgBAPGSHjA4aHdLBBWmqyA2qLCeo8ZmBQf/7WzqjeqmxX0/U9+np+n4NuBRCxKMFmqPWzhv7fKx/TFxGALMjaQtlLOUPABAzASMdlB/ScePTdez4dJXlBBUYwjDH5OyAJmdn6NyiDO3sc3V7dY9uXt+ljn6KIGLZ/+xXJcW8AMZlBLD89u1vSqrgsgIAhlNeuqNjxqfp+AnpOnpcmkalxXZpe1u/q++/3KEHN/cSPmIlEolGCmvmT9oayx8S8xHA8tu2HU/5AwAMl9JRQZ0yKV3HT0jXAXkhOXF8qv2oNEe/OGqUDh2Tph+saBezwohFNwsGApdKWhLLHxLzvzbTb99+h5Eu4HoCAPbXlOyATp8S1ulTwyodFUyK13R7TY++/3I7FwexsC2rfezUFZeZgZi1zFi++pKqbQUmqrO5jgCAfTUuM6BPTU7X6VPD+lhe8h0iMbckQ6819+u+jUwHY9iN7xrVeJake1OyAAYj5lIZpXMdAQCDkZfu6JNvl75P5KfFdXp3f3zn4BF6or6PjSEYftZeFssCGLu/WkusUz69oUZSIVcRALAnGUGjUyel68ypGTpyXNqQdu4mwq9XduoPq7u4kBj2CigTKF87p2B9LP7wmI0Azpi+/TQrQ/kDAOxWRV5IlcUZOmNqWFlBk7Lv47NFGRRAxIIxrnuppCtj8ofH6lWX3779fklncv0AAO8YlxnQ2dPCOrswQ1NHBDzzvs59ZKdWtwxwgTHcmnt7eyZvXFw47AtNYzICOP32pglS9DSuGwAgzTE6cWK6PlMY1rHj01NuincwjhqXRgFELOSnp4c/LakqJQqgsdFFMgpw3QDAvyryQvrMtLDOmhpWTrrj6fd6cD6PukdsGKPFKVMAZbSQSwYA/lOQ4ei0yWGdU5Sh6TlB37zvGblBLj5iVQFPPeD2tya/OXfilqQugNPvbDhari3nggGAPwSMdPyEdFUWZ+gYj07xfpRxmQFlBI16IhwHg2HnRBRYIOnHSV0A5drFXCsA8L6JWQGdW5Shc4syNCbD8XUWRrueVrKuNcKNgVi4RNZeK2OG7RvGsBbAA5dvz+q3qpThSgGAFwWMdNiYNFWWZOiUSWFfjvbtSX7Y0TpiQGwUzbxj2zGrpWeSsgD2B+15MmYE1wkAvGVcZkBnTg3rwtIMjctkj9/ujA47hICYca2zWMlaAK3RAiPWPwCAF4Qco5MnpauyOFOHj01jcmdQBZDPQMTMebPur//yirMmdCdVAZxxS9N4V5HZ3PoAkNqmjgjovKJMnVOYwajWPggHGAJBDBmN6Oh0zpJ0Z1IVwGhoYK6xhnkBAEhB7xzWXFmSqSMZ7du/D1S6MmLeAd25SVcAjTVzuTQAkFpKRgZ1fnGGzi7M0Kg0GsxQpLMjBrGvgKeV37x19NpFk3YkRQGsqGosiUSjh3BhACD5hRyjUyela05Jpg4dk0YgwyTK/C9iL81Nc86R9KekKIDRaHQ+1wQAktvYjIDOL87Q3JJM1vbFQHu/SwiIOSMzL2kKoJWY/gWAJOQY6YgxaaosyeTcvpgXQIYAERfHlfx566Sa+ZO2JrQAlt9aP8tKZVwPAEgeBRmOzi/K1PnFGRrPuX1xKoCMACI+3+uCTuACSb9IaAG0jjmfawEAyWFWQZoWlGXq5IlhdqXGWWMPBRDx4Rqdl/ACKKuzOS8AABJnRMjotCkZWliWqZJRQQJJkIaeKCEgLox0ePHtb02unTtxS0IK4PTbGg6UcadzKQAg/iryQrqgOEOfnpahMIv7EspKamIEEHHsgCEbOFvSdQkpgEbuuSx5BYD4yQoanTE1Q3NLMjQjN0QgSaKlz1W/yyci4vilw9hzE1YAXaNz+c4JALFXNDKozxZm6ILiDI3kwOak09DN9C/i7tgZtzSNX7OgYFtcC2D5HVvLrFUF+QNAbKQHjD41Oay5JZk6KJ/RvqQugEz/Iv4cGxj4tKSlcS2AcoPnyjDcDQDD7Z0Dm+eVZiovndG+VNDIBhAkgGt0btwLoDX2bKIHgGH6Ks+BzSmtoZsRQMSfkZk9bdmGnI2LC1vjUgCLl28fI1me/QsAQzQiZPTZwgwtKMvS5GwObE7ZAsgIIBIjlJ4RPkXSXXEpgMGQzpTEvAQA7KcDR4c0ryRTp00JK53hvpTHIdBIFOPqzLgVQCOdyeo/ANg3aY7RiRPTtXB6pj6Rn0YgHlLPLmAkiDU6Q1U2oEqzTzfhPhfAkger022rPZmnfwDA4EzJDuj84kydV5ShXDZ1eNK2LgogEmZ0ebTx8LXSP2NaAIMtWbOtoxHkDQB7xqYO/2jrd9UVYV4MieMqeoZiXQBdx5zJ7zEA2L2RaY7OnhbWwulZmpTFpg4/eIvRPySYkTlT0n/FtAAaq9OJGgDe793n8hbyXF6/2dbl7noYMJA4B1ZU1U9ZVTlhc0wKYMUtjSURRYvIGQB2PanjtClhLZqeyXN5fYwNIEgGkQHnFEk3xKQADgSip/K9FoDfTR0R0HlFmaosydAonstLAWQKGEnBxq4AGplTGOcG4EeOkY4Ym6aFZVk6fmI6ByGAAojkYnSyllhHS8ygDqUcfAGssgFFth9PwgD8ZHTY0XnFGZpbkqlxmWzqAAUQyfvrakb5toPWSK8MawEsjzQeZqVc8gXgB2zqwKALIGsAkSSirnOqhrsAunJP4VcgAC8LOUYnTUpXZXGmjhrHkzrw0XqjVjt7eQwckoPZtQ7wJ8NaAN/+QwHAc8ZkBDS3NFOVxZkaHWZTBwZvW1dUlrXxSB7HHLh8e9bKheO6hqUAHrh8e1af3MPJFYCXVOSFtHB6ls6YkqEgvQ/7YQvr/5Bc0vrT3KMl/X1YCuBAMHqUZDjkCkDq/3Z0jE6fGtai6Vmc3YehF8COCCEgqdiojh22AuhacxxnHgBIZWMyAqosydSFpZnKTWe4D8NUADsZAURyMUbHDeZ/FxzsH8YKBwCpaFZBmhaUZemUyWGxmRfDbTMFEEnGSodPqtqSsbVycs+QCmDJg9XptlWHESmAVJEVMjpjaoYWlGWpdFSQQBAzWzqZAkbSSc+OBA+T9NSQCmCwNfsIKxsmTwDJbsqIoM4vytAFJZkaySPaEGNW0lY2gSAZ702r44ZcAK0V6/8AJK1dj2hL5xFtiLvmHlc9ERZIIfkYYz9yHWBwMH8ItzeAZJMdMjp9aoYWTc9S8UimeRF/m5n+RZKy0pGzltrQisvMwP4VwCXWsdrG+j8ASaMsJ6j5pVk8og0Jxw5gJLGsjlHbD5L0r/0qgNPLth4gBUaSI4BEYpoXyVkAGQFEEv/ejLqH73cBtCZwuGH+F0CCZIeMzinK1MKyLE3KDhAIkqwAMgKI5GWNOVzSb/erABqJx78BiLupI4KaX5ap84oylRFkvA/JiTMAkeQF8Ii9/fO9jwBaHcGvXgDxwDQvUg1TwEhmxtqS4uXbx9QuHNe4TwVw+g1NI6SBciIEEEvvHNrMbl6kku6I1Y5elyCQ1EKODpP0wD4VQJvZd5ixDotuAMQEhzYjlTH6h1RgjXv4PhdAxzqHsf8DwHAyko4cl67K4kyezYuUxvo/pMTvXKM9rgPc8wigNIvoAAyHd6Z5F5ZlqYRn88ID2AGMVGClWbLWyHz4TJe9/SY+mOgADMWU7IDOL85kmhceLIBMASMl5FbctW3yKmnzoApgUdXOUYr0FpIbgP0xqyBNC8qymOaFZ23uYAQQqSEyYA/WYAtgWrTvYCtOYQAweOkBo9OmhHXJjGyVMs0Lj9vSRQFEajC7ZnT/NqgC6MoeTPsDMBiTsgO6oDhTlSWZGsU0L3wgaqVtFECkCGuc3S7p220BNK4OZvwPwN4wzQu/2tYV1YDLORlImQo4+AIowwYQAB+W5hidPjWsi8uzVZbDNC/8aTMbQJBaJpfdVp+/ft6E5r0WwJIHq9PVKp4AAuBdYzICqizJ1PzSTOWkM80Lf9vKETBINcb9uKR/7LUAOu0Z5fqIZwQD8IdDx6RpYVmWTpzENG8qau51tbUzoo4Bq3GZAU0bEVDI4UIOFRtAkHL9T07FRxdA18xkZQPgX+kBo7OmZWh+WabKc0IEkmIae6K6aW2XHt7Sq/oPFJW8dEdXHjxSZxdmENQQbO5gChgpxmrmB/+rDxVAa81MNoAA/jM2I6ALyzJ1fnGmcpnmTTm9Uavr13TphjWd6ons/mv8zj5X33mhVWkB6fQplMD9xVNAkIIGUQAdzTQMAQK+cVB+mhaUZeqTkzMUpPelpCfr+/SDl9v01iCmJq2kX77eQQEcgk1sAkHqOeAjC6DZzTAhAG8JOUafnBzWwulZOnA007ypant3VD96pV2Pbundp39va2dUq1sGNDOXa7+vmnpcdQ0wSoKUk3vAbQ1j35w3tmG3BbCialVaJGJLyAnwprx0R+cWZ2peaZbGZwYIJEW5Vrq7tlv//VqbOvezjNS2RSiA+2FDx4B2jaMCqWVAAxWSdl8AXXd0mRRlBzDgMTNyQ1pQlqUzpmYone28KW3ljn4t+VebVrcMDOnP2dM6QezdRp4BjBRlrJkp6fHdF8BoZIYMHw6AFwSMdOKksBaWZevQMWkEkuJ6Ila/fL1dt1Z3aTgeQjGdg7z3rwC2s/4Pqck65n1L/N73G8DIKbUMbQMpbWSao/OKMnVhWZYmZjHN6wXPN/Tp6pdah+0A4hMnhvXxfL4U7FcB5AgYpCrXFu+xAFrz/n8IIHUUjQxqQVmWzi7MVEaQkXwv6Bhw9d+vtuvu2u5h+2o+LjOgHxyWQ7gUQPiNef8ejw+MAKqE8T8ghf4+SzpyXLoWlmXp+IlhjvD0kKfqe7XkX23a1j18a87CAaPrjsnT6DDn/eyPqOUMQKT0J8bUiqpVaasqK/o/VACtxA5gIAVkBo3OnJahhWXZKhnFWi4vae939fPX21VV0z3sXxauPSJHH+PYn/32VmdEAy7DJEhZAXdg5FRJ1e8rgLPur8/s7LDjyQdIXpOyA7qwNEvnFmVqZBqjOF7z0OYe/XBFm3b0usP+Z3/94yN1Goc/D8kGpn+R4qKBYMmHCmBXW7RYDk8JB5LRrII0LSjL0imTM8QpLt6zo9fV915u1d/38UDnwbqwNEufn5lN0EPEETBIdY7rvjvT+24BdAOBEmMZ2gaSRZpjdPrUDF1UnqXyHKbtvOrhzT1a8nKbWvvcmPz5n56Wof+aNYqgh6UAMgKI1Gb1782+/148ZN1CsYQcSLj8sKM5pVmaV5qlvHSmeb2qsSeqJf9q0+Nv9cbsZ5w4Maxrj8gVczvDVAA5AxCpXgCN+XABNNZMpf8BiVORF9IFxVn6TCFP6/D2N3Dprppu/fS1tpg+U/bwsen6n6NzWTIwnAWQEUCkOGM15cMF0GgyM8BAfAUdo09ODmtheZY+PpqDeb1uU0dEV73Yqn819sf053w8P03/e2weXySGUW/EansXawCR8iZ/qABa++//EkBsjUxzdHZhhhbPyNb4TJ7W4XWule6u7da1r7TF/Bm8M3JD+uPsPGWFKH/DaWNHhOdkwQtyp9/QNGLdJQUd7z1AbAq5ALFVODKoeaVZOr84U2Ge1uELNW0R/ecLrVq5oz/mP6s8N6RlJ47WKI4IikkBBDzxhTRrYJKkNUFJKnmwOl0tKiAWYPg5RjpibLoWTudpHX4StdKNazp13coO9cfh8OCikUHdcMJo5bBxiAII7EUgqinvFkC1p08SW4CBYZUd2nWMy+LybBWO5GkdfrK2ZUD/+WKrVu8ciMvPKxwZ1PKT83nEW0wLIOv/4A2u2bXkLyhJwQEz2fJ7AxgW00YEtWB6lj5blKlMpnl9pS9q9ds3OnTjmk5Fbfzut+UnjVY+5S+2BZAjYOARjmv/XQCtE5golrcCQzKrIE0LpvO0Dr96tblfV73Qqto4FoXCkUHddOJoFWSwkSjmBZApYHiEdTTp3QJoZMdT/4B9lx4wOm1Khi6Zka3SHKZ5/ag3avW7OI/6SbvW/N100miNofzFXFu/G7MntQDxZlwz9t0CaK3GsAIQGLwxGQFVlmRqflkWi+597LXmfn3nhVZtiPP0YPHb5Y+Rv/jYwPQvPMQa+54CaMxYpoCBj1aRF9Ki6dk6cxrTvH7Wm4C1fu+Y8fZRL7l88YibunbOAISnvKcAyo7lswzYvZBjdNKksBaXZ+mgfJ7W4XevNvfrP19oVV0CRoVmvl3+GHWOr02s/4O3jJG15u01gLvaIIB/yw87+mxRphaUZWksT+vwvb6o1XUJGvWTdo0+c8hzYmzgCBh4S/q0mzaOenvVOlPAwHs/aC8oydLZhRk8SxWS/r3Wry5Ba8EOzk/T9SeMVjaPd0sIjoCB14QzQmOCstbotm35xAE/c4w0e0JYC6Zn6ahx6QQCSYkf9ZN2HS/0p9mjebZvglhJmzspgPAWd8AZG6y4a2vugJwQccCPRoQcfbZo19M6JmQxzYt/S/SonyQdMiZNfzye8pdI27qi6okwQwaPfbEJaEywt095AZaUwGemjQjqwrIsnV+cqQye1oH3SIZRP0k6bEyals4ezdNkEowDoOFFRsoNBoOBHOvy7Qbe5xhp9sSwFpZl6UimebEbr+/o13eej+/TPHbn2PHp+u1xeQqzBjXh2AEML7KyuUHX2lx+xcDLskJGZ07N0EXl2SoaydM68GHJMuonScdNSNdvj81jA1KSqGMDCDzIcc2ooGNtDuN/8KIp2UFVlmTqgpIsjeToDOzB2pYBfeuFFq1tGUj4a5k9IazrjstTmkP5Sxa1bQPilAx4jTVuTtBamyPDLxt4g5F01Lh0LSzP1nHjw+JzFHvS71pdt7JDN6zpSPionyR9akqGfnFUroLctEmFEUB487PSyQ1ax8kxlm83SG1pjtHpUzN06YxsleawqR17t7ZlQN9+oUVrkmDUT5LOmpapnx6Zy+MFk0x3xGp7N4dAw3usbE7Qce0oyy8dpKiCjIDmlGRpflkWj8fCR4q4VsvWdupXKzsUSZLNb3NKs3TNITmMViehuvYBJn/h1QaYE7TGjto1cQakjoq8kBZNz9aZ0zIZNcGgrGsd0Lefb9HqJBn1k6RLZ2TrioNH8Rs4aQsg07/wKGNzgpLJJgmkgpBjdNKksC4qz9bB+WkEgkF5Z9Tv1ys7NJBER159buYIXXHQSC5QMhfANgogPNsAs4KyyuTrJ5LZ6LCjc4qytKAsS2MzeVoHBi8ZR/2MpCsPHqWLZ/DdO+kLICOA8K7MoDHKYI0DktHM3JDmlGbpM4WZHIiLfZKso35G0n/OGqWF0yl/FEAgoTKCVsokByQLx+w6C23B9GwdxdM6sB/WtQ7oOy+0aNXOgaR6XQEj/fDwXJ1TxK/cVBC1PAUEnpYZNFImI4BItBEhR58tytTi8mxNyGKaF/v3gX3jmo6kG/WTdq1f/cVRufrklAwuVIrY0hlRP49JhXc5QWuUyT53JMq0EUFdWJal84uzlMFD77Gf1rfuOtcv2Ub9pF1nVP7qmDydNCnMhUohbACB1wVlxVdSxPdrh5GOGJuuhdOzNXtimD1I2G/JPOonSRlBo/89bjTLGVJQbfsAIcDjBVAUQMRHVsjozKmZWlSereKRQQLBkCTzqJ8kjUxz9MfZozmyKEVtYAMIfFAA+WqKmJqcHdQFJZm6oCRLI9N4WgeGJtlH/SRpVJqj608YrQNHU/5SVS0FED4ogKy4R0zMKkjTwunZOmVyBk/rwLCobh3Qt5J41E+S8sMBLTtxtMp4JnVK4wgYUACBfZDmGJ0+NUOXzMjmAxDD5p1Rv9+s7EjqnZkTsgK66cR8TR3BEodU1twbVXu/SxCgAAIfZXxmQPPKslRZnKWcdKZ5MXySfa3fOwpHBrXsxHyN52k1KY8dwPBFATRSgFNgsL8Ozk/TovJsnco0L4ZZ1Ep/Wt2h376RvGv93jEzN6TrT8jX6DBffryA9X/wRQG0jABiH4Uco5MmhXVReTY7HBGzD+BvPd+iN3b0J/1r/fjoNP3phNEaxQYnz2D9H3xRAEUBxCDlhx3NKc3S3NIs5Ye5bTD8ola6aW2nfr2yXX3R5J+bOG5CWL85Jo9DzD1XADkDEBRAQPlhRxeVZ2vB9GyFmedFjGzpjOg/X2jVS419KfF6T54U1v8ck6c0h78TXlPLGkD4pAACuzUhK6DF5dm6oCRL6RQ/xIiVVFXTpZ+80qbuSGqsSD67MFM/PiKXda8e1BOx2t4dJQj4ogC6YhQQ75GX7ujyA0fq/OJMBRndQAxt7YzqOy+26KWGvpR5zZfOyNYVB4/iEYYeVdceERsj4ZcCGKUAQpKCjtG80ixdfuAIjQixoB2x886o309fbVPXQOp83H5u5ghdcdBILqCnCyDr/+CvAgifO3Z8WN89dJSmZLMqALFV3xXVVS+26LntqTPq5xjp6kNyNK80iwvo+QLI+j9QAOED2SGjKw8epcqSLKa0EHMPb+7R1S+1ptRTFgJG+uHhuTqnKJML6AOcAQgKIDzv0DHp+umRuZqYxQoAxFZjT1RXvdiqp+p7U+p1pweMfnVMnk6cGOYi+gQjgKAAwtMqS7J0zSGj2OSBmHt4c4+u+VerWvtS69mqGUGj3x03WkePS+ci+kTUSpsogKAAwosCRvr2J0Zp4fRswkBMNfe6uualFj22tTflXntOuqPrZ4/Wx0bzpBs/2doZUb/LHmD4pwCy5clH/nNWjuaXsZAdsfXw5h4t+VerWlJs1E+S8sMBLTtxtMpyQlxIn+EAaPirALq2h9X//vDlj42k/CGm2vtd/fDlVv1tQ3dKvv6JWUEtOylfU0ewG96P6toHJMsIIPxSAI26icH7jh4f1pcP5PwyxM5jW3p0zUutau5NzVUlpTkhLTsxXwUZbIrybwFkBBB+KoCiAHpdyDG66pAcBnoREx0Drn72SpvurOlK2fdwwOg0XX9CvnLTOQDdz2raWBEFCiA85NziTBWNZEoLw++p+l5d9UKLGntSdy/ZkePS9b/H5yszyFckP7NiDSD8dcsHZcUaQI87cxoH2GJ4dQy4unZFm+6p7Urp93Hy5Az9z9F5SgvwS9DvtndH1TngEgT8ojdojbr51edtB+RxlAWGz3PbenXViy2q70rtE6TOLsrUj4/IE90PklTL9C/8pTtojO2W5TegVwXMrgNtgaHqiVj97o123bCmQ6l+VNq8smxdfUiOOAcd76hupQDCbwXQqptN795ljJGVmOXHkLzU2KfvPN+irZ2pv0bqix8bqa+yIx4fwDOA4bsCaGVaycG7Iq7Vls6IpmSzCQT7rjdq9duV3hj1M5K++YlRumTGCC4sPqSGEUD4S2tQUhs5eNurTf0UQOzXffOt53dqU0fqj4wEjPSDw3N1bjEHoWP3GAGEn1ip1WEE0PuqaroIAYPWF7X6+attuvDRRk+Uv5Bj9MtjRlP+sEcN3VG197MDGP5hZFqDxritbALxtpcb+/R0fa+OmxAmDOzVyh39+vbzOz1zHlpG0Oi3x43WMeO597FnHAAN/xVAt9UxLiOAfnDViy3a2cc3XOzegGv1P6+3ac4jjZ4pfyPTHC07sYDyh4/EAdDwGyvT4rhWLUThfQ3dUV38jyamOfAhq1sGdM5DjfrDmx2KeuRIgPxwQLecXKCDCzgDEx+NEUD4UJvjGKeVHPxhTcuA5j3a5Il1XRi6iGv12zfadf7DjVrvoR2QE7ICuu3UApXnhrjIGGQB5Hci/MVa0+L0B/oogD5S3Tqg8x5u1IObeAS03++Dykcadd3KdkVc75wEWjQyqNtPHaOpI9j1jn0pgIwAwl+M47Y5G4KFzZKYF/SR9n5XX392py57slmbO/nm6ydRKy1d1aFzHmrUqp3e+tCryEvTraeO0bjMABcag9bcE1UbS2PgtwIYdRodVZqopJ3E4T9PvtWr0+5v0DUvtWh7d5RAPK6uPaK5f2/UL19rU7/rref/HDYmXctPzldeusOFxj5h+he+HAwIRhvemSdpkJRPJP4Tca3uqO7SXTVdOn5CWAvKR+jIcek8Os5DrHadBXntilb1RLz34MfZE8P69bGjFQ5w12LfVTP9Cx9yFHq7ABo1yKqCSHz8bcBKj7/Vq8ff6lXRyKDmlmXr/OIsZQT5UE1lWzsj+s7zLXqpsc+T7+/MaZn66ZG5Cjrcp9g/HAEDP37kr18/fmfw7SGCBvLAO+raI/rRy626bmW7TpmcoTOmZuiIcWExwJI6rKQ/r+vUL15r8+SonyTNLc3Wdw/NEd0PQyuAjADCd5q0xLjBXR8WtsEw6YcPaO93dU9tl+6p7dKoNEcnTArrM4VZTBEnufquqL7zwk69sL3Ps+/xczNH6IqDR3GxMWRMAcOHGiQpKElGTuOuMQNg99r6Xf21rlt/revWhKyATpmcoZMnZ2hWQTojg0nCSrqzukv//Wqruga8+ffZSPrmJ0bpkhkjuOAYsh29rlp4QhJ8xry/ALoNljEdDFJ9V1Q3r+3UzWs73x0ZPGFiho6bEFYmawYToqknqqtfbNETb/V69j0GjLTksFxVlmRxwTEsmP6FH7lWTf8ugEZvWQYAsR/eOzIYDhgdNS5dn5qaqRMmhjUyjSM54uHhzT367ostnj7LLOQY/eyoPJ02NYMLjmHDAdDwI2O05d0CGLF2i8MIIIaoN2rf3UkcdIwOH5uuUyaHddKkDI3J4HDe4dbQHdV3X2rRkx4e9ZOkjKDRb48brWPGh7noGOYCyA5g+JH9dwFMT8vYPNDfRyYYNhHX6rltvXpuW6++91KrDsxP0ymTM3TSpAwVjeQxXUP6qyvprpou/fcrbeoY8Pb6pZFpjpbOztcnCtK48IhBAWQEEP7jOoEtkv497Ff25y0tknKIBrE2KTuoE99eN3jYmDTOcNsHWzsjuvrFFv1zu/e/sOWHA7r+xHzNyA1x4RETR9+zTc29PAUJPhtEMObg6gsnvfbeoZgtFEDEq8QsX9up5Ws7lZfu6IRJGTphYljHjA9z8PQeRFyr5es69ZuV7Z491++9xmcGdPPJBZo6gtFixEZrn0v5gy+lhexm6e0p4LdtluzHiAbxtLMvqntqO3VPbafSA0azCtJ1wqSwPjUlk3WDb/vn9l79eEWrqlv9MV01IWtX+ZuSTflD7Ow6/4/dj/AXI3Wvqpyy830F0Mhu4a8CEqkvavXP7b365/ZeXbuiVQeOTtNJkzJ07IQMleeGfLdNaUN7RNeuaNFT9b2+ec+Ts4NafnKBJmRR/hBbHAEDP7Iym9/5/9/9LWuttrARGMnCtdJrzf16rblfv3itTfnhgI4cl66jx4d19Piwp0cHt3dH9cdV7bqzpksR1z9fy6aOCOrmk8dofCYjv4hHAWQHMHxZAbd+uAAas9EwHI4k1dwb1f0bu3X/xm5Ju0aKjhoX1lHj03XM+LCyQ6l/5uC27qhuXNOhO6s71Rf119/FaSODWn7SGI2l/CFOeAQc/Nn/TN2HCqAxqqH/IVVs6YzozppO3VnTqTTH6BNj0nXM+HQdNS6sGblpSqWNxdVtA7plbafurevSgOu/v4TFo0K6+aQCFbDmE3HEFDD8yBjVfqgApsut7mMOGCmo37V6YXuvXtjeK6lNeemOjhwX1qwx6TpkTLpKR4WSrhBGXKtHt/TotupOvdTg3zM4S3NCuumkAuWHKX+In/Z+V4097ACG/7hGNe+Wwff+g7I/b94hKY+I4CUjQo4OLkjTJwp2FcID8tISctyM1a51jY9u7tZ9G7vV5PMPoPLckJadNEZ56TwyEPG1oqlP8/7eSBDwHeOYj6+bN3ml9P5jYCSplgIIr+kYcPV0fa+efns3bcBIRaNCOiAvTRV5aTogL6Ty3NiUwu6I1atNfXr8rR49uqVHDd2MOkjSAaPTdOOJBRrF86KRAOtbmf6FPwWD6R9eA/i2GkmHEhG8LGql6tYBVbcO6C91Xe+WwikjgioaGVLhyKCmjQhp6sigCkcElZ8RGNTiiNY+V1s6I9rUEdHrzf1a0dSntS39irK29n0Oyk/Tn04o0EjKHxKkmgIIf9q2qnJM524LoDWqMXxYwaelcEN7RBvaP3w0hGOknDRHOekB5aY7GpXuqPftp3F0Drjqi1rVd0U9/1ze4XDImHT9cXaBskKsN0YCCyAbQOBPNe/9D+8rgMa1Ndbwixn4YDnc0edqRx8FbygOpfwhWQpg6wCHXsCPat/7H943B2Ots458AAy3Y8eHdcOJlD8kXlNPVDv5Mgcfssau3WMBTAunrxIPRwQwjI6bENbvj89XOED5Q+LVMP0LnzJWq/ZYAN9eHLiVmAAMh08UpOu6Y/OVRvlDkmAHMHxbAI1W77EASpLR+xsiAOyPj+en6YYTChJy5iKwJ2wAgU91r6+esnGvBdD9QEMEgH1VPCqk609gzR+SsAAyAgh/Wqslxt1rAXRcs4acAOyvnHRHfzg+n0OekXSspJq2CEHAd4zMh2Z3PzwCGDBMAQPYLyHH6Lpj8zV1RJAwkHS2cV4nfMqVu/qjC2Cwb7XYCQxgP1xzaK4OH5tOEEhK7ACGb1nzoQL4oa/pdZXFbaV/3rxJVtNIDMBgnTI5Q5UlWQSBpLWuZYDhDfiSa4OvffC/2/0iHatXiQvAYI3NDOhHR+QRBJIaO4DhR0ZqqVswfsvgCqAogAAG75pDc5WTzqYPJLcadgDDh6zMKzLGDq4AGksBBDAoH89P00mTMwgCSc21Um07BRC+rIC77XS7LYBOwLxCYAAG44qDc8Rpf0h2mzsj6omwABA+rH8yrw26AK6bO6VeUgOxAdibWWPS2fWLlMD0L3zLuIMfAdz1L+g1UgOwN+cVs+sXqYFnAMOneiZNnLJ+nwqglZgGBrBHjpFmTwwTBFICO4DhUyufPMFE9qkAOlYvkRuAPZkyIqjR4QBBIDUKICOA8CXzwh573p7+QUDuiwQHYE+KRoYIASkh4lptaOcZwPAj++I+F8A1C6Ztk7SZ8ADszsg0zv1DatjQHtGAyw5g+I9j3T2OAO71ie1G9gUrTSFCAB8U5QMVKWLX+j/uV/hO47qF0zbssRzu/d81TAMD2K0dfVFCQGoUQNb/wZ9e2Ns/3GsBNMZSAAHs1tqWfkJASuAIGPiR+YhBvL0WwL4Bd4UkfssD+JCdvS4jK0gJ1W18jMGHBXAv6/8+sgBuXFzYK+l1YgSwOw9t6iYEJLXeqNWWDnYAw3ciGuj9134XQEmy1jxNjgB25/bqTvVGWVyP5FXbNiBuUfjQq+suKe8YUgGUEQUQwG7t6I3qjupOgkDSYpkC/Ggwg3cfWQD7HfuMJJc4AezOb1e2aUcvO4KRpAWQR8DBjwYxePeRBXDzhVNbJPsmaQLYnfZ+V99+fienrCEpsVsdPmSDrvPckAvgrj/KPEWeAPbkqbd6dMvaDoJA0uEIGPiw/72xdtGkHcNSAK3DOkAAe3ftihY98VYPQSBptPW7auhmeQJ8Vv/kDKqzDW4EsD/tKfEcHQB7EbXSN57doTd2MOWG5LCuhdE/+LEB2uErgDUXj2+S0WpSBbA3nQOuLnqsUW9SApEMBbCV+xA+rH8aGNSyPWfQf6SrR8kVwEfpGHC14LFGPcV0MBJdABkBhP+8VruwpHFYC6CRpQACGJSuAVdfeLJJt67njEAksAAyAgi/MYMfrBt0AQwr/JSkPtIFMBhRK33vpZ360cstcllBjDizkmraeAQcfNb/ojEogCsXjuuS7AvEC2Bf3Ly2Q5c/06yOAc6TR/xs7Yyoi3sO/tLbnfHR5//tcwHcVS0dpoEB7LO/b+7WWQ9s178amURAfLD+Dz709NbKyYNefL1PBdBIfydfAPujviuiBY826Ecvt2iAOWHEugCy/g++s297NfapAK5Pm/yKpB2EDGB/uHbXlPCcRxq0sZ31WYgdngACvzFyY1cAVWmisuYRYgYwFG/s6NfZD27TndWdnDAPCiAwdPXr5xeujF0B3FUxHyBnAEPVHbG6+sWduvgfjarvYjQQw6cvarWxnQIIHzG6T8bs0/fpfS6A0fSBByXxNwvAsHhuW6/OfGA7o4EYNjVtA4pyM8Ff/m9f/4V9LoB1lcVtkv0nWQMYLp0Drq5+cacuYTQQw4AdwPCZnq6u0OMxL4BvYxoYwLB7ltFADEcBZAcw/MTqH/WXTeiOSwE0AUsBBBAT74wGXvp4o7Z1RwkE+4wNIPAX83/782/tVwFcP69wraRqQgcQK8/U9+qM+9kpDAogsDeRQOShuBVASbKy9xM7gFhiNBD7qqXPVVMP9wp849UNFxZtimsBDBhzL7kDiIdn6nt15tujgcDerGth/R98xJh79vdf3e8CuK5myvOS6kkfQDx0vGc0cDujgdjTZxPTv/AT193vwTgzlJ9bdsvG31npi1wBAPE0IuToyk/k6oLSbMLA+/zXCzt0Vw0jxfABo1XV86cdsL//ujOkn211D1cAQLztGg3cwWggPmQtU8DwS/9z7ZA62JAK4Lrw1KckNXEZACTC0/U9OuuBev1tQxdhQK7d9RQQwBcF0CawAKrSRI10H5cBQKK09bv65nPN+twTjWpk96evbe4cUE+EQ4PgCzXrFhWtTFwBlCTDNDCAxHvqrR59+v+26ZHN3YThU+t5BBx8wsgOuXsNuQBOmDj1UUmNXA4AibazN6qvPN2kK55rVlu/SyA+ww5g+IV1dEfCC+CTJ5iIxCgggORx34YunX5/vR7f2kMYPsIGEPij/Wlt9YWFrw31jwkOx2sxcm631v0PrgqAZNHUHdUXnmjU2UVZuuawPGWFHELxegHc2S+eGwgfuHU4/pBh+Y24fv7kZyVt5JoASDZ/revSmQ9s0wvbewnDw7oGXG3tjBAEPC8aCNyZNAVQxlhj7Z1cFgDJ6K3OiBY92qCrX9jBLlGPWtcywOAfvM/qhboLJ1cnTwGUJMfezpUBkLy/N6U7qzt11gP1WtHYRyAes4b1f/ADY4ataw1bAVy/oOh1SW9ydQAks80dEc3/+3b9/JUW9UcZM/IKNoDAB6IDUbcq6QqgJFlj/sz1AZD0v0Wt9MdV7TrnwW1avZPi4I0CyBEw8DYjPbpxceH2pCyAkYh7syRW4QJICetbB3TeQ7tGAyMuo4GpyrVSdStFHh6/z2VuHM4/b1gL4NvN9O9cJgCpIuJa/XFVu+Y90qAN7YwipaLNHQPqZnMPvG2nWvuH9dG7w34wlrVmGdcJQKp5rblPn35gm/64ql0MBqaW1Uz/wvturbm8dFh3rw17AUzP6LxPUhPXCkCq6Yta/fyVFs17ZLs2dlAqUsVa1nHC46zVsA+uDXsBXFVZ0S9rb+NyAUhVrzT16TOMBqZOAWQHMLxc/mTfqFk07dWkL4CSFAgEb+CSAUhlPZFdo4GX/KNB27rY20YBBBLDyLk+Fn9uTArg2vmT3zBGK7hsAFLdc9t6dcb923RndSdhJKG2Plfbu6MEAa/qM8FQTGZVY/d0dGuWct0AeEHngKurX9ihSx9vVANlI6nwBBB43N3r501oTqkC2NkTulVSK9cOgFc8/VaPzri/ntHAJML0L7zMGCdmg2kxK4D1l03ottKtXD4AXtLev2s08KtPN6mlzyWQhBdAdmvDs9asnz/52ZQrgJJkpN9p1zPYAcBTHtrUrdPvq9ejm7sJI6EFkBFAeJMx+l8ZE7MOFdMCWL1w2hrJPstlBOBFO3qj+tJTTfrq001qYzQw7qJWqm1jBBCe1N3rmJjOojqxfw/mD1xHAF720KZunfVAvZ6p7yGMOKprG1BflEkmeI+1um3zhVNbUroA2taBeyQ1cjkBeNn27qgu+Ucjo4FxxA5geFUghps/4lYAay4v7ZMRR8IA8IWHNnXr9Pvr9dgW1gbGGuv/4EXW6Ll1C6e8HOufE4zHm3Ft5LdGwSslpXNpAXhdY09U//Fkk06bmqnvHz5aOekOocTAmpYBdhnCe1zzq3j8mLj8VqpdWNIoqYqrCsBP3hkN/MdW1gbGwtqdjADCczZNmjLlr/H4QcG4vSWjX8naBVxbAH7S1BPRF55o0GlTs/S9w/OUmx4glGFQ3xVRcy/PaIa3WJnrnjzBxOXGjtu8RM2Caa9Y6RkuLwA/emhTl067r14Pb+oijGGwsrmPEOA1XeH+wLJ4/bC4LkxxjPk11xeAX+3ojeorTzfp8qebtLOXZwoPqQDuYPoX3mJkblx16eSdniyA1elT/2qljVxmAH720KYunXZ/vf5vI6OB++vNHYwAwlPcaCB6XTx/YHy3plWaqGP0K64zAL/b2RvV155p0uceb1BDN6OB+yLiWr3GFDA8xEp/rbuwuNq7BVBSV3f6nyQ1cbkBQHryrR6dfv9buqO6gzAG6fXmfvVEOAAG3mGs+Xm8f2bcC2D9ZRO6ZfQ7LjcA7NLe7+rqF3boc483aHs3O1s/yosNHKsDT3miZtG05z1fACUpvS94nWQ6ueYA8G9PvtWjM++v1721/HrcewFk+hee8tNE/NCEFMBVl07eaa29gWsOAO/X1u/qW/9s1uceb1BjD2sDP6g74urlxl6CgFe8XrNg2t99UwAlyQQiP5fEPn4A2I0n3+rRafexNvCDnq3vVX+U9X/wBiv9RMYk5IZOWAGsmV+6VdIdXH4A2L131gZ+5ekmtfQxGihJ/9jaTQjwirra8LS7EvXDE/qEcjfg/lASv9UAYC8e3tSlM+6v1+M+Lz9Ra/XUW2wAgTdY2Z+o0iSsAyW0ANZdWFxtpLu4DQBg75p6orrsiUZ9+5/N6hxwfZnBP7f1agdPUIE3bA6He25O5AtwEp+B+b4kl3sBAD7aPbWdOvP+ev2rwX8bIe7bwJNT4A3W6EerKisSug8i4QWweuG0NbK6m9sBAAbnra6IFjy6Xb96vVVR648NET0Rq0e3sP4PnrA5nN59U6JfhJMUUQSc74lRQAAYtKiVfreyVZUPbdfGjgHPv9+/behU1wAfE0h9xurHiR79S5oCWDN/6moZcy+3BQDsm5U7+vTpB+q1fG27p9/nHes5DgeesMW2RW5KhhfiJEsiromyFhAA9kNPxOoH/9qpLz/V6MnjYl5u7NWqnRwbCw8wurbm8tKkeJRN0hTAuvnFbxipirsDAPbPI5u7ddp99Z47K+9/32jj4iLlWWmjWiI3JsvrcZIpnGjA/a6kAW4TANg/O3qj+sITjbryuWZ1R1J/UuXNHf16tp6z/+ABxl6TLKN/SVcA3z4XcBl3CQAMzV/qOvXpB7bplaa+lH4fP3+1RTz4DanOSusmT9p0WzK9JifZQnJCge9JYq8/AAzRpo4BzXtkm37+aov6UvD5uY9t6dZz2xj9gwcYffvJE06IUAD3Yt3cKfXWmN9xtwDA0EWttPTNNp15f72e3546h0f3Rq2uXbGTCwgPdD/9q3b+tL8l2+tykjGsAcdcK6mF2wYAhsfGjgEtfHS7Ln+6STtT4HFqP3ulRZs7Ilw4pP6XMMf5joxJuiH4pCyAmy+c2mJkf8ltAwDD66FNXTrt/nr9ta4zaV/jP7f16BaPn2sIf7Ayj9XNn/qPZHxtJllDm1S1JSPcE1knaTK3EAAMv6PGh/WdQ/JUnpuWNK9pS0dE5zxYr9Y+joVFynOtdQ6rvWjqCgrgPipdvuEia9kVDACxEjDSOcXZ+vrBuSrICCT0tbT0RTXv4e2qaeM0MHjCsppFhRcn64tzkjm56rppyyWt4B4CgNiIWumumk6d9JetuvblnWrqScz6wNY+V4sebaD8wSt6bDR6TTK/QJPsCZYs2zBbjp7gXgKA2AsHjCpLR2jhjBGaOiIUl5+5oX1Alz3eqA3tlD94xvdqFhUuoQAOtQTeVHefjM7ifgKA+HCMdOyEDF04faSOm5ipQIw+Lf5W16nvv7RD7f2s+YNn1GeazLKVC8d1UQCHaPotddOjrt6QFOK+AoD4Gh0O6JNTs3TGtCzNGhMeljK4eme/fvHqTj39Fgc9w1uMtRdXX1Sc9PsXTKoEWnJz3XWSvsytBQCJkx1ydOjYsA4fF9bH89NVOipNo9IHt5y8uTeqZ97q0V9qO/XC9h4e8QYveq0mo/AQVZqkP2wzZQrglFs35aZFouskFXB/AUDyGB0OqHBkSKPSHY1MczQizVHUlaLWqnPAqqM/qg3tEW3pGKD0wcusjDmhZmHhU6nwYk0qJVt804bPG2OXco8BAIAka1S31iwsmp8qL9dJpWxrN067XtJL3GUAACCJdDg29K1UesEpVQC1xLiusV+SxHYxAACQFIz0g/WLJr9FAYyhuoXFLxvpFm43AACQBGpsW/Q3qfainVRMOhLStyS1cs8BAIBEsnIur7m8tI8CGAcb5hU1GGuu4bYDAAAJY3RP7aJpD6XiS3dSNfPqjdN+K+kF7j4AAJAAHXKiX0vVF5+yBVBLjBuVLpMU4R4EAADxZKX/qplfupUCmAAbFhWtlDHXcRsCAIA4erk2o/B/U/kNOKl+Bbp70q+y0kbuRQAAEAdROc5lqfC4N08XwPrLJnTbXWcDAgAAxJbVr2oWTHsl1d+G44VrUbew+EEj+xfuSgAAEEOb0jN7lnjhjTheuSJBJ/AlSTu5NwEAQCxY13xhVWVFJwUwiaxZMG2blfl/3J4AAGD4mRtrFxc+7JV343jp0tQuKrxZ0n3cpAAAYLhYaVt/0LnCS+/J8dpFCkSC/yEeEwcAAIatLZkvbr5wagsFMImtu2RKvTW6krsVAAAMmdGttQsK/+q5TuvFa1W7oPB6SX/nrgUAAEPQbOV6cn+BJwugjLHRoD4vqZ17FwAA7GeduKx2YUkjBTCFbLiwaJOVuZzbFwAA7Ef9W1a9sPher747x8uX7u1dwXdxEwMAgMGy0kYFIl/z8nt0vH4RndDAFyVt53YGAACD4BrXLK6ZX+rpZWSeL4Dr501vljEX7Sr0AAAAe2at/XnN4sInvf4+HT9czJqFhY8Yoz9xWwMAgD0zq6LWucYP79TxyyVNC/d8Q1I1NzcAANiN3qjsvI2LC3spgB6yqrKi01p3rqR+7nEAAPA+RldsWFS00j9v12eKl9d9w1j7c+50AADwdhl6sHph0Zkyxjf7BRy/XeTaBYW/lNX93O4AAEDSWyYUWeSn8ufLAihjrFz3Eitt454HAMDXXGvswvXzpjf77Y07frzaNReXNhnXnScpyr0PAIBv/aB2Ycnjfnzjjl+veM3i0icl/Yx7HwAA/7FWz9RkFP3Ar+/f8fPFr8kouspKj/HXAAAAX2kMmMhcVRrfzgT6ugCq0kTdkJkv2Xr+LgAA4Auuccz89Yumv+XnEBy/3wUb5hU1yATmSYrwdwIAAK8zV1cvKHrU7yk43AhSzcLCp2R0NUkAAODh6ic9WLOh8Cck4cODoPfIWlO6vO4eK32WMAAA8JzNTigyy49HvuwOI4DvVmFj+4LBSyRtIAwAADylz3V1HuWPArj7rwYXTm2JypwtqYs0AADwCvPlusXF/yIHCuAebVhUtNIYLZRkSQMAgFRnf1uzqOh6cqAAfqTqhcX3SvopSQAAkNKeS8/o+wYxfBibQPZkiXWKp9XdZ6QzCAMAgJSzxTr2kNqFJY1E8WGMAO6xABrXBN15kl1DGAAApJRe1+pcyh8FcL/UzC9tl2vPk9RBGgAApAhrPs+mj71jCngQipfVfErG3C8pSBoAACRxsTH6Sc2i4u+QxN4xAjgItYtLHrZGV5AEAADJ3P50b82Gov8iCArgsKlbVPxra/W/JAEAQFJ6JctkLdQS4xIFBXB4S2BW0eWS/o8kAABIJrbeBN3PrFw4jgc5UABjoNJEd+0M1puEAQBAUui21pxdM790K1FQAGOmZn5pe8CNfkYSW8sBAEisqJGZy45fCmBcrL+4rM46OkNSJ2kAAJAg1n695qKi+wiCAhg3dQuLX7ZWF0iKkAYAAHHuftK1tYtLriOJ/cM5gENUclPdJVaWh0wDABA/t9cuKrpQxlii2D+MAA5RzUVFNxjp+yQBAEBcPGHa3cWUv6FhBHCYFC2r/Z0x+iJJAAAQM29GrXPsxsWFrUQxNIwADpMp0zZ/1UgPkAQAAMPPShuC0dAnKX/DgxHAYTSpaktGelffQzLmeNIAAGDYNLpRc9yGS4rWEQUFMCmV/Ll6pI2YxyXNIg0AAIaszRh7Qs2i0leJYvgwBTzMauaXtgfSop+StIY0AAAYkm7XOmdR/iiAKWH9vOnNJmhPldEm0gAAYL8MyOi8DYuLniEKCmDKqJlfutW65hRJDaQBAMA+cWW0oHZRyUNEQQFMOXWLi6vdqPNJSTtIAwCAQbGS/qN2UcmdREEBTFkbLil63bHuyUZ2J2kAALD38mdlvlR7UckfiYICmPKqF5e9JqszJLWTBgAAe3Rl3UXFvyeG2OMYmDgqvrHmKDl6WNII0gAA4N+sMd+uW1T8U5KID0YA46j24pJ/WsecLqmTNAAAeNdVlD8KoKfVLSx+1rXOOZJ6SAMA4HdW5prai0p+RBIUQM/bsLjoUUfupyR1kAYAwM/lr+6i4u+TRPyxBjCBipbXHmNc+3+SRpIGAMBXBcTY/6pZVPpjkqAA+rUEHuK47iNWJo80AAA+YK0xX69bVPxrokgcpoATrG5h8ctydYo4LBoA4IPyZ2S/QvlLPEYAk0TJzdUHW2selTSaNAAAHhS1Mp+ru6h4GVFQAPEepcvXz3Bd5++SJpEGAMBD+o3sgpqLSquIggKI3Si8vm6qE3QflVRKGgAAD+iW1bm1i0seJgoKIPZWAv9UN9aE7MNG9iDSAACksFZJZ9ZeVPIcUSQXNoEkoQ2fK2pwrXOCJP7CAABSVYNj3RMof8mJEcAkNmFpfWZGevc9kj5FGgCAFGoXm6xrTqlbXFxNGMmJEcAkVn/ZhO5wZt9njOytpAEASInuZ+zrwUjkKMpfsnd0JD9rTclNNddYY64hDABAEreKx22vOafusuI2wqAAYpiU3Fx9qbXm95KCpAEASCZW5s8Zmb2XrKqs6CcNCiCGWfGymrNldJukDNIAACSJ39RuLP66lhiXKCiAiJGSZdVHWGPuk1RAGgCABIoa2a/WXFT6O6KgACIOpi3bUB4w0QckFZMGACABOo3shTUXld5HFBRAxNGk67fkpQf77pE0mzQAAHFUL+nTtReVrCCK1MQxMCls66WTd4Yz+z4p6SbSAADEgzH2dbk6gvKX4teRCLyh6Obarxprf0mpBwDEsDXc29ObuaD+sgndhEEBRLKUwJtqzzWyyyVlkgYAYJix05cCiGRVfFPNLMn+RdJk0gAADINeY/X5msWltxAFBRBJrOy2dfnRAedOWZ1IGgCAIXjLNe45GxZNf4koKIBIAbOXPBHcOnXSD630LdIAAOx7Q7DPRm3o/I2LC7cTBgUQKabopuoLjdWfxJNDAACDZe0fw9kDX+GxbhRApLCSG6s/YY3+ImkKaQAA9qLPWH255uLS64mCAghvlMACGd1qpVNIAwCwG1uMVFmzuPQFoqAAwkuqbKCkq+ZqK10tzgsEALzLPtgXHViw9dKKnWRBAYRHFd20/gzHmuVWyiMNAPC1qJF+WLOp5Puc70cBhA8U31gz2Rp7l5EOJw0A8GUDaDbShTUXlf6dMPyHaUCfqr24ZIvToeON0e9JAwB81/6eCUajH6f8+bn/w/eKl9WcbWRvYEoYADzPlTW/zRlovWLFZYcMEAcFEH4vgTfWTJbRrZI9ljQAwJOf+Fsd2QurLyp7mjBAAcS//XuX8FWSAgQCAJ7xt5ATuWTtohk7iAIUQOxWybLq2Vb6s6SJpAEAKa3Xyn677qLS38gYSxygAGKvypauy3fTnD9Y6VzSAIBUZFdaBebXLS5+gyxAAcQ+KVlWfb6VlkrKJQ0ASI3mJ2uuM532yprLS/uIAxRA7Jei5bVTTMS9SUYnkAYAJLVNRrqoZnHpk0QBCiCG4fukNcU3135O1v6PpEwCAYCkc9dAWtplmy+c2kIUoABiWBVfX3OAHLtcRgeTBgAkhUYr+x91i8vuJQoMFk8CwT6pvbTkzcmbtx5mpW9LYm0JACTWXcbqAMof9hUjgNhvJTdVV7hWN/A8YQCIu+1W9ksUP1AAkRhLrFM8rfZSa+0vjZRFIAAQc3eFnMh/cKgzKIBIuKKba8uMjd4ga44hDQCIiU3G6rKai0sfIQpQAJE8du0UXiDZX8gqn0AAYFg+qSNyzf8GbeSqdZeUdxAIKIBISoV/qhvrBKM/kzSfewwAhvLFWq9a41xWt7j4X4QBCiBSQsmy6tmSfm+lctIAgH3pfeqS9IO6rJKfq9JESQQUQKSUSVVbMtK7eq+S9E1JIRIBgI/8YL7Hcdyvrl80/S3SAAUQKa1oWW2pUfRXkjmdNABgt6qtnK/VLS5+kChAAYSnlCyrPsuVfm2kQtIAgF3TvY70c3Xo2prLSzlgHxRAeNOkqi0ZaV29lxtjr5JVNokA8O2HsNEDrhP4Ut3C4s2kAQogfGHasjXTAjbwSxl9ljQA+ImVXrOyl29YPP0Z0gAFEL5Usqz6CGvtL2V0JGkA8LhtMlpSm1l6A7t7QQEErDUlN9WcZ2X/W9I0AgHgMd1Guk4h8+Oa+aXtxAEKIPAeE5bWZ4bTur5iZP9T0kgSAZDqX28l3e1Gg9/ccGnRJuIABRDYi2nLNowLKPJ9GbtYVkESAZCCn7CPGWOurFlU+iphgAII7FMRXDPN2MB3jNGlkhwSAZACXpLVf9VdXPYYUYACCAxB8fU1ByjgftdK55MGgKT8QLVa4xpzzYaLSu6WMZZEQAEEhknJzdVHRl37YyPNJg0ASWKzMfoRO3tBAQRirGjZutMlc42kw0gDQKKKn6z5SUZ2/w2rKiv6iQMUQCBeRfDG9Scbox9Y6QjSABC34if90lVo6cbFhb3EAQogkKgieMO6Y2T0fRlzAmkAoPgBFED4SOFN1aca2atldQxpABgOVqqT7E8ysyI3M9ULCiCQxIpvqpkl637LSudxnwPYTyuNsb+YvLH+tieXnBAhDlAAgVQpgtfXHKBA9EorM0dSiEQADOKj8Tkr/XTDRSUPcJwLKIBACiu8vm6qnMj/M0aXSMoiEQAf4MroQceYH9csKn2eOEABBDykaGntKKVFL5L0/yRNIRHA95+CndbVbQGZX9dcXLqaQEABBLxsiXUKp9acYaRvSfZoAgF8Z5tk/9gfjfxm66UVO4kDFEDAZ3ZtGIl+lXWCgC+sMMb+ho0doAACkCSV/Kl6khtwP2eMudRKE0gE8IwuY8ztkvlD7UUlK4gDoAACH7bEOkVTqk80Rp+30jmSAoQCpKR1klnWH+3/E9O8AAUQGLTi62tKrONeKuliSQUkAiS9fiP9zUp/rFtc+g+OcQEogMB+K/lNdbrNds+WzGIrnSxGBYFk87qMlgX77a3rL5veTBwABRAYVpNvWDsh5AQWyNpLJJWSCJAwrVaqMtbeUnfJ9GeJA6AAArFnrSm8af0xRuZiWZ0raQShADEXtdY+KjnLAl36W83lpX1EAlAAgYSYtmxD2ChyimPtAit9RlIaqQDDarWMWe4qePPGxYXbiQOgAALJVgZzAm7/p60x50v6lKQgqQD79QG1xlpbJSd4a93i4moSASiAQEoo+VP1pKjjXuAYc56VDufvHPCRaiXd7RrdsXFx2WvEAVAAgdQugzdWF1jrnsbIIPB+VqqT9ICx9q66i8ue4+gWgAIIeFLx8poxiriftdK5kmaLR9DBf6XvVUe6NxLVPZs+V7aGRAAKIOArY5e/npUZzTxR1j3TGJ0lq/GkAg/qlfSsjH1AgdBf6hYWbyYSgAIIQJKWWKd42tqDbdQ5S8acKdlP8PcUKazRWD3iOvb+NFcPr7ukvINIAAoggI9QfGPNZNdGTpUxpxjpJEn5pIIk1iNjn7HWeVTWPrrh4rKVrOcDKIAAhqjkpuoK10bPlDUnSzpGUphUkEhvb+B4TMZ5wCr46MbFhb2kAlAAAcTIhKX1menBrmNkoscameMlHSYpnWQQQ66kVUZ6yjX2aScQfKp2YUkjsQAUQAAJMnvJE8Et08Z93Fpzsqw5RtKxkkaRDIYgKmmd3bV547FQv3li/WXTm4kFoAACSFKzlr4cakkbcZC1OtzsOoT6CEklJIO9aJTsi1bOi47c54NW/2LjBkABBJDiSm6sLnBlD7dyDzcyh0uaJSmPZHypR9JKa/WSccwLQasX1l9cVkcsAAUQgA9MvmHthKATmGUUnWlcU2GNZkmawe8HT2mT1ZvW2BWONSsUcFeFM903VlVW9BMNQAEEAElS+c1rRvdb5yDjmgord6ZkZkqqEKOFya5Hsmsks1pWq6zsauvYlRsXz9hINAAogAD2y7Rlq8Y5JlhhXc0wMjMlW2KlYiNNlRQgobjZLqlaRrWSXWsVWB2ydtX6zaUbtcS4xAOAAggg5mYtfTnUEs4qNBGnWI4pca1bYmSKJE2VzCTJ5pLSPumRtEnSVmO1QcbWWOPUWNfWdod6axoWfryLiABQAAEktbHLX88aEcmcGlFkspEz2VhNkrFTZMwYWY2RNF5Sgbx/jmFUUtPb/7ddUoNk6q3sFhlnUyCqrU7U3cJRKwAogAB8o2hp7Sg3LTLeSAVGpsBamyeZHMfaXCvlyNgcyeRIyjFSriulGylHUkjSiDi9zB7J9Epuh+T0SbZVUquRWlyp1ci0yNpWybQax7bK2ka5bqNrw00bLi1s5NFoAJLB/weFKjOGVQG1xwAAACV0RVh0ZGF0ZTpjcmVhdGUAMjAyNC0wNy0wNlQxOToxNjo0NiswMDowMHgCaIQAAAAldEVYdGRhdGU6bW9kaWZ5ADIwMjQtMDctMDZUMTk6MTY6NDYrMDA6MDAJX9A4AAAAAElFTkSuQmCC;" vertex="1" parent="1">
          <mxGeometry x="1926" y="1388.2" width="52" height="52" as="geometry" />
        </mxCell>
        <mxCell id="jUlRzr_6Oyi4RR8aSzZF-41" value="Telegram" style="text;html=1;align=center;verticalAlign=middle;resizable=0;points=[];autosize=1;strokeColor=none;fillColor=none;" vertex="1" parent="1">
          <mxGeometry x="1917" y="1439.2" width="70" height="30" as="geometry" />
        </mxCell>
        <mxCell id="jUlRzr_6Oyi4RR8aSzZF-43" value="&lt;span style=&quot;color: rgb(0, 0, 0); font-family: Helvetica; font-size: 11px; font-style: normal; font-variant-ligatures: normal; font-variant-caps: normal; font-weight: 400; letter-spacing: normal; orphans: 2; text-align: center; text-indent: 0px; text-transform: none; widows: 2; word-spacing: 0px; -webkit-text-stroke-width: 0px; white-space: nowrap; background-color: rgb(255, 255, 255); text-decoration-thickness: initial; text-decoration-style: initial; text-decoration-color: initial; display: inline !important; float: none;&quot;&gt;3.Malware execution and&lt;/span&gt;&lt;br style=&quot;forced-color-adjust: none; color: rgb(0, 0, 0); font-family: Helvetica; font-size: 11px; font-style: normal; font-variant-ligatures: normal; font-variant-caps: normal; font-weight: 400; letter-spacing: normal; orphans: 2; text-align: center; text-indent: 0px; text-transform: none; widows: 2; word-spacing: 0px; -webkit-text-stroke-width: 0px; white-space: nowrap; text-decoration-thickness: initial; text-decoration-style: initial; text-decoration-color: initial;&quot;&gt;&lt;span style=&quot;color: rgb(0, 0, 0); font-family: Helvetica; font-size: 11px; font-style: normal; font-variant-ligatures: normal; font-variant-caps: normal; font-weight: 400; letter-spacing: normal; orphans: 2; text-align: center; text-indent: 0px; text-transform: none; widows: 2; word-spacing: 0px; -webkit-text-stroke-width: 0px; white-space: nowrap; background-color: rgb(255, 255, 255); text-decoration-thickness: initial; text-decoration-style: initial; text-decoration-color: initial; display: inline !important; float: none;&quot;&gt;Deployment&lt;/span&gt;" style="edgeLabel;html=1;align=center;verticalAlign=middle;resizable=0;points=[];" vertex="1" connectable="0" parent="1">
          <mxGeometry x="2359.996153846154" y="1360.000769230769" as="geometry" />
        </mxCell>
        <mxCell id="jUlRzr_6Oyi4RR8aSzZF-47" style="edgeStyle=orthogonalEdgeStyle;rounded=0;orthogonalLoop=1;jettySize=auto;html=1;entryX=0.512;entryY=1.069;entryDx=0;entryDy=0;entryPerimeter=0;" edge="1" parent="1" source="jUlRzr_6Oyi4RR8aSzZF-5" target="jUlRzr_6Oyi4RR8aSzZF-34">
          <mxGeometry relative="1" as="geometry" />
        </mxCell>
        <mxCell id="jUlRzr_6Oyi4RR8aSzZF-48" value="" style="shape=mxgraph.sap.icon;labelPosition=center;verticalLabelPosition=bottom;align=center;verticalAlign=top;strokeWidth=1;strokeColor=#D5DADD;fillColor=#EDEFF0;gradientColor=#FCFCFC;gradientDirection=west;aspect=fixed;SAPIcon=SAP_Cloud_Identity,_SAP_Malware_Scanning_Service" vertex="1" parent="1">
          <mxGeometry x="1756.3000000000002" y="1580" width="32" height="32" as="geometry" />
        </mxCell>
        <mxCell id="jUlRzr_6Oyi4RR8aSzZF-49" value="" style="group" vertex="1" connectable="0" parent="1">
          <mxGeometry x="1736" y="1703" width="92.5" height="87" as="geometry" />
        </mxCell>
        <mxCell id="jUlRzr_6Oyi4RR8aSzZF-50" value="DeathStalker" style="text;html=1;align=center;verticalAlign=middle;whiteSpace=wrap;rounded=0;" vertex="1" parent="jUlRzr_6Oyi4RR8aSzZF-49">
          <mxGeometry y="53" width="81" height="34" as="geometry" />
        </mxCell>
        <mxCell id="jUlRzr_6Oyi4RR8aSzZF-51" style="edgeStyle=orthogonalEdgeStyle;rounded=0;orthogonalLoop=1;jettySize=auto;html=1;" edge="1" parent="jUlRzr_6Oyi4RR8aSzZF-49" source="jUlRzr_6Oyi4RR8aSzZF-52">
          <mxGeometry relative="1" as="geometry">
            <mxPoint x="168.6578465511925" y="29.999999999999545" as="targetPoint" />
          </mxGeometry>
        </mxCell>
        <mxCell id="jUlRzr_6Oyi4RR8aSzZF-52" value="" style="shape=actor;whiteSpace=wrap;html=1;" vertex="1" parent="jUlRzr_6Oyi4RR8aSzZF-49">
          <mxGeometry x="15.5" width="50" height="60" as="geometry" />
        </mxCell>
        <mxCell id="jUlRzr_6Oyi4RR8aSzZF-53" style="edgeStyle=orthogonalEdgeStyle;rounded=0;orthogonalLoop=1;jettySize=auto;html=1;" edge="1" parent="1" source="jUlRzr_6Oyi4RR8aSzZF-55">
          <mxGeometry relative="1" as="geometry">
            <mxPoint x="2210" y="1736" as="targetPoint" />
          </mxGeometry>
        </mxCell>
        <mxCell id="jUlRzr_6Oyi4RR8aSzZF-54" value="1.Firewall fail to block &lt;br&gt;malicious file download" style="edgeLabel;html=1;align=center;verticalAlign=middle;resizable=0;points=[];" vertex="1" connectable="0" parent="jUlRzr_6Oyi4RR8aSzZF-53">
          <mxGeometry x="-0.0966" y="3" relative="1" as="geometry">
            <mxPoint x="-60" y="-39" as="offset" />
          </mxGeometry>
        </mxCell>
        <mxCell id="jUlRzr_6Oyi4RR8aSzZF-55" value="Archive Folder" style="sketch=0;outlineConnect=0;fontColor=#232F3E;gradientColor=none;strokeColor=#232F3E;fillColor=#ffffff;dashed=0;verticalLabelPosition=bottom;verticalAlign=top;align=center;html=1;fontSize=12;fontStyle=0;aspect=fixed;shape=mxgraph.aws4.resourceIcon;resIcon=mxgraph.aws4.archive;" vertex="1" parent="1">
          <mxGeometry x="2066" y="1716.2" width="40" height="40" as="geometry" />
        </mxCell>
        <mxCell id="jUlRzr_6Oyi4RR8aSzZF-56" value="" style="group" vertex="1" connectable="0" parent="1">
          <mxGeometry x="2192" y="1698" width="116.9" height="93.19999999999999" as="geometry" />
        </mxCell>
        <mxCell id="jUlRzr_6Oyi4RR8aSzZF-57" style="edgeStyle=orthogonalEdgeStyle;rounded=0;orthogonalLoop=1;jettySize=auto;html=1;" edge="1" parent="jUlRzr_6Oyi4RR8aSzZF-56" source="jUlRzr_6Oyi4RR8aSzZF-58">
          <mxGeometry relative="1" as="geometry">
            <mxPoint x="399.45454545454544" y="32" as="targetPoint" />
          </mxGeometry>
        </mxCell>
        <mxCell id="jUlRzr_6Oyi4RR8aSzZF-58" value="" style="image;points=[];aspect=fixed;html=1;align=center;shadow=0;dashed=0;image=img/lib/allied_telesis/computer_and_terminals/Personal_Computer_with_Server.svg;" vertex="1" parent="jUlRzr_6Oyi4RR8aSzZF-56">
          <mxGeometry x="50.5" width="66.4" height="66.4" as="geometry" />
        </mxCell>
        <mxCell id="jUlRzr_6Oyi4RR8aSzZF-59" value="" style="shape=actor;whiteSpace=wrap;html=1;" vertex="1" parent="jUlRzr_6Oyi4RR8aSzZF-56">
          <mxGeometry x="15.5" y="3.1999999999999886" width="50" height="60" as="geometry" />
        </mxCell>
        <mxCell id="jUlRzr_6Oyi4RR8aSzZF-60" value="Victim" style="text;html=1;align=center;verticalAlign=middle;whiteSpace=wrap;rounded=0;" vertex="1" parent="jUlRzr_6Oyi4RR8aSzZF-56">
          <mxGeometry y="59.19999999999999" width="81" height="34" as="geometry" />
        </mxCell>
        <mxCell id="jUlRzr_6Oyi4RR8aSzZF-61" value="" style="group" vertex="1" connectable="0" parent="1">
          <mxGeometry x="2570" y="1694.2" width="100" height="84" as="geometry" />
        </mxCell>
        <mxCell id="jUlRzr_6Oyi4RR8aSzZF-62" value="" style="image;points=[];aspect=fixed;html=1;align=center;shadow=0;dashed=0;image=img/lib/allied_telesis/computer_and_terminals/Server_Desktop.svg;" vertex="1" parent="jUlRzr_6Oyi4RR8aSzZF-61">
          <mxGeometry x="29" width="42.599999999999994" height="54" as="geometry" />
        </mxCell>
        <mxCell id="jUlRzr_6Oyi4RR8aSzZF-63" value="C2 Connection" style="text;html=1;align=center;verticalAlign=middle;resizable=0;points=[];autosize=1;strokeColor=none;fillColor=none;" vertex="1" parent="jUlRzr_6Oyi4RR8aSzZF-61">
          <mxGeometry y="54" width="100" height="30" as="geometry" />
        </mxCell>
        <mxCell id="jUlRzr_6Oyi4RR8aSzZF-64" style="edgeStyle=orthogonalEdgeStyle;rounded=0;orthogonalLoop=1;jettySize=auto;html=1;" edge="1" parent="1">
          <mxGeometry relative="1" as="geometry">
            <mxPoint x="1904" y="1627" as="targetPoint" />
            <mxPoint x="1850" y="1627" as="sourcePoint" />
          </mxGeometry>
        </mxCell>
        <mxCell id="jUlRzr_6Oyi4RR8aSzZF-65" value="" style="group" vertex="1" connectable="0" parent="1">
          <mxGeometry x="2270" y="1550" width="150" height="62" as="geometry" />
        </mxCell>
        <mxCell id="jUlRzr_6Oyi4RR8aSzZF-66" style="edgeStyle=orthogonalEdgeStyle;rounded=0;orthogonalLoop=1;jettySize=auto;html=1;" edge="1" parent="jUlRzr_6Oyi4RR8aSzZF-65" source="jUlRzr_6Oyi4RR8aSzZF-67">
          <mxGeometry relative="1" as="geometry">
            <mxPoint x="75" y="180" as="targetPoint" />
          </mxGeometry>
        </mxCell>
        <mxCell id="jUlRzr_6Oyi4RR8aSzZF-67" value="DarkMeRAT (.cmd,.lnk)" style="text;html=1;align=center;verticalAlign=middle;resizable=0;points=[];autosize=1;strokeColor=none;fillColor=none;" vertex="1" parent="jUlRzr_6Oyi4RR8aSzZF-65">
          <mxGeometry y="32" width="150" height="30" as="geometry" />
        </mxCell>
        <mxCell id="jUlRzr_6Oyi4RR8aSzZF-68" value="" style="shape=mxgraph.sap.icon;labelPosition=center;verticalLabelPosition=bottom;align=center;verticalAlign=top;strokeWidth=1;strokeColor=#D5DADD;fillColor=#EDEFF0;gradientColor=#FCFCFC;gradientDirection=west;aspect=fixed;SAPIcon=SAP_Cloud_Identity,_SAP_Malware_Scanning_Service" vertex="1" parent="jUlRzr_6Oyi4RR8aSzZF-65">
          <mxGeometry x="56.30000000000018" width="32" height="32" as="geometry" />
        </mxCell>
        <mxCell id="jUlRzr_6Oyi4RR8aSzZF-69" style="edgeStyle=orthogonalEdgeStyle;rounded=0;orthogonalLoop=1;jettySize=auto;html=1;entryX=0.513;entryY=0.05;entryDx=0;entryDy=0;entryPerimeter=0;" edge="1" parent="1">
          <mxGeometry relative="1" as="geometry">
            <mxPoint x="1946" y="1652" as="sourcePoint" />
            <mxPoint x="1945.8632" y="1706.32" as="targetPoint" />
          </mxGeometry>
        </mxCell>
        <mxCell id="jUlRzr_6Oyi4RR8aSzZF-70" style="edgeStyle=orthogonalEdgeStyle;rounded=0;orthogonalLoop=1;jettySize=auto;html=1;" edge="1" parent="1" target="jUlRzr_6Oyi4RR8aSzZF-55">
          <mxGeometry relative="1" as="geometry">
            <mxPoint x="1978.1999999999998" y="1736.2" as="sourcePoint" />
          </mxGeometry>
        </mxCell>
        <mxCell id="jUlRzr_6Oyi4RR8aSzZF-71" style="edgeStyle=orthogonalEdgeStyle;rounded=0;orthogonalLoop=1;jettySize=auto;html=1;entryX=-0.001;entryY=0.314;entryDx=0;entryDy=0;entryPerimeter=0;" edge="1" parent="1" source="jUlRzr_6Oyi4RR8aSzZF-59" target="jUlRzr_6Oyi4RR8aSzZF-67">
          <mxGeometry relative="1" as="geometry">
            <Array as="points">
              <mxPoint x="2233" y="1591" />
            </Array>
          </mxGeometry>
        </mxCell>
        <mxCell id="jUlRzr_6Oyi4RR8aSzZF-72" value="DarkMeRAT (.cmd,.lnk)" style="text;html=1;align=center;verticalAlign=middle;resizable=0;points=[];autosize=1;strokeColor=none;fillColor=none;" vertex="1" parent="1">
          <mxGeometry x="1700" y="1612" width="150" height="30" as="geometry" />
        </mxCell>
        <mxCell id="jUlRzr_6Oyi4RR8aSzZF-73" value="" style="group" vertex="1" connectable="0" parent="1">
          <mxGeometry x="1895" y="1599.5" width="100" height="55" as="geometry" />
        </mxCell>
        <mxCell id="jUlRzr_6Oyi4RR8aSzZF-74" value="" style="shape=image;html=1;verticalAlign=top;verticalLabelPosition=bottom;labelBackgroundColor=#ffffff;imageAspect=0;aspect=fixed;image=https://cdn0.iconfinder.com/data/icons/evericons-24px-vol-1/24/folder-zip-128.png" vertex="1" parent="jUlRzr_6Oyi4RR8aSzZF-73">
          <mxGeometry x="35.75" width="28.5" height="28.5" as="geometry" />
        </mxCell>
        <mxCell id="jUlRzr_6Oyi4RR8aSzZF-75" value="Archive Folder" style="text;html=1;align=center;verticalAlign=middle;resizable=0;points=[];autosize=1;strokeColor=none;fillColor=none;" vertex="1" parent="jUlRzr_6Oyi4RR8aSzZF-73">
          <mxGeometry y="25" width="100" height="30" as="geometry" />
        </mxCell>
        <mxCell id="jUlRzr_6Oyi4RR8aSzZF-76" value="1.Attacker uploading &lt;br&gt;Malware" style="edgeLabel;html=1;align=center;verticalAlign=middle;resizable=0;points=[];" vertex="1" connectable="0" parent="1">
          <mxGeometry x="1852.996153846154" y="1716.200769230769" as="geometry" />
        </mxCell>
        <mxCell id="jUlRzr_6Oyi4RR8aSzZF-77" value="" style="shape=image;verticalLabelPosition=bottom;labelBackgroundColor=default;verticalAlign=top;aspect=fixed;imageAspect=0;image=data:image/png,iVBORw0KGgoAAAANSUhEUgAAAoAAAAKACAYAAAAMzckjAAAABGdBTUEAALGPC/xhBQAAACBjSFJNAAB6JgAAgIQAAPoAAACA6AAAdTAAAOpgAAA6mAAAF3CculE8AAAABmJLR0QA/wD/AP+gvaeTAAAAB3RJTUUH6AcGExAvXvuCogAAX9ZJREFUeNrt3XeYXHWh//HP98zM7mxJsrvZTW9bs8kigqHXUJWmSFmSkEIAxWtB/Ymo94LEil7LVdGrUSAQpC1FBS5FkI4UCSWQuiWVTbYk2/vM+f7+CCAlCZvsTjvn/Xqe+zxXkezM55zsfObbjhEAJKGKqrY849rciKMcE4jkOlGT4xrlGCnHGJPjWuU4xoSt1UhZG5ZMhmSzjVHIGuXIKihp5G7+6GxJoQ/8d1ZS627+tz2SeiW1W9mIsU6rjB2QTKeR7bFSj5VaHanFSq3W2lbHUauVbY26tjUUcVvzx4/Z8eQJJsIVBZBMDBEAiJeSB216uL1tUsSxkxzHTjauHSPHjJPVWCsVSBovaYx2/f8hj7xtK9kmyTTJqlGOthnZJmtNg2S2G+tuk7RZim5eVTmmk7sEAAUQQEqZVLUlI1tZJcYxxY7rFsnRFFlNsdaZJGMnvV3wsGetRtoiabOVtlirrY6jOhm3RtFQ7arKUTuJCAAFEEDcVVTZNDfYUmaidoZkSowxxbK2RFKJlSaSUEztlEyNla2VbI3k1Dg2ujaSbtes+0xBB/EAoAACGJJZS22oP79tsmvdClnNlFGFrGZaqUJSmISSTousVsvRKuua1QpEV4VM+sqV54xoJBoAFEAAHzL9b00jgn2Bj7sys4xjZ8pVhYwOkZROOilvm5VWGNkVklbJaPXq80avIhaAAgjAd2UvdKg17uGS+YSMPVhWRfw+8BPbKGteldEr1piXZCIvrjm3YBu5ABRAAB7xsXtaiyKuPcbInWVkjpZ0kJUCJIMPeHek0Dr22Y5oz3NbKyf3EAtAAQSQ5KYt2xDOGJlzmOPqeGt1nIw9XNIIksF+GJDMqzJ61sg+6fQ5z75xYU4LsQAUQAAJNuv++szenvAnZHS0teZkGXuM2KCB2KmT0WPWmucCEfeJN+eO3kIkAAUQQKxV2UC5dh4WkHOKNfZkSUfIOwcmI/WsMrKPusY8Guruf2rlwnFdRAJQAAEMg4/d01rkRt2TrTEnS/ZkSbmkgiQUMdLrrvSYHPexzObRT624zAwQC0ABBDAIJQ/a9HDXzuNdmTMlnSGpiFSQgnbI6BEjPeD0OQ+zfhCgAAL4gLLb2vODoYETjDFnyerTVhpFKvDQB01U0mtW9gHXBu5fW5mzglQACiDgS+V3NJU5gcC5kj4j6VBJDqnAJ2pkzH3G2HtXvZH7vJYYl0gACiDgWTPv3lFhrDnTWp0lo6NJBFCzMXpI0l3hHbkPs24QoAACnlBe1TrLcdzzZO25kiklEWAvZVDmr1b23oyduY9RBgEKIJBSZtzTMtVx7RxJi600nUSAfdZijB5wjbt8zTmj/yFjLJEAFEAg6Uy/vWmCEwieb2TPl9FR/P0Chs1Wyd5rrLlrVWXes8QBUACBhDpw+fasgYz0c43cRZKZLTZyALFl9aYx+nMkEr1l3dyCegIBKIBA3Ly9ru/zspornrULJIIrax63Rrd02M67tlZO7iESgAIIDLsZ9zSNVzRY6Rh7iZU+RiJA0miVUZU1ztI15+a8QhwABRAYmiXWmTGz5TQZfcGRTrNSgFCApP5QWyFjlwa6B27j2cQABRDYJwfe2zEmGh1YLOkyKxWSCJBy2mV0hyP97s3z8lYSB0ABBPbonbV9xmqBlTJIBPDEB90KWf2xTV23sFYQoAACkqRJVVsyRilrgTW6XFIFiQBeZRuttFSO+/s15xZsIw9QAAEfqqhqHGdN4AuS+ZKkfBIBfKNfMn9zrfs/aytHP08coAACPlBe1Tor4LhftVZzJIVIBPD1h+AKV+Y3Y/NzbnvyBBMhEVAAAS9ZYp0ZM1s/Y2SvlNERBALgA5+GGyXzP8HuvhvYPQwKIJDiKqpsmmta5xjZb0maSSIAPkKzZH/nBkLXrT1n5A7iAAUQSKni15jtKnSJcew3ZDWZRADsoy7J3mCs+cWqyrzNxAEKIJDEyu9tHx2IDnzNSl+SlEsiAIZowMjc7hj32jfOy19LHKAAAklW/JzowFeM9DUrjSIRAMPMtbIPOjZw9arK3NeIAxRAIIHKbmvPD4YGvkzxAxDPImhM4Lurz8t9lThAAQTiqKSqoyDN9H9J0tcljSQRAHFmrez/ybHXrDm34BXiAAUQiKHpf2saEewPfNHK/pekESQCINFFUNLdbtS9au2cgvXEAQogMIxm3V+f2dsb/orddZwLmzsAJJuIMeb26ID57tq5uRuJAxRAYCjFb6kN9ea2LLbGXiNpAokASHL9Mrop6AxcvfKccY3EAQogsC+sNRV3tcy1jvt9WVNMIABS7MO1zZX9eWa4/5crzprQTSKgAAIfYebdzYdba35ppKNIA0CKqzfWfG+Vcm9QpYkSByiAwAfMuLux1LiBH0k6j3sTgMesljFXrD4/7yGiAAUQkPSxW1tzI2mRbxmrr0kmnUQAeNhj1jVfXzMn702iAAUQvjT7CRtsaNr5JSNdI3b2AvCPiGT+EBhwvvvGhTktxAEKIHyjvKrl+IDc66z0MdIA4FM7rfT9Ncr7LesDQQGEp02/vWlCMBD4iZWdz/0HAJJkXzXW+cqqC/KeIwtQAOEps5baUHfuzi8a6QfiCR4A8KEWaGT+LEWuXFU5ZjtxgAKIlFdx545PWmN+K9kS0gCAvX4ot1lrv7vajP4d08KgACIlHXBbw1gbDP3Myi4gDQDYJ68Z2ctWVea/RBSgACI1WGtm3L1jgbHml5JGEwgA7BdX0vXRdPeKdZ8p6CAOUACRtMqrdn7MyP6Bp3gAwLCpl9HXVp8/+i6iAAUQSWXasg3hzMxR35WxV0gKkQgADPsH9l/cgPulNecWbCMNUACRcDPu2HGEcXSjpBmkAQAx/dBuk8yVq87P/ZOMsSQCCiDiblLVlowRJuMax5orrBQgEQCIm0eMzOdXVeZtJgpQABE3B9y14yhrdaOVppMGACREu5W+u2Z13nVaYlziAAUQMTPr/vrMnu7wT2TslyQ5JAIACfeYDTiXrjk3dxNRgAKIYVdR1XyYK7NcjPoBQLJptzLfXFuZ90eiAAUQw2L2EzbY0NjyDRn7A7HDFwCS2YMKuJeyUxgUQAxJ2d3N5QHX3CLpENIAgORnpcaA3M+tqiy4jzRAAcQ+/gaxpvyuls8Z2V9KyiIQAEi5j/hbHEW+uKpyTCdZgAKIj3TAbQ1j3WDwZit9kjQAIKVVW7lz11YWrCAKUACxRzPvaj7JWnOLpPGkAQCeEDFWP1q9Ju/7HBcDCiDeZ/YTNtjY2HyVNeZqcbwLAHjRYwrYhWwQAQUQkqQZ97RMVTR6m6SjSAMAvMtKjY5xLlp9ft5DpEEBhJ/L311Nc2TNUkkjSQMAfME1Vj8dM2b0d588wUSIgwIIH5n9hA02NO/4oay+RRoA4MsK8LQbdeeum1tQTxYUQPjAAbfvmBwN2DslHUkaAOBrTbKat+aC/MeIggIID6uoaj4xKt1upDGkAQCQFDXW/nD1mnx2CVMA4TnWmhlVO66U0Y/FLl8AwIc94Ci0aFXlqJ1EQQGEB5Tf2z7aRPrvkHQyaQAA9sxucFz3s6vmjH2dLLyNkSCPm373zgOdyMBLlD8AwEczha4TeGHGXc0LycLjV5oIvGvmXTvOt9YuE8/yBQDsI2v0m7V29P9TpYmSBgUQKfG39t31ftdyjQEAQygJjwQGgnPfuDCnhTQogEhi0//WNMLpM7dI+gxpAACGQY1c57Nr5uS9SRQUQCShiqrGElfOA5KmkwYAYBh1yLpz1lww5kGi8AY2gXjE9Dt3Hu3K+SflDwAQAyNknPtm3NnM06M8ghFAD5h5147F1to/SEojDQBAbJuD+VPmzrwvrbjMDBAGBRCJYK2ZWdV8jTXmGsIAAMTRo+mhQOVrn81tJQoKIOLowOXbswbCwVskfZY0AAAJUG1de+baOQXriYICiDg44LaGsdFg4AFJh5AGACBRrNQYkM5aVZn/EmmkFjaBpJiyexqKosHAM5Q/AECiGWmMKz1RflfTmaRBAUSMVNzRfKgTDTwvqZQ0AABJItNY89eZdzZ9gSgogBhm5XftONV19A8jjSENAECSCVhjfj/jruafyFqWl6UALlIKePuYlz9KCpIGACDJm8XNmTtHf45jYiiAGIIZd+64WsZ+nyQAAClUL/6vQ93nb62c3EMWFEDsC2vNzKqdP7PGfoMwAAApWDGe6ZM5q64yr40sKIAYjCobmKHmpZK5hDAAACnslVAwctrKc8Y1EgUFEHtR8mB1erAz989GOo80AACpXzRMXSQQOWX9uWPrSIMCiN14++kef5F0CmkAADxkm1zn1DVz8t4kCgog3uNjt7bmRoKRhyUdRhoAAA9qMq77ydVzx7xKFBRAvF3+BoKRR4x0KGkAADys1bj61Oq5+S8SBQXQ1w68d/uYgUjgUVlzIGkAAHygzRpz2trK0c8TBQXQlw64rWFsNGAek8wBpAEA8JEuVzpr3QUFTxAFBdBXKqoax7kyj8mqgjQAAD7UbVzz6dVz8/9BFPHHs4AT4IDbd0x2rXmG8gcA8LFM69j7ZlTt4OSLBGAEMN7l77aGsa7jPGmNykkDAAD1OMacuaoy/3GiiB9GAOPowHu3j4kGnMcpfwAAvCvDtfb+8tubZhNF/DACGCclVdsKQjbwOBs+AADYrS7Jnr7mgjFPE0XsMQIYBwf9pSUnZIMPU/4AANijLMncX1HVzAMRKIDeKH99A5FHJX2CNAAA2KuRrrV/n3570yFEEVtMAcfQ9L81jXB69Zh4vBsAAPvA7jDRwPGr541eRRaxwQhgjFRU2TSnz95N+QMAYF+Z0Tbg/n161fZCsqAApo4qG4jaHbfKmlMJAwCA/TLBsYFHZ9zTNJ4oKIDJz1ozw21eamTPIwwAAIakWBHzSEVVWx5RUACT2syq5p/J6BKSAABgONiPuep/sKKqMZssKIBJacadTVdb6RskAQDAcHZAHW6tc3dFlU0jDApgcpW/O5oulfR9kgAAIBYd0H7Stc03a4mlu1AAk6T8VTWdIaPfkwQAADE1Z8aM5muJYeg4B3CIKu5oPtQ19glJWaQBAEA82ov92prKMb8mCApgQhxwR0Nx1DjPSRpLGgAAxI1r5VauvWDsPURBAYyrkqptBSE3+JyMSkkDAIC463WMPWVV5ZhniWLfsQZwPxy4fHtWSMEHKX8AACRM2LXmb2V3N5cTBQUw9pZYZyDduUVWPKgaAIDEygtE7YMlVdsKiIICGFO7dh+Zz5IEAABJoTBkg/eWPFidThQUwJgor2q8SNKVJAEAQFI5JtQxaikxUACH3czbG4811vyBJAAASEZmUfmdzd8hh0GmRQQfbXrV9kLHBl6UxBoDAACSl5XVvDVzCu4gCgrgkBz0l5acvv7IC5KmkwYAAEmv2xodt7ayYAVR7BlTwHuzxDp9/ZE/U/4AAEgZmcbqLwfeu30MUVAA98vMGU0/lHQGSQAAkFImRwYC91ZU2TSioADuk/I7ms+xMt8mCQAAUo+VjrZu0y9IYvdYA7gb029rONAJmH9KyiINAABSuQmaz62ZU3A9QVAA96qiqi3PtX0vSSomDQAAUt6AY3Qizwx+P6aA36vKBlzbfyflDwAAzwi5VncccFvDWKKgAO7WDLfpe5I9mSQAAPCUidGguWP2EzZIFBTA95e/OxtPlxEniAMA4EVWsxsbm75PELuwBlDSAbfvmBx1oq9IyicNAAA8XANlz1lzwdi/+j0I348AzlpqQ9FA9A7KHwAAnmckc2PZPQ1FFECf685p+pWsjuLvBAAAvpDrRMy9k6q2ZFAAfWrGHU1zJH2RvwsAAPiHkT4+wg3/wucZ+FPZPQ1FgYh5VdJI/ioAAOBD1sxdM6fgDj++dV+OAM5+wgYDEfNnyh8AAD5m7O/Lb982jQLoEw0NzT+WdCR3PgAAvpZjHOfOWUttiALoceV3NJwqY7/BPQ8AACRzWHdO49W+e9d+erPF924fExpwXpM0nhseAAC8zXVc99TVc8f9wy9v2D8jgNaa0ICznPIHAAA+2Idcx7m57LZ635wJ7JsCOP2upsslfZJ7HAAA7MZEEwj9yS9v1hdTwGW3NZc7jvuKpAzubwAAsOdiZBetmTN2udffp+dHAGc/YYMBE72Z8gcAAD6KlfnNjFvrp1IAU9y2xsbvWmMO45YGAACDMEpO8M+qsgEKYIoqr2qaZaz5NvcyAAAYLGt0TLlt/pqX36Nn1wDOur8+s6sr+KqkMm5lAACwj/qsaw9bN2/sSi++Oc+OAHZ1BX9C+QMAAPsp3TjmJq8+JcSTBbD89oajJH2JexcAAAzBwZ2jmq704hvz3BTwpKotGdlu+uuSSrlvAQDA0Nh+IztrzZxxb3rpXXluBDDbTfsh5Q8AAAwPkyZrbvDarmBPFcCZt28/XDJf5WYFAADDxRpz2HS38f95qtZ65Y2UPFidHmzPWSHZCm5VAAAwzPqicg6unpO/xgtvxjMjgMG2UddQ/gAAQIykO3KXaon1RHfyxJuYccf2A2R0BfcmAACIFSMdW17efCkFMBkssY6V8wdJIW5NAAAQW/a/Z9zSND7V30Uw1d/A9BmNn5fV0dyQAAAgDkbZkP2ZpPmp/CZSehPIAbc1jI04WiMpl/sRAADErUAZc8aaC8Y8mKqvP6WngCOO+RXlDwAAxJu19ncHLt+eRQGMs/I7Gk6V7BxuQQAAkADTBtKc76Tqi0/JKeBdZ/6NfFNSCfcfAABIkH7XDXx8/bz8tan2wlNyBDDQPuIKyh8AAEiwNMeJXpeKLzzlRgBL/rxjUjAYWSspi/sOAAAkvEwZfXbNBWP/mkqvOeVGAEOBgV9Q/gAAQLKwVr+edX99JgUwRmbe3nisNeZ8bjUAAJBEpnR1B76ZSi84ZaaAZz9hg9sbGldIOpD7DAAAJJke69iKdZXjNqTCi02ZEcBtDQ1fovwBAIAklWGs+UWqvNiUGAH82K2tuQNOX7WMRnN/AQCApC1WRqesuWDsY8n+OlNiBDAS6L+G8gcAAJKda/UzLbFJ36+S/gWW3dpQZGW/wC0FAACSnZEOmlHeOJ8CONQXGNTPJaVzSwEAgFRgpR8n+3OCk7oAlt/ecJSszuZWAgAAKWRiX7q+TgHcr/psjYz5lVL0ecUAAMC/jDXfmnFL03gK4D4qv6NhrmQP5RYCAAApKNuG3CVJW1CT8UXNWmpD3aMa11ipmPsHAACkqKjrBg5YPy9/bbK9sKQcAewe2fR5yh8AAEhxAeMk5yhg0o0ATqrakpHtplVLmsh9AwAAUpw1cg5ZM6fglWR6UUk3Apht079G+QMAAB5hJPeHSfiiksdBf2nJ6e3rr5WUx/0CAAA8w7onrJ07/slkeTlJNQLY29f3LcofAADwHOMk1Shg0owAHnBbw9iIo1pJWdwlAADAa1yZ09fPGfNQMryWpBkBjDj6JuUPAAB4lSP7A1mbFINvSfEiym6rz3ecwAZJ2dweAADAq6xrTls3b8zDiS+jSSDgBK6k/AEAAK8zjr0mKV5Hol9A+b1bR6s/tEHSCG4LAADg/RaoT629YOwjiXwJCR8BtAOhb1L+AACAb1gtSXwHTaBdo39BRv8AAICvGNecumbe2EcT9fMTOgJo+oJfo/wBAAAfNsDvJvTHJ+oHT/9b0wjT426SbC53AQAA8BtrzDHrLhj7XCJ+dsJGAE23exnlDwAA+JWx9lsJ+9mJ+KGzltpQ58iGWiNN5vIDAACfssbowDVzxr0Z7x+ckBHA7pENCyl/AADA54xr7ZWJ+MHxL4BLrGOt/h/XHAAA+L4BysyZcWv9VM8XwPLyxrNlNJNLDgAAoJB1nLgPjMV/BNDab3KtAQAA3nVJRdWWPM8WwPLbGo6UdATXGQAA4F1ZUTf0ec8WQGvsV7nGAAAAHyxJ+vKspTbkuQJYVtU80UjncIUBAAA+ZGL3qIZz4/XDgnFrmpHIl2UU4voCABJlRJrRlOygxmc6Gp8ZUGbQKDtkNOBKXRGr5p6oNnREVdsWUVfEEhjiylp9Q9Id8fhZcTkIelLVlozsaGiLpNFcXgBAPGSHjA4aHdLBBWmqyA2qLCeo8ZmBQf/7WzqjeqmxX0/U9+np+n4NuBRCxKMFmqPWzhv7fKx/TFxGALMjaQtlLOUPABAzASMdlB/ScePTdez4dJXlBBUYwjDH5OyAJmdn6NyiDO3sc3V7dY9uXt+ljn6KIGLZ/+xXJcW8AMZlBLD89u1vSqrgsgIAhlNeuqNjxqfp+AnpOnpcmkalxXZpe1u/q++/3KEHN/cSPmIlEolGCmvmT9oayx8S8xHA8tu2HU/5AwAMl9JRQZ0yKV3HT0jXAXkhOXF8qv2oNEe/OGqUDh2Tph+saBezwohFNwsGApdKWhLLHxLzvzbTb99+h5Eu4HoCAPbXlOyATp8S1ulTwyodFUyK13R7TY++/3I7FwexsC2rfezUFZeZgZi1zFi++pKqbQUmqrO5jgCAfTUuM6BPTU7X6VPD+lhe8h0iMbckQ6819+u+jUwHY9iN7xrVeJake1OyAAYj5lIZpXMdAQCDkZfu6JNvl75P5KfFdXp3f3zn4BF6or6PjSEYftZeFssCGLu/WkusUz69oUZSIVcRALAnGUGjUyel68ypGTpyXNqQdu4mwq9XduoPq7u4kBj2CigTKF87p2B9LP7wmI0Azpi+/TQrQ/kDAOxWRV5IlcUZOmNqWFlBk7Lv47NFGRRAxIIxrnuppCtj8ofH6lWX3779fklncv0AAO8YlxnQ2dPCOrswQ1NHBDzzvs59ZKdWtwxwgTHcmnt7eyZvXFw47AtNYzICOP32pglS9DSuGwAgzTE6cWK6PlMY1rHj01NuincwjhqXRgFELOSnp4c/LakqJQqgsdFFMgpw3QDAvyryQvrMtLDOmhpWTrrj6fd6cD6PukdsGKPFKVMAZbSQSwYA/lOQ4ei0yWGdU5Sh6TlB37zvGblBLj5iVQFPPeD2tya/OXfilqQugNPvbDhari3nggGAPwSMdPyEdFUWZ+gYj07xfpRxmQFlBI16IhwHg2HnRBRYIOnHSV0A5drFXCsA8L6JWQGdW5Shc4syNCbD8XUWRrueVrKuNcKNgVi4RNZeK2OG7RvGsBbAA5dvz+q3qpThSgGAFwWMdNiYNFWWZOiUSWFfjvbtSX7Y0TpiQGwUzbxj2zGrpWeSsgD2B+15MmYE1wkAvGVcZkBnTg3rwtIMjctkj9/ujA47hICYca2zWMlaAK3RAiPWPwCAF4Qco5MnpauyOFOHj01jcmdQBZDPQMTMebPur//yirMmdCdVAZxxS9N4V5HZ3PoAkNqmjgjovKJMnVOYwajWPggHGAJBDBmN6Oh0zpJ0Z1IVwGhoYK6xhnkBAEhB7xzWXFmSqSMZ7du/D1S6MmLeAd25SVcAjTVzuTQAkFpKRgZ1fnGGzi7M0Kg0GsxQpLMjBrGvgKeV37x19NpFk3YkRQGsqGosiUSjh3BhACD5hRyjUyela05Jpg4dk0YgwyTK/C9iL81Nc86R9KekKIDRaHQ+1wQAktvYjIDOL87Q3JJM1vbFQHu/SwiIOSMzL2kKoJWY/gWAJOQY6YgxaaosyeTcvpgXQIYAERfHlfx566Sa+ZO2JrQAlt9aP8tKZVwPAEgeBRmOzi/K1PnFGRrPuX1xKoCMACI+3+uCTuACSb9IaAG0jjmfawEAyWFWQZoWlGXq5IlhdqXGWWMPBRDx4Rqdl/ACKKuzOS8AABJnRMjotCkZWliWqZJRQQJJkIaeKCEgLox0ePHtb02unTtxS0IK4PTbGg6UcadzKQAg/iryQrqgOEOfnpahMIv7EspKamIEEHHsgCEbOFvSdQkpgEbuuSx5BYD4yQoanTE1Q3NLMjQjN0QgSaKlz1W/yyci4vilw9hzE1YAXaNz+c4JALFXNDKozxZm6ILiDI3kwOak09DN9C/i7tgZtzSNX7OgYFtcC2D5HVvLrFUF+QNAbKQHjD41Oay5JZk6KJ/RvqQugEz/Iv4cGxj4tKSlcS2AcoPnyjDcDQDD7Z0Dm+eVZiovndG+VNDIBhAkgGt0btwLoDX2bKIHgGH6Ks+BzSmtoZsRQMSfkZk9bdmGnI2LC1vjUgCLl28fI1me/QsAQzQiZPTZwgwtKMvS5GwObE7ZAsgIIBIjlJ4RPkXSXXEpgMGQzpTEvAQA7KcDR4c0ryRTp00JK53hvpTHIdBIFOPqzLgVQCOdyeo/ANg3aY7RiRPTtXB6pj6Rn0YgHlLPLmAkiDU6Q1U2oEqzTzfhPhfAkger022rPZmnfwDA4EzJDuj84kydV5ShXDZ1eNK2LgogEmZ0ebTx8LXSP2NaAIMtWbOtoxHkDQB7xqYO/2jrd9UVYV4MieMqeoZiXQBdx5zJ7zEA2L2RaY7OnhbWwulZmpTFpg4/eIvRPySYkTlT0n/FtAAaq9OJGgDe793n8hbyXF6/2dbl7noYMJA4B1ZU1U9ZVTlhc0wKYMUtjSURRYvIGQB2PanjtClhLZqeyXN5fYwNIEgGkQHnFEk3xKQADgSip/K9FoDfTR0R0HlFmaosydAonstLAWQKGEnBxq4AGplTGOcG4EeOkY4Ym6aFZVk6fmI6ByGAAojkYnSyllhHS8ygDqUcfAGssgFFth9PwgD8ZHTY0XnFGZpbkqlxmWzqAAUQyfvrakb5toPWSK8MawEsjzQeZqVc8gXgB2zqwKALIGsAkSSirnOqhrsAunJP4VcgAC8LOUYnTUpXZXGmjhrHkzrw0XqjVjt7eQwckoPZtQ7wJ8NaAN/+QwHAc8ZkBDS3NFOVxZkaHWZTBwZvW1dUlrXxSB7HHLh8e9bKheO6hqUAHrh8e1af3MPJFYCXVOSFtHB6ls6YkqEgvQ/7YQvr/5Bc0vrT3KMl/X1YCuBAMHqUZDjkCkDq/3Z0jE6fGtai6Vmc3YehF8COCCEgqdiojh22AuhacxxnHgBIZWMyAqosydSFpZnKTWe4D8NUADsZAURyMUbHDeZ/FxzsH8YKBwCpaFZBmhaUZemUyWGxmRfDbTMFEEnGSodPqtqSsbVycs+QCmDJg9XptlWHESmAVJEVMjpjaoYWlGWpdFSQQBAzWzqZAkbSSc+OBA+T9NSQCmCwNfsIKxsmTwDJbsqIoM4vytAFJZkaySPaEGNW0lY2gSAZ702r44ZcAK0V6/8AJK1dj2hL5xFtiLvmHlc9ERZIIfkYYz9yHWBwMH8ItzeAZJMdMjp9aoYWTc9S8UimeRF/m5n+RZKy0pGzltrQisvMwP4VwCXWsdrG+j8ASaMsJ6j5pVk8og0Jxw5gJLGsjlHbD5L0r/0qgNPLth4gBUaSI4BEYpoXyVkAGQFEEv/ejLqH73cBtCZwuGH+F0CCZIeMzinK1MKyLE3KDhAIkqwAMgKI5GWNOVzSb/erABqJx78BiLupI4KaX5ap84oylRFkvA/JiTMAkeQF8Ii9/fO9jwBaHcGvXgDxwDQvUg1TwEhmxtqS4uXbx9QuHNe4TwVw+g1NI6SBciIEEEvvHNrMbl6kku6I1Y5elyCQ1EKODpP0wD4VQJvZd5ixDotuAMQEhzYjlTH6h1RgjXv4PhdAxzqHsf8DwHAyko4cl67K4kyezYuUxvo/pMTvXKM9rgPc8wigNIvoAAyHd6Z5F5ZlqYRn88ID2AGMVGClWbLWyHz4TJe9/SY+mOgADMWU7IDOL85kmhceLIBMASMl5FbctW3yKmnzoApgUdXOUYr0FpIbgP0xqyBNC8qymOaFZ23uYAQQqSEyYA/WYAtgWrTvYCtOYQAweOkBo9OmhHXJjGyVMs0Lj9vSRQFEajC7ZnT/NqgC6MoeTPsDMBiTsgO6oDhTlSWZGsU0L3wgaqVtFECkCGuc3S7p220BNK4OZvwPwN4wzQu/2tYV1YDLORlImQo4+AIowwYQAB+W5hidPjWsi8uzVZbDNC/8aTMbQJBaJpfdVp+/ft6E5r0WwJIHq9PVKp4AAuBdYzICqizJ1PzSTOWkM80Lf9vKETBINcb9uKR/7LUAOu0Z5fqIZwQD8IdDx6RpYVmWTpzENG8qau51tbUzoo4Bq3GZAU0bEVDI4UIOFRtAkHL9T07FRxdA18xkZQPgX+kBo7OmZWh+WabKc0IEkmIae6K6aW2XHt7Sq/oPFJW8dEdXHjxSZxdmENQQbO5gChgpxmrmB/+rDxVAa81MNoAA/jM2I6ALyzJ1fnGmcpnmTTm9Uavr13TphjWd6ons/mv8zj5X33mhVWkB6fQplMD9xVNAkIIGUQAdzTQMAQK+cVB+mhaUZeqTkzMUpPelpCfr+/SDl9v01iCmJq2kX77eQQEcgk1sAkHqOeAjC6DZzTAhAG8JOUafnBzWwulZOnA007ypant3VD96pV2Pbundp39va2dUq1sGNDOXa7+vmnpcdQ0wSoKUk3vAbQ1j35w3tmG3BbCialVaJGJLyAnwprx0R+cWZ2peaZbGZwYIJEW5Vrq7tlv//VqbOvezjNS2RSiA+2FDx4B2jaMCqWVAAxWSdl8AXXd0mRRlBzDgMTNyQ1pQlqUzpmYone28KW3ljn4t+VebVrcMDOnP2dM6QezdRp4BjBRlrJkp6fHdF8BoZIYMHw6AFwSMdOKksBaWZevQMWkEkuJ6Ila/fL1dt1Z3aTgeQjGdg7z3rwC2s/4Pqck65n1L/N73G8DIKbUMbQMpbWSao/OKMnVhWZYmZjHN6wXPN/Tp6pdah+0A4hMnhvXxfL4U7FcB5AgYpCrXFu+xAFrz/n8IIHUUjQxqQVmWzi7MVEaQkXwv6Bhw9d+vtuvu2u5h+2o+LjOgHxyWQ7gUQPiNef8ejw+MAKqE8T8ghf4+SzpyXLoWlmXp+IlhjvD0kKfqe7XkX23a1j18a87CAaPrjsnT6DDn/eyPqOUMQKT0J8bUiqpVaasqK/o/VACtxA5gIAVkBo3OnJahhWXZKhnFWi4vae939fPX21VV0z3sXxauPSJHH+PYn/32VmdEAy7DJEhZAXdg5FRJ1e8rgLPur8/s7LDjyQdIXpOyA7qwNEvnFmVqZBqjOF7z0OYe/XBFm3b0usP+Z3/94yN1Goc/D8kGpn+R4qKBYMmHCmBXW7RYDk8JB5LRrII0LSjL0imTM8QpLt6zo9fV915u1d/38UDnwbqwNEufn5lN0EPEETBIdY7rvjvT+24BdAOBEmMZ2gaSRZpjdPrUDF1UnqXyHKbtvOrhzT1a8nKbWvvcmPz5n56Wof+aNYqgh6UAMgKI1Gb1782+/148ZN1CsYQcSLj8sKM5pVmaV5qlvHSmeb2qsSeqJf9q0+Nv9cbsZ5w4Maxrj8gVczvDVAA5AxCpXgCN+XABNNZMpf8BiVORF9IFxVn6TCFP6/D2N3Dprppu/fS1tpg+U/bwsen6n6NzWTIwnAWQEUCkOGM15cMF0GgyM8BAfAUdo09ODmtheZY+PpqDeb1uU0dEV73Yqn819sf053w8P03/e2weXySGUW/EansXawCR8iZ/qABa++//EkBsjUxzdHZhhhbPyNb4TJ7W4XWule6u7da1r7TF/Bm8M3JD+uPsPGWFKH/DaWNHhOdkwQtyp9/QNGLdJQUd7z1AbAq5ALFVODKoeaVZOr84U2Ge1uELNW0R/ecLrVq5oz/mP6s8N6RlJ47WKI4IikkBBDzxhTRrYJKkNUFJKnmwOl0tKiAWYPg5RjpibLoWTudpHX4StdKNazp13coO9cfh8OCikUHdcMJo5bBxiAII7EUgqinvFkC1p08SW4CBYZUd2nWMy+LybBWO5GkdfrK2ZUD/+WKrVu8ciMvPKxwZ1PKT83nEW0wLIOv/4A2u2bXkLyhJwQEz2fJ7AxgW00YEtWB6lj5blKlMpnl9pS9q9ds3OnTjmk5Fbfzut+UnjVY+5S+2BZAjYOARjmv/XQCtE5golrcCQzKrIE0LpvO0Dr96tblfV73Qqto4FoXCkUHddOJoFWSwkSjmBZApYHiEdTTp3QJoZMdT/4B9lx4wOm1Khi6Zka3SHKZ5/ag3avW7OI/6SbvW/N100miNofzFXFu/G7MntQDxZlwz9t0CaK3GsAIQGLwxGQFVlmRqflkWi+597LXmfn3nhVZtiPP0YPHb5Y+Rv/jYwPQvPMQa+54CaMxYpoCBj1aRF9Ki6dk6cxrTvH7Wm4C1fu+Y8fZRL7l88YibunbOAISnvKcAyo7lswzYvZBjdNKksBaXZ+mgfJ7W4XevNvfrP19oVV0CRoVmvl3+GHWOr02s/4O3jJG15u01gLvaIIB/yw87+mxRphaUZWksT+vwvb6o1XUJGvWTdo0+c8hzYmzgCBh4S/q0mzaOenvVOlPAwHs/aC8oydLZhRk8SxWS/r3Wry5Ba8EOzk/T9SeMVjaPd0sIjoCB14QzQmOCstbotm35xAE/c4w0e0JYC6Zn6ahx6QQCSYkf9ZN2HS/0p9mjebZvglhJmzspgPAWd8AZG6y4a2vugJwQccCPRoQcfbZo19M6JmQxzYt/S/SonyQdMiZNfzye8pdI27qi6okwQwaPfbEJaEywt095AZaUwGemjQjqwrIsnV+cqQye1oH3SIZRP0k6bEyals4ezdNkEowDoOFFRsoNBoOBHOvy7Qbe5xhp9sSwFpZl6UimebEbr+/o13eej+/TPHbn2PHp+u1xeQqzBjXh2AEML7KyuUHX2lx+xcDLskJGZ07N0EXl2SoaydM68GHJMuonScdNSNdvj81jA1KSqGMDCDzIcc2ooGNtDuN/8KIp2UFVlmTqgpIsjeToDOzB2pYBfeuFFq1tGUj4a5k9IazrjstTmkP5Sxa1bQPilAx4jTVuTtBamyPDLxt4g5F01Lh0LSzP1nHjw+JzFHvS71pdt7JDN6zpSPionyR9akqGfnFUroLctEmFEUB487PSyQ1ax8kxlm83SG1pjtHpUzN06YxsleawqR17t7ZlQN9+oUVrkmDUT5LOmpapnx6Zy+MFk0x3xGp7N4dAw3usbE7Qce0oyy8dpKiCjIDmlGRpflkWj8fCR4q4VsvWdupXKzsUSZLNb3NKs3TNITmMViehuvYBJn/h1QaYE7TGjto1cQakjoq8kBZNz9aZ0zIZNcGgrGsd0Lefb9HqJBn1k6RLZ2TrioNH8Rs4aQsg07/wKGNzgpLJJgmkgpBjdNKksC4qz9bB+WkEgkF5Z9Tv1ys7NJBER159buYIXXHQSC5QMhfANgogPNsAs4KyyuTrJ5LZ6LCjc4qytKAsS2MzeVoHBi8ZR/2MpCsPHqWLZ/DdO+kLICOA8K7MoDHKYI0DktHM3JDmlGbpM4WZHIiLfZKso35G0n/OGqWF0yl/FEAgoTKCVsokByQLx+w6C23B9GwdxdM6sB/WtQ7oOy+0aNXOgaR6XQEj/fDwXJ1TxK/cVBC1PAUEnpYZNFImI4BItBEhR58tytTi8mxNyGKaF/v3gX3jmo6kG/WTdq1f/cVRufrklAwuVIrY0hlRP49JhXc5QWuUyT53JMq0EUFdWJal84uzlMFD77Gf1rfuOtcv2Ub9pF1nVP7qmDydNCnMhUohbACB1wVlxVdSxPdrh5GOGJuuhdOzNXtimD1I2G/JPOonSRlBo/89bjTLGVJQbfsAIcDjBVAUQMRHVsjozKmZWlSereKRQQLBkCTzqJ8kjUxz9MfZozmyKEVtYAMIfFAA+WqKmJqcHdQFJZm6oCRLI9N4WgeGJtlH/SRpVJqj608YrQNHU/5SVS0FED4ogKy4R0zMKkjTwunZOmVyBk/rwLCobh3Qt5J41E+S8sMBLTtxtMp4JnVK4wgYUACBfZDmGJ0+NUOXzMjmAxDD5p1Rv9+s7EjqnZkTsgK66cR8TR3BEodU1twbVXu/SxCgAAIfZXxmQPPKslRZnKWcdKZ5MXySfa3fOwpHBrXsxHyN52k1KY8dwPBFATRSgFNgsL8Ozk/TovJsnco0L4ZZ1Ep/Wt2h376RvGv93jEzN6TrT8jX6DBffryA9X/wRQG0jABiH4Uco5MmhXVReTY7HBGzD+BvPd+iN3b0J/1r/fjoNP3phNEaxQYnz2D9H3xRAEUBxCDlhx3NKc3S3NIs5Ye5bTD8ola6aW2nfr2yXX3R5J+bOG5CWL85Jo9DzD1XADkDEBRAQPlhRxeVZ2vB9GyFmedFjGzpjOg/X2jVS419KfF6T54U1v8ck6c0h78TXlPLGkD4pAACuzUhK6DF5dm6oCRL6RQ/xIiVVFXTpZ+80qbuSGqsSD67MFM/PiKXda8e1BOx2t4dJQj4ogC6YhQQ75GX7ujyA0fq/OJMBRndQAxt7YzqOy+26KWGvpR5zZfOyNYVB4/iEYYeVdceERsj4ZcCGKUAQpKCjtG80ixdfuAIjQixoB2x886o309fbVPXQOp83H5u5ghdcdBILqCnCyDr/+CvAgifO3Z8WN89dJSmZLMqALFV3xXVVS+26LntqTPq5xjp6kNyNK80iwvo+QLI+j9QAOED2SGjKw8epcqSLKa0EHMPb+7R1S+1ptRTFgJG+uHhuTqnKJML6AOcAQgKIDzv0DHp+umRuZqYxQoAxFZjT1RXvdiqp+p7U+p1pweMfnVMnk6cGOYi+gQjgKAAwtMqS7J0zSGj2OSBmHt4c4+u+VerWvtS69mqGUGj3x03WkePS+ci+kTUSpsogKAAwosCRvr2J0Zp4fRswkBMNfe6uualFj22tTflXntOuqPrZ4/Wx0bzpBs/2doZUb/LHmD4pwCy5clH/nNWjuaXsZAdsfXw5h4t+VerWlJs1E+S8sMBLTtxtMpyQlxIn+EAaPirALq2h9X//vDlj42k/CGm2vtd/fDlVv1tQ3dKvv6JWUEtOylfU0ewG96P6toHJMsIIPxSAI26icH7jh4f1pcP5PwyxM5jW3p0zUutau5NzVUlpTkhLTsxXwUZbIrybwFkBBB+KoCiAHpdyDG66pAcBnoREx0Drn72SpvurOlK2fdwwOg0XX9CvnLTOQDdz2raWBEFCiA85NziTBWNZEoLw++p+l5d9UKLGntSdy/ZkePS9b/H5yszyFckP7NiDSD8dcsHZcUaQI87cxoH2GJ4dQy4unZFm+6p7Urp93Hy5Az9z9F5SgvwS9DvtndH1TngEgT8ojdojbr51edtB+RxlAWGz3PbenXViy2q70rtE6TOLsrUj4/IE90PklTL9C/8pTtojO2W5TegVwXMrgNtgaHqiVj97o123bCmQ6l+VNq8smxdfUiOOAcd76hupQDCbwXQqptN795ljJGVmOXHkLzU2KfvPN+irZ2pv0bqix8bqa+yIx4fwDOA4bsCaGVaycG7Iq7Vls6IpmSzCQT7rjdq9duV3hj1M5K++YlRumTGCC4sPqSGEUD4S2tQUhs5eNurTf0UQOzXffOt53dqU0fqj4wEjPSDw3N1bjEHoWP3GAGEn1ip1WEE0PuqaroIAYPWF7X6+attuvDRRk+Uv5Bj9MtjRlP+sEcN3VG197MDGP5hZFqDxritbALxtpcb+/R0fa+OmxAmDOzVyh39+vbzOz1zHlpG0Oi3x43WMeO597FnHAAN/xVAt9UxLiOAfnDViy3a2cc3XOzegGv1P6+3ac4jjZ4pfyPTHC07sYDyh4/EAdDwGyvT4rhWLUThfQ3dUV38jyamOfAhq1sGdM5DjfrDmx2KeuRIgPxwQLecXKCDCzgDEx+NEUD4UJvjGKeVHPxhTcuA5j3a5Il1XRi6iGv12zfadf7DjVrvoR2QE7ICuu3UApXnhrjIGGQB5Hci/MVa0+L0B/oogD5S3Tqg8x5u1IObeAS03++Dykcadd3KdkVc75wEWjQyqNtPHaOpI9j1jn0pgIwAwl+M47Y5G4KFzZKYF/SR9n5XX392py57slmbO/nm6ydRKy1d1aFzHmrUqp3e+tCryEvTraeO0bjMABcag9bcE1UbS2PgtwIYdRodVZqopJ3E4T9PvtWr0+5v0DUvtWh7d5RAPK6uPaK5f2/UL19rU7/rref/HDYmXctPzldeusOFxj5h+he+HAwIRhvemSdpkJRPJP4Tca3uqO7SXTVdOn5CWAvKR+jIcek8Os5DrHadBXntilb1RLz34MfZE8P69bGjFQ5w12LfVTP9Cx9yFHq7ABo1yKqCSHz8bcBKj7/Vq8ff6lXRyKDmlmXr/OIsZQT5UE1lWzsj+s7zLXqpsc+T7+/MaZn66ZG5Cjrcp9g/HAEDP37kr18/fmfw7SGCBvLAO+raI/rRy626bmW7TpmcoTOmZuiIcWExwJI6rKQ/r+vUL15r8+SonyTNLc3Wdw/NEd0PQyuAjADCd5q0xLjBXR8WtsEw6YcPaO93dU9tl+6p7dKoNEcnTArrM4VZTBEnufquqL7zwk69sL3Ps+/xczNH6IqDR3GxMWRMAcOHGiQpKElGTuOuMQNg99r6Xf21rlt/revWhKyATpmcoZMnZ2hWQTojg0nCSrqzukv//Wqruga8+ffZSPrmJ0bpkhkjuOAYsh29rlp4QhJ8xry/ALoNljEdDFJ9V1Q3r+3UzWs73x0ZPGFiho6bEFYmawYToqknqqtfbNETb/V69j0GjLTksFxVlmRxwTEsmP6FH7lWTf8ugEZvWQYAsR/eOzIYDhgdNS5dn5qaqRMmhjUyjSM54uHhzT367ostnj7LLOQY/eyoPJ02NYMLjmHDAdDwI2O05d0CGLF2i8MIIIaoN2rf3UkcdIwOH5uuUyaHddKkDI3J4HDe4dbQHdV3X2rRkx4e9ZOkjKDRb48brWPGh7noGOYCyA5g+JH9dwFMT8vYPNDfRyYYNhHX6rltvXpuW6++91KrDsxP0ymTM3TSpAwVjeQxXUP6qyvprpou/fcrbeoY8Pb6pZFpjpbOztcnCtK48IhBAWQEEP7jOoEtkv497Ff25y0tknKIBrE2KTuoE99eN3jYmDTOcNsHWzsjuvrFFv1zu/e/sOWHA7r+xHzNyA1x4RETR9+zTc29PAUJPhtEMObg6gsnvfbeoZgtFEDEq8QsX9up5Ws7lZfu6IRJGTphYljHjA9z8PQeRFyr5es69ZuV7Z491++9xmcGdPPJBZo6gtFixEZrn0v5gy+lhexm6e0p4LdtluzHiAbxtLMvqntqO3VPbafSA0azCtJ1wqSwPjUlk3WDb/vn9l79eEWrqlv9MV01IWtX+ZuSTflD7Ow6/4/dj/AXI3Wvqpyy830F0Mhu4a8CEqkvavXP7b365/ZeXbuiVQeOTtNJkzJ07IQMleeGfLdNaUN7RNeuaNFT9b2+ec+Ts4NafnKBJmRR/hBbHAEDP7Iym9/5/9/9LWuttrARGMnCtdJrzf16rblfv3itTfnhgI4cl66jx4d19Piwp0cHt3dH9cdV7bqzpksR1z9fy6aOCOrmk8dofCYjv4hHAWQHMHxZAbd+uAAas9EwHI4k1dwb1f0bu3X/xm5Ju0aKjhoX1lHj03XM+LCyQ6l/5uC27qhuXNOhO6s71Rf119/FaSODWn7SGI2l/CFOeAQc/Nn/TN2HCqAxqqH/IVVs6YzozppO3VnTqTTH6BNj0nXM+HQdNS6sGblpSqWNxdVtA7plbafurevSgOu/v4TFo0K6+aQCFbDmE3HEFDD8yBjVfqgApsut7mMOGCmo37V6YXuvXtjeK6lNeemOjhwX1qwx6TpkTLpKR4WSrhBGXKtHt/TotupOvdTg3zM4S3NCuumkAuWHKX+In/Z+V4097ACG/7hGNe+Wwff+g7I/b94hKY+I4CUjQo4OLkjTJwp2FcID8tISctyM1a51jY9u7tZ9G7vV5PMPoPLckJadNEZ56TwyEPG1oqlP8/7eSBDwHeOYj6+bN3ml9P5jYCSplgIIr+kYcPV0fa+efns3bcBIRaNCOiAvTRV5aTogL6Ty3NiUwu6I1atNfXr8rR49uqVHDd2MOkjSAaPTdOOJBRrF86KRAOtbmf6FPwWD6R9eA/i2GkmHEhG8LGql6tYBVbcO6C91Xe+WwikjgioaGVLhyKCmjQhp6sigCkcElZ8RGNTiiNY+V1s6I9rUEdHrzf1a0dSntS39irK29n0Oyk/Tn04o0EjKHxKkmgIIf9q2qnJM524LoDWqMXxYwaelcEN7RBvaP3w0hGOknDRHOekB5aY7GpXuqPftp3F0Drjqi1rVd0U9/1ze4XDImHT9cXaBskKsN0YCCyAbQOBPNe/9D+8rgMa1Ndbwixn4YDnc0edqRx8FbygOpfwhWQpg6wCHXsCPat/7H943B2Ots458AAy3Y8eHdcOJlD8kXlNPVDv5Mgcfssau3WMBTAunrxIPRwQwjI6bENbvj89XOED5Q+LVMP0LnzJWq/ZYAN9eHLiVmAAMh08UpOu6Y/OVRvlDkmAHMHxbAI1W77EASpLR+xsiAOyPj+en6YYTChJy5iKwJ2wAgU91r6+esnGvBdD9QEMEgH1VPCqk609gzR+SsAAyAgh/Wqslxt1rAXRcs4acAOyvnHRHfzg+n0OekXSspJq2CEHAd4zMh2Z3PzwCGDBMAQPYLyHH6Lpj8zV1RJAwkHS2cV4nfMqVu/qjC2Cwb7XYCQxgP1xzaK4OH5tOEEhK7ACGb1nzoQL4oa/pdZXFbaV/3rxJVtNIDMBgnTI5Q5UlWQSBpLWuZYDhDfiSa4OvffC/2/0iHatXiQvAYI3NDOhHR+QRBJIaO4DhR0ZqqVswfsvgCqAogAAG75pDc5WTzqYPJLcadgDDh6zMKzLGDq4AGksBBDAoH89P00mTMwgCSc21Um07BRC+rIC77XS7LYBOwLxCYAAG44qDc8Rpf0h2mzsj6omwABA+rH8yrw26AK6bO6VeUgOxAdibWWPS2fWLlMD0L3zLuIMfAdz1L+g1UgOwN+cVs+sXqYFnAMOneiZNnLJ+nwqglZgGBrBHjpFmTwwTBFICO4DhUyufPMFE9qkAOlYvkRuAPZkyIqjR4QBBIDUKICOA8CXzwh573p7+QUDuiwQHYE+KRoYIASkh4lptaOcZwPAj++I+F8A1C6Ztk7SZ8ADszsg0zv1DatjQHtGAyw5g+I9j3T2OAO71ie1G9gUrTSFCAB8U5QMVKWLX+j/uV/hO47qF0zbssRzu/d81TAMD2K0dfVFCQGoUQNb/wZ9e2Ns/3GsBNMZSAAHs1tqWfkJASuAIGPiR+YhBvL0WwL4Bd4UkfssD+JCdvS4jK0gJ1W18jMGHBXAv6/8+sgBuXFzYK+l1YgSwOw9t6iYEJLXeqNWWDnYAw3ciGuj9134XQEmy1jxNjgB25/bqTvVGWVyP5FXbNiBuUfjQq+suKe8YUgGUEQUQwG7t6I3qjupOgkDSYpkC/Ggwg3cfWQD7HfuMJJc4AezOb1e2aUcvO4KRpAWQR8DBjwYxePeRBXDzhVNbJPsmaQLYnfZ+V99+fienrCEpsVsdPmSDrvPckAvgrj/KPEWeAPbkqbd6dMvaDoJA0uEIGPiw/72xdtGkHcNSAK3DOkAAe3ftihY98VYPQSBptPW7auhmeQJ8Vv/kDKqzDW4EsD/tKfEcHQB7EbXSN57doTd2MOWG5LCuhdE/+LEB2uErgDUXj2+S0WpSBbA3nQOuLnqsUW9SApEMBbCV+xA+rH8aGNSyPWfQf6SrR8kVwEfpGHC14LFGPcV0MBJdABkBhP+8VruwpHFYC6CRpQACGJSuAVdfeLJJt67njEAksAAyAgi/MYMfrBt0AQwr/JSkPtIFMBhRK33vpZ360cstcllBjDizkmraeAQcfNb/ojEogCsXjuuS7AvEC2Bf3Ly2Q5c/06yOAc6TR/xs7Yyoi3sO/tLbnfHR5//tcwHcVS0dpoEB7LO/b+7WWQ9s178amURAfLD+Dz709NbKyYNefL1PBdBIfydfAPujviuiBY826Ecvt2iAOWHEugCy/g++s297NfapAK5Pm/yKpB2EDGB/uHbXlPCcRxq0sZ31WYgdngACvzFyY1cAVWmisuYRYgYwFG/s6NfZD27TndWdnDAPCiAwdPXr5xeujF0B3FUxHyBnAEPVHbG6+sWduvgfjarvYjQQw6cvarWxnQIIHzG6T8bs0/fpfS6A0fSBByXxNwvAsHhuW6/OfGA7o4EYNjVtA4pyM8Ff/m9f/4V9LoB1lcVtkv0nWQMYLp0Drq5+cacuYTQQw4AdwPCZnq6u0OMxL4BvYxoYwLB7ltFADEcBZAcw/MTqH/WXTeiOSwE0AUsBBBAT74wGXvp4o7Z1RwkE+4wNIPAX83/782/tVwFcP69wraRqQgcQK8/U9+qM+9kpDAogsDeRQOShuBVASbKy9xM7gFhiNBD7qqXPVVMP9wp849UNFxZtimsBDBhzL7kDiIdn6nt15tujgcDerGth/R98xJh79vdf3e8CuK5myvOS6kkfQDx0vGc0cDujgdjTZxPTv/AT193vwTgzlJ9bdsvG31npi1wBAPE0IuToyk/k6oLSbMLA+/zXCzt0Vw0jxfABo1XV86cdsL//ujOkn211D1cAQLztGg3cwWggPmQtU8DwS/9z7ZA62JAK4Lrw1KckNXEZACTC0/U9OuuBev1tQxdhQK7d9RQQwBcF0CawAKrSRI10H5cBQKK09bv65nPN+twTjWpk96evbe4cUE+EQ4PgCzXrFhWtTFwBlCTDNDCAxHvqrR59+v+26ZHN3YThU+t5BBx8wsgOuXsNuQBOmDj1UUmNXA4AibazN6qvPN2kK55rVlu/SyA+ww5g+IV1dEfCC+CTJ5iIxCgggORx34YunX5/vR7f2kMYPsIGEPij/Wlt9YWFrw31jwkOx2sxcm631v0PrgqAZNHUHdUXnmjU2UVZuuawPGWFHELxegHc2S+eGwgfuHU4/pBh+Y24fv7kZyVt5JoASDZ/revSmQ9s0wvbewnDw7oGXG3tjBAEPC8aCNyZNAVQxlhj7Z1cFgDJ6K3OiBY92qCrX9jBLlGPWtcywOAfvM/qhboLJ1cnTwGUJMfezpUBkLy/N6U7qzt11gP1WtHYRyAes4b1f/ADY4ataw1bAVy/oOh1SW9ydQAks80dEc3/+3b9/JUW9UcZM/IKNoDAB6IDUbcq6QqgJFlj/sz1AZD0v0Wt9MdV7TrnwW1avZPi4I0CyBEw8DYjPbpxceH2pCyAkYh7syRW4QJICetbB3TeQ7tGAyMuo4GpyrVSdStFHh6/z2VuHM4/b1gL4NvN9O9cJgCpIuJa/XFVu+Y90qAN7YwipaLNHQPqZnMPvG2nWvuH9dG7w34wlrVmGdcJQKp5rblPn35gm/64ql0MBqaW1Uz/wvturbm8dFh3rw17AUzP6LxPUhPXCkCq6Yta/fyVFs17ZLs2dlAqUsVa1nHC46zVsA+uDXsBXFVZ0S9rb+NyAUhVrzT16TOMBqZOAWQHMLxc/mTfqFk07dWkL4CSFAgEb+CSAUhlPZFdo4GX/KNB27rY20YBBBLDyLk+Fn9uTArg2vmT3zBGK7hsAFLdc9t6dcb923RndSdhJKG2Plfbu6MEAa/qM8FQTGZVY/d0dGuWct0AeEHngKurX9ihSx9vVANlI6nwBBB43N3r501oTqkC2NkTulVSK9cOgFc8/VaPzri/ntHAJML0L7zMGCdmg2kxK4D1l03ottKtXD4AXtLev2s08KtPN6mlzyWQhBdAdmvDs9asnz/52ZQrgJJkpN9p1zPYAcBTHtrUrdPvq9ejm7sJI6EFkBFAeJMx+l8ZE7MOFdMCWL1w2hrJPstlBOBFO3qj+tJTTfrq001qYzQw7qJWqm1jBBCe1N3rmJjOojqxfw/mD1xHAF720KZunfVAvZ6p7yGMOKprG1BflEkmeI+1um3zhVNbUroA2taBeyQ1cjkBeNn27qgu+Ucjo4FxxA5geFUghps/4lYAay4v7ZMRR8IA8IWHNnXr9Pvr9dgW1gbGGuv/4EXW6Ll1C6e8HOufE4zHm3Ft5LdGwSslpXNpAXhdY09U//Fkk06bmqnvHz5aOekOocTAmpYBdhnCe1zzq3j8mLj8VqpdWNIoqYqrCsBP3hkN/MdW1gbGwtqdjADCczZNmjLlr/H4QcG4vSWjX8naBVxbAH7S1BPRF55o0GlTs/S9w/OUmx4glGFQ3xVRcy/PaIa3WJnrnjzBxOXGjtu8RM2Caa9Y6RkuLwA/emhTl067r14Pb+oijGGwsrmPEOA1XeH+wLJ4/bC4LkxxjPk11xeAX+3ojeorTzfp8qebtLOXZwoPqQDuYPoX3mJkblx16eSdniyA1elT/2qljVxmAH720KYunXZ/vf5vI6OB++vNHYwAwlPcaCB6XTx/YHy3plWaqGP0K64zAL/b2RvV155p0uceb1BDN6OB+yLiWr3GFDA8xEp/rbuwuNq7BVBSV3f6nyQ1cbkBQHryrR6dfv9buqO6gzAG6fXmfvVEOAAG3mGs+Xm8f2bcC2D9ZRO6ZfQ7LjcA7NLe7+rqF3boc483aHs3O1s/yosNHKsDT3miZtG05z1fACUpvS94nWQ6ueYA8G9PvtWjM++v1721/HrcewFk+hee8tNE/NCEFMBVl07eaa29gWsOAO/X1u/qW/9s1uceb1BjD2sDP6g74urlxl6CgFe8XrNg2t99UwAlyQQiP5fEPn4A2I0n3+rRafexNvCDnq3vVX+U9X/wBiv9RMYk5IZOWAGsmV+6VdIdXH4A2L131gZ+5ekmtfQxGihJ/9jaTQjwirra8LS7EvXDE/qEcjfg/lASv9UAYC8e3tSlM+6v1+M+Lz9Ra/XUW2wAgTdY2Z+o0iSsAyW0ANZdWFxtpLu4DQBg75p6orrsiUZ9+5/N6hxwfZnBP7f1agdPUIE3bA6He25O5AtwEp+B+b4kl3sBAD7aPbWdOvP+ev2rwX8bIe7bwJNT4A3W6EerKisSug8i4QWweuG0NbK6m9sBAAbnra6IFjy6Xb96vVVR648NET0Rq0e3sP4PnrA5nN59U6JfhJMUUQSc74lRQAAYtKiVfreyVZUPbdfGjgHPv9+/behU1wAfE0h9xurHiR79S5oCWDN/6moZcy+3BQDsm5U7+vTpB+q1fG27p9/nHes5DgeesMW2RW5KhhfiJEsiromyFhAA9kNPxOoH/9qpLz/V6MnjYl5u7NWqnRwbCw8wurbm8tKkeJRN0hTAuvnFbxipirsDAPbPI5u7ddp99Z47K+9/32jj4iLlWWmjWiI3JsvrcZIpnGjA/a6kAW4TANg/O3qj+sITjbryuWZ1R1J/UuXNHf16tp6z/+ABxl6TLKN/SVcA3z4XcBl3CQAMzV/qOvXpB7bplaa+lH4fP3+1RTz4DanOSusmT9p0WzK9JifZQnJCge9JYq8/AAzRpo4BzXtkm37+aov6UvD5uY9t6dZz2xj9gwcYffvJE06IUAD3Yt3cKfXWmN9xtwDA0EWttPTNNp15f72e3546h0f3Rq2uXbGTCwgPdD/9q3b+tL8l2+tykjGsAcdcK6mF2wYAhsfGjgEtfHS7Ln+6STtT4HFqP3ulRZs7Ilw4pP6XMMf5joxJuiH4pCyAmy+c2mJkf8ltAwDD66FNXTrt/nr9ta4zaV/jP7f16BaPn2sIf7Ayj9XNn/qPZHxtJllDm1S1JSPcE1knaTK3EAAMv6PGh/WdQ/JUnpuWNK9pS0dE5zxYr9Y+joVFynOtdQ6rvWjqCgrgPipdvuEia9kVDACxEjDSOcXZ+vrBuSrICCT0tbT0RTXv4e2qaeM0MHjCsppFhRcn64tzkjm56rppyyWt4B4CgNiIWumumk6d9JetuvblnWrqScz6wNY+V4sebaD8wSt6bDR6TTK/QJPsCZYs2zBbjp7gXgKA2AsHjCpLR2jhjBGaOiIUl5+5oX1Alz3eqA3tlD94xvdqFhUuoQAOtQTeVHefjM7ifgKA+HCMdOyEDF04faSOm5ipQIw+Lf5W16nvv7RD7f2s+YNn1GeazLKVC8d1UQCHaPotddOjrt6QFOK+AoD4Gh0O6JNTs3TGtCzNGhMeljK4eme/fvHqTj39Fgc9w1uMtRdXX1Sc9PsXTKoEWnJz3XWSvsytBQCJkx1ydOjYsA4fF9bH89NVOipNo9IHt5y8uTeqZ97q0V9qO/XC9h4e8QYveq0mo/AQVZqkP2wzZQrglFs35aZFouskFXB/AUDyGB0OqHBkSKPSHY1MczQizVHUlaLWqnPAqqM/qg3tEW3pGKD0wcusjDmhZmHhU6nwYk0qJVt804bPG2OXco8BAIAka1S31iwsmp8qL9dJpWxrN067XtJL3GUAACCJdDg29K1UesEpVQC1xLiusV+SxHYxAACQFIz0g/WLJr9FAYyhuoXFLxvpFm43AACQBGpsW/Q3qfainVRMOhLStyS1cs8BAIBEsnIur7m8tI8CGAcb5hU1GGuu4bYDAAAJY3RP7aJpD6XiS3dSNfPqjdN+K+kF7j4AAJAAHXKiX0vVF5+yBVBLjBuVLpMU4R4EAADxZKX/qplfupUCmAAbFhWtlDHXcRsCAIA4erk2o/B/U/kNOKl+Bbp70q+y0kbuRQAAEAdROc5lqfC4N08XwPrLJnTbXWcDAgAAxJbVr2oWTHsl1d+G44VrUbew+EEj+xfuSgAAEEOb0jN7lnjhjTheuSJBJ/AlSTu5NwEAQCxY13xhVWVFJwUwiaxZMG2blfl/3J4AAGD4mRtrFxc+7JV343jp0tQuKrxZ0n3cpAAAYLhYaVt/0LnCS+/J8dpFCkSC/yEeEwcAAIatLZkvbr5wagsFMImtu2RKvTW6krsVAAAMmdGttQsK/+q5TuvFa1W7oPB6SX/nrgUAAEPQbOV6cn+BJwugjLHRoD4vqZ17FwAA7GeduKx2YUkjBTCFbLiwaJOVuZzbFwAA7Ef9W1a9sPher747x8uX7u1dwXdxEwMAgMGy0kYFIl/z8nt0vH4RndDAFyVt53YGAACD4BrXLK6ZX+rpZWSeL4Dr501vljEX7Sr0AAAAe2at/XnN4sInvf4+HT9czJqFhY8Yoz9xWwMAgD0zq6LWucYP79TxyyVNC/d8Q1I1NzcAANiN3qjsvI2LC3spgB6yqrKi01p3rqR+7nEAAPA+RldsWFS00j9v12eKl9d9w1j7c+50AADwdhl6sHph0Zkyxjf7BRy/XeTaBYW/lNX93O4AAEDSWyYUWeSn8ufLAihjrFz3Eitt454HAMDXXGvswvXzpjf77Y07frzaNReXNhnXnScpyr0PAIBv/aB2Ycnjfnzjjl+veM3i0icl/Yx7HwAA/7FWz9RkFP3Ar+/f8fPFr8kouspKj/HXAAAAX2kMmMhcVRrfzgT6ugCq0kTdkJkv2Xr+LgAA4Auuccz89Yumv+XnEBy/3wUb5hU1yATmSYrwdwIAAK8zV1cvKHrU7yk43AhSzcLCp2R0NUkAAODh6ic9WLOh8Cck4cODoPfIWlO6vO4eK32WMAAA8JzNTigyy49HvuwOI4DvVmFj+4LBSyRtIAwAADylz3V1HuWPArj7rwYXTm2JypwtqYs0AADwCvPlusXF/yIHCuAebVhUtNIYLZRkSQMAgFRnf1uzqOh6cqAAfqTqhcX3SvopSQAAkNKeS8/o+wYxfBibQPZkiXWKp9XdZ6QzCAMAgJSzxTr2kNqFJY1E8WGMAO6xABrXBN15kl1DGAAApJRe1+pcyh8FcL/UzC9tl2vPk9RBGgAApAhrPs+mj71jCngQipfVfErG3C8pSBoAACRxsTH6Sc2i4u+QxN4xAjgItYtLHrZGV5AEAADJ3P50b82Gov8iCArgsKlbVPxra/W/JAEAQFJ6JctkLdQS4xIFBXB4S2BW0eWS/o8kAABIJrbeBN3PrFw4jgc5UABjoNJEd+0M1puEAQBAUui21pxdM790K1FQAGOmZn5pe8CNfkYSW8sBAEisqJGZy45fCmBcrL+4rM46OkNSJ2kAAJAg1n695qKi+wiCAhg3dQuLX7ZWF0iKkAYAAHHuftK1tYtLriOJ/cM5gENUclPdJVaWh0wDABA/t9cuKrpQxlii2D+MAA5RzUVFNxjp+yQBAEBcPGHa3cWUv6FhBHCYFC2r/Z0x+iJJAAAQM29GrXPsxsWFrUQxNIwADpMp0zZ/1UgPkAQAAMPPShuC0dAnKX/DgxHAYTSpaktGelffQzLmeNIAAGDYNLpRc9yGS4rWEQUFMCmV/Ll6pI2YxyXNIg0AAIaszRh7Qs2i0leJYvgwBTzMauaXtgfSop+StIY0AAAYkm7XOmdR/iiAKWH9vOnNJmhPldEm0gAAYL8MyOi8DYuLniEKCmDKqJlfutW65hRJDaQBAMA+cWW0oHZRyUNEQQFMOXWLi6vdqPNJSTtIAwCAQbGS/qN2UcmdREEBTFkbLil63bHuyUZ2J2kAALD38mdlvlR7UckfiYICmPKqF5e9JqszJLWTBgAAe3Rl3UXFvyeG2OMYmDgqvrHmKDl6WNII0gAA4N+sMd+uW1T8U5KID0YA46j24pJ/WsecLqmTNAAAeNdVlD8KoKfVLSx+1rXOOZJ6SAMA4HdW5prai0p+RBIUQM/bsLjoUUfupyR1kAYAwM/lr+6i4u+TRPyxBjCBipbXHmNc+3+SRpIGAMBXBcTY/6pZVPpjkqAA+rUEHuK47iNWJo80AAA+YK0xX69bVPxrokgcpoATrG5h8ctydYo4LBoA4IPyZ2S/QvlLPEYAk0TJzdUHW2selTSaNAAAHhS1Mp+ru6h4GVFQAPEepcvXz3Bd5++SJpEGAMBD+o3sgpqLSquIggKI3Si8vm6qE3QflVRKGgAAD+iW1bm1i0seJgoKIPZWAv9UN9aE7MNG9iDSAACksFZJZ9ZeVPIcUSQXNoEkoQ2fK2pwrXOCJP7CAABSVYNj3RMof8mJEcAkNmFpfWZGevc9kj5FGgCAFGoXm6xrTqlbXFxNGMmJEcAkVn/ZhO5wZt9njOytpAEASInuZ+zrwUjkKMpfsnd0JD9rTclNNddYY64hDABAEreKx22vOafusuI2wqAAYpiU3Fx9qbXm95KCpAEASCZW5s8Zmb2XrKqs6CcNCiCGWfGymrNldJukDNIAACSJ39RuLP66lhiXKCiAiJGSZdVHWGPuk1RAGgCABIoa2a/WXFT6O6KgACIOpi3bUB4w0QckFZMGACABOo3shTUXld5HFBRAxNGk67fkpQf77pE0mzQAAHFUL+nTtReVrCCK1MQxMCls66WTd4Yz+z4p6SbSAADEgzH2dbk6gvKX4teRCLyh6Obarxprf0mpBwDEsDXc29ObuaD+sgndhEEBRLKUwJtqzzWyyyVlkgYAYJix05cCiGRVfFPNLMn+RdJk0gAADINeY/X5msWltxAFBRBJrOy2dfnRAedOWZ1IGgCAIXjLNe45GxZNf4koKIBIAbOXPBHcOnXSD630LdIAAOx7Q7DPRm3o/I2LC7cTBgUQKabopuoLjdWfxJNDAACDZe0fw9kDX+GxbhRApLCSG6s/YY3+ImkKaQAA9qLPWH255uLS64mCAghvlMACGd1qpVNIAwCwG1uMVFmzuPQFoqAAwkuqbKCkq+ZqK10tzgsEALzLPtgXHViw9dKKnWRBAYRHFd20/gzHmuVWyiMNAPC1qJF+WLOp5Puc70cBhA8U31gz2Rp7l5EOJw0A8GUDaDbShTUXlf6dMPyHaUCfqr24ZIvToeON0e9JAwB81/6eCUajH6f8+bn/w/eKl9WcbWRvYEoYADzPlTW/zRlovWLFZYcMEAcFEH4vgTfWTJbRrZI9ljQAwJOf+Fsd2QurLyp7mjBAAcS//XuX8FWSAgQCAJ7xt5ATuWTtohk7iAIUQOxWybLq2Vb6s6SJpAEAKa3Xyn677qLS38gYSxygAGKvypauy3fTnD9Y6VzSAIBUZFdaBebXLS5+gyxAAcQ+KVlWfb6VlkrKJQ0ASI3mJ2uuM532yprLS/uIAxRA7Jei5bVTTMS9SUYnkAYAJLVNRrqoZnHpk0QBCiCG4fukNcU3135O1v6PpEwCAYCkc9dAWtplmy+c2kIUoABiWBVfX3OAHLtcRgeTBgAkhUYr+x91i8vuJQoMFk8CwT6pvbTkzcmbtx5mpW9LYm0JACTWXcbqAMof9hUjgNhvJTdVV7hWN/A8YQCIu+1W9ksUP1AAkRhLrFM8rfZSa+0vjZRFIAAQc3eFnMh/cKgzKIBIuKKba8uMjd4ga44hDQCIiU3G6rKai0sfIQpQAJE8du0UXiDZX8gqn0AAYFg+qSNyzf8GbeSqdZeUdxAIKIBISoV/qhvrBKM/kzSfewwAhvLFWq9a41xWt7j4X4QBCiBSQsmy6tmSfm+lctIAgH3pfeqS9IO6rJKfq9JESQQUQKSUSVVbMtK7eq+S9E1JIRIBgI/8YL7Hcdyvrl80/S3SAAUQKa1oWW2pUfRXkjmdNABgt6qtnK/VLS5+kChAAYSnlCyrPsuVfm2kQtIAgF3TvY70c3Xo2prLSzlgHxRAeNOkqi0ZaV29lxtjr5JVNokA8O2HsNEDrhP4Ut3C4s2kAQogfGHasjXTAjbwSxl9ljQA+ImVXrOyl29YPP0Z0gAFEL5Usqz6CGvtL2V0JGkA8LhtMlpSm1l6A7t7QQEErDUlN9WcZ2X/W9I0AgHgMd1Guk4h8+Oa+aXtxAEKIPAeE5bWZ4bTur5iZP9T0kgSAZDqX28l3e1Gg9/ccGnRJuIABRDYi2nLNowLKPJ9GbtYVkESAZCCn7CPGWOurFlU+iphgAII7FMRXDPN2MB3jNGlkhwSAZACXpLVf9VdXPYYUYACCAxB8fU1ByjgftdK55MGgKT8QLVa4xpzzYaLSu6WMZZEQAEEhknJzdVHRl37YyPNJg0ASWKzMfoRO3tBAQRirGjZutMlc42kw0gDQKKKn6z5SUZ2/w2rKiv6iQMUQCBeRfDG9Scbox9Y6QjSABC34if90lVo6cbFhb3EAQogkKgieMO6Y2T0fRlzAmkAoPgBFED4SOFN1aca2atldQxpABgOVqqT7E8ysyI3M9ULCiCQxIpvqpkl637LSudxnwPYTyuNsb+YvLH+tieXnBAhDlAAgVQpgtfXHKBA9EorM0dSiEQADOKj8Tkr/XTDRSUPcJwLKIBACiu8vm6qnMj/M0aXSMoiEQAf4MroQceYH9csKn2eOEABBDykaGntKKVFL5L0/yRNIRHA95+CndbVbQGZX9dcXLqaQEABBLxsiXUKp9acYaRvSfZoAgF8Z5tk/9gfjfxm66UVO4kDFEDAZ3ZtGIl+lXWCgC+sMMb+ho0doAACkCSV/Kl6khtwP2eMudRKE0gE8IwuY8ztkvlD7UUlK4gDoAACH7bEOkVTqk80Rp+30jmSAoQCpKR1klnWH+3/E9O8AAUQGLTi62tKrONeKuliSQUkAiS9fiP9zUp/rFtc+g+OcQEogMB+K/lNdbrNds+WzGIrnSxGBYFk87qMlgX77a3rL5veTBwABRAYVpNvWDsh5AQWyNpLJJWSCJAwrVaqMtbeUnfJ9GeJA6AAArFnrSm8af0xRuZiWZ0raQShADEXtdY+KjnLAl36W83lpX1EAlAAgYSYtmxD2ChyimPtAit9RlIaqQDDarWMWe4qePPGxYXbiQOgAALJVgZzAm7/p60x50v6lKQgqQD79QG1xlpbJSd4a93i4moSASiAQEoo+VP1pKjjXuAYc56VDufvHPCRaiXd7RrdsXFx2WvEAVAAgdQugzdWF1jrnsbIIPB+VqqT9ICx9q66i8ue4+gWgAIIeFLx8poxiriftdK5kmaLR9DBf6XvVUe6NxLVPZs+V7aGRAAKIOArY5e/npUZzTxR1j3TGJ0lq/GkAg/qlfSsjH1AgdBf6hYWbyYSgAIIQJKWWKd42tqDbdQ5S8acKdlP8PcUKazRWD3iOvb+NFcPr7ukvINIAAoggI9QfGPNZNdGTpUxpxjpJEn5pIIk1iNjn7HWeVTWPrrh4rKVrOcDKIAAhqjkpuoK10bPlDUnSzpGUphUkEhvb+B4TMZ5wCr46MbFhb2kAlAAAcTIhKX1menBrmNkoscameMlHSYpnWQQQ66kVUZ6yjX2aScQfKp2YUkjsQAUQAAJMnvJE8Et08Z93Fpzsqw5RtKxkkaRDIYgKmmd3bV547FQv3li/WXTm4kFoAACSFKzlr4cakkbcZC1OtzsOoT6CEklJIO9aJTsi1bOi47c54NW/2LjBkABBJDiSm6sLnBlD7dyDzcyh0uaJSmPZHypR9JKa/WSccwLQasX1l9cVkcsAAUQgA9MvmHthKATmGUUnWlcU2GNZkmawe8HT2mT1ZvW2BWONSsUcFeFM903VlVW9BMNQAEEAElS+c1rRvdb5yDjmgord6ZkZkqqEKOFya5Hsmsks1pWq6zsauvYlRsXz9hINAAogAD2y7Rlq8Y5JlhhXc0wMjMlW2KlYiNNlRQgobjZLqlaRrWSXWsVWB2ydtX6zaUbtcS4xAOAAggg5mYtfTnUEs4qNBGnWI4pca1bYmSKJE2VzCTJ5pLSPumRtEnSVmO1QcbWWOPUWNfWdod6axoWfryLiABQAAEktbHLX88aEcmcGlFkspEz2VhNkrFTZMwYWY2RNF5Sgbx/jmFUUtPb/7ddUoNk6q3sFhlnUyCqrU7U3cJRKwAogAB8o2hp7Sg3LTLeSAVGpsBamyeZHMfaXCvlyNgcyeRIyjFSriulGylHUkjSiDi9zB7J9Epuh+T0SbZVUquRWlyp1ci0yNpWybQax7bK2ka5bqNrw00bLi1s5NFoAJLB/weFKjOGVQG1xwAAACV0RVh0ZGF0ZTpjcmVhdGUAMjAyNC0wNy0wNlQxOToxNjo0NiswMDowMHgCaIQAAAAldEVYdGRhdGU6bW9kaWZ5ADIwMjQtMDctMDZUMTk6MTY6NDYrMDA6MDAJX9A4AAAAAElFTkSuQmCC;" vertex="1" parent="1">
          <mxGeometry x="1919" y="1710.2" width="52" height="52" as="geometry" />
        </mxCell>
        <mxCell id="jUlRzr_6Oyi4RR8aSzZF-78" value="Telegram" style="text;html=1;align=center;verticalAlign=middle;resizable=0;points=[];autosize=1;strokeColor=none;fillColor=none;" vertex="1" parent="1">
          <mxGeometry x="1910" y="1761.2" width="70" height="30" as="geometry" />
        </mxCell>
        <mxCell id="jUlRzr_6Oyi4RR8aSzZF-79" value="&lt;span style=&quot;color: rgb(0, 0, 0); font-family: Helvetica; font-size: 11px; font-style: normal; font-variant-ligatures: normal; font-variant-caps: normal; font-weight: 400; letter-spacing: normal; orphans: 2; text-align: center; text-indent: 0px; text-transform: none; widows: 2; word-spacing: 0px; -webkit-text-stroke-width: 0px; white-space: nowrap; background-color: rgb(255, 255, 255); text-decoration-thickness: initial; text-decoration-style: initial; text-decoration-color: initial; display: inline !important; float: none;&quot;&gt;3.Firewall fail to block &lt;br&gt;C2 connection&amp;nbsp;&lt;/span&gt;" style="edgeLabel;html=1;align=center;verticalAlign=middle;resizable=0;points=[];" vertex="1" connectable="0" parent="1">
          <mxGeometry x="2509.996153846154" y="1703.000769230769" as="geometry">
            <mxPoint x="-3" y="8" as="offset" />
          </mxGeometry>
        </mxCell>
        <mxCell id="jUlRzr_6Oyi4RR8aSzZF-80" style="edgeStyle=orthogonalEdgeStyle;rounded=0;orthogonalLoop=1;jettySize=auto;html=1;entryX=0.512;entryY=1.069;entryDx=0;entryDy=0;entryPerimeter=0;" edge="1" parent="1" source="jUlRzr_6Oyi4RR8aSzZF-52" target="jUlRzr_6Oyi4RR8aSzZF-72">
          <mxGeometry relative="1" as="geometry" />
        </mxCell>
        <mxCell id="jUlRzr_6Oyi4RR8aSzZF-83" value="" style="image;html=1;image=img/lib/clip_art/networking/Firewall_128x128.png" vertex="1" parent="1">
          <mxGeometry x="2390" y="1694.2" width="69" height="62.2" as="geometry" />
        </mxCell>
        <mxCell id="jUlRzr_6Oyi4RR8aSzZF-89" value="&lt;div&gt;&lt;span data-canva-clipboard=&quot;ewAiAGEAIgA6ADUALAAiAGgAIgA6ACIAdwB3AHcALgBjAGEAbgB2AGEALgBjAG8AbQAiACwAIgBjACIAOgAiAEQAQQBHAFkAbwBFAGgAdgB6AGoAawAiACwAIgBpACIAOgAiAE0AWABqAFQANQBVAFQANQBsAGgARQBvAE0AVgBHAE4AdwBhAC0AWgBPAFEAIgAsACIAYgAiADoAMQA3ADMAMwA2ADEAOAAxADQANwA3ADYAMAAsACIAagAiADoAWwB7ACIAQQAiADoAewAiAEsAIgA6AHsAfQAsACIARAAiADoAewB9ACwAIgBFACIAOgB7AH0ALAAiAEYAIgA6AHsAIgBBACIAOgAiAEkAZABlAG4AdABpAHQAeQAuAHAAbgBnACIALAAiAEIAIgA6ADEAfQAsACIARwAiADoAewB9ACwAIgBIACIAOgB7ACIAQgAiADoAIgBuAG8AbgBlACIALAAiAEMAIgA6ACIAIwAwADAAMAAwADAAMAAiACwAIgBEACIAOgAiACMAZgBmAGYAZgBmAGYAIgB9ACwAIgBKACIAOgB7ACIARgAiADoAIgAjADAAMAAwADAAMAAwACIAfQAsACIAUAAiADoAewB9AH0AfQBdACwAIgBBAD8AIgA6ACIAQgAiACwAIgBBACIAOgBbAHsAIgBBACIAOgA4ADYALgA5ADAAMQA5ADgAOQA2ADgAMwAzADEAMAA0ADMALAAiAEIAIgA6ADEANAA2ADEALgA0ADYANwAwADUANgA1ADIANwAwADEANwAzACwAIgBEACIAOgAxADUAMQAuADEAOQAyADQANwA1ADQAOAA4ADIANAA2ADIANgAsACIAQwAiADoAMQA4ADMALgAwADkAOAAwADEAMAAzADEANgA2ADgAOQA1ADQALAAiAFQAIgA6AHsAIgBBAEEAQQBCAGsANgBPAHgAbQBlADgAZABkAFUAbgBDADQATQBkAHoAXwBRACIAOgAxAH0ALAAiAEEAPwAiADoAIgBJACIALAAiAGEAIgA6AHsAIgBCACIAOgB7ACIAQQAiADoAewAiAEEAIgA6ACIATQBBAEcAWQBxADEAOAB3AHIAVABnACIALAAiAEIAIgA6ADEAfQAsACIAQgAiADoAewAiAEEAIgA6ADIALgA4ADQAMgAxADcAMAA5ADQAMwAwADQAMAA0ADAAMQBlAC0AMQA0ACwAIgBCACIAOgAtADEANQAuADkANQAyADcANgA3ADQAMQA0ADIAMgAxADYANgA4ACwAIgBEACIAOgAxADgAMwAuADAAOQA4ADAAMQAwADMAMQA2ADYAOAA5ADUANAAsACIAQwAiADoAMQA4ADMALgAwADkAOAAwADEAMAAzADEANgA2ADgAOQA1ADQAfQB9AH0AfQBdACwAIgBCACIAOgAxADkAMgAwACwAIgBDACIAOgAxADAAOAAwAH0A&quot;&gt;&lt;/span&gt;&lt;/div&gt;" style="text;whiteSpace=wrap;html=1;" vertex="1" parent="1">
          <mxGeometry x="2520.75" y="1610" width="30" height="20" as="geometry" />
        </mxCell>
        <mxCell id="jUlRzr_6Oyi4RR8aSzZF-91" value="" style="shadow=0;dashed=0;html=1;strokeColor=none;fillColor=#EF8F21;labelPosition=center;verticalLabelPosition=bottom;verticalAlign=top;align=center;outlineConnect=0;shape=mxgraph.veeam.failed;" vertex="1" parent="1">
          <mxGeometry x="2382" y="1716.2" width="27.5" height="28" as="geometry" />
        </mxCell>
        <mxCell id="jUlRzr_6Oyi4RR8aSzZF-92" value="" style="group" vertex="1" connectable="0" parent="1">
          <mxGeometry x="2210" y="1610" width="50.58" height="55.8" as="geometry" />
        </mxCell>
        <mxCell id="jUlRzr_6Oyi4RR8aSzZF-90" value="" style="shape=image;verticalLabelPosition=bottom;labelBackgroundColor=default;verticalAlign=top;aspect=fixed;imageAspect=0;image=data:image/png,iVBORw0KGgoAAAANSUhEUgAAAHkAAAB4CAYAAADWpl3sAAAAAXNSR0IArs4c6QAAAARnQU1BAACxjwv8YQUAAAAJcEhZcwAADsMAAA7DAcdvqGQAABfmSURBVHhe7V0HcBRXmv4nSRqhnAAhCQVABAkhECCSIxkMuOzFNg57t3i9a5sz9rlcu749++68e7Wprups11Zd7dk4nG28XicwYCxMNiCyEck2OYMBBZTzve/v7lGrNRpNj2Y0Gk1/Va+m07zp6e/94f3vf69NUVFRrWSgT8NB8nfffccHDPQ9mOVPA30YBslBAIPkIIBBchDAIDkIYJDsZTQ3N9OZM2fp6LFj4vMMNTQ0yGf8B6ML5UVUV1fTxs2b6fDhI9TU1EQ2m5Vyc0fTzBnTKTQkRL6q52GQ7AU0NjbS5StXaf36L+nsufPy0TbExcXRvYsWUmpqKoXYbGQymeQzPQOD5G4A0nr12jU6fOQI7d69h+rr6+UzRMnJyfTjjz/yNYBNkDsmL4/Gjs2nNEG22dxzltIg2UOUl5fTvv376cjRY3T9+nVqaWnh4zHR0XTH7bdT7uhcKikpoa3btvO1ACQ4Pj6ehgzJonFjx1LKoEF83NcwSNaJ2ro6+mbHDtq7dx/V1NSwowWAwIyMDFr8k/tpSFYWWa1WVuMXL16kTz/7nKVdAaQ4IiKCpXpSYSFFRUbKZ3wDg2Q3ALKqBaHf//ADbdmy1SGZgMVioUhB0l133kFzZs9mtewMW7dtoy/WrOXvKiocCA0NpSmTJ9HECRN4O0QUb1tsg+ROgIdy69Ytunr1Kp0+fUao5aNUWloqnRSANA4YMIByRo1i7zkhIUE6AcmGvYVzpZAppLq1tZV+FGp9165dVHL4MJ0TDpqiBQA0lBHDh1NWViarcThr3oJBsgZQwVeEp/zDiRN0+fJldqyqqqrksxKSEhNp8uTJNDo3l1JSBlGI3D1quXGT6v/2MYUtWUym2FhqOX+BGov3UMjdd5IpXiINtvuKaDjHRD96565iQfY5hz0H7HY79e+fRMkDk4X6T6dMYQLCw8Pls57BIFngVmUlnTp1ShB7ki5cuEC1tbXsKaslDUgQTtOsmTOELR1L0cLBgt1V0LTvINX84c/UfKiEojd/RWZBfvOx41T965epVWgE+/PLKeSeufLVEtkV4viBAweoaMPXdE00JjWgKdB4QHBaWhoNGzqUpdwT+x3UJMOJ+uzzVXREOEVQp1rA3uIhJwrJZXLz89vZ3FbRGFrOXaC6N95iCVYQs2uLg+Sqf/4VNR89jsrINv0usj/3T2TJTCeTkFg1Dhw4SFu2baWzZ87yfcEPcAZoj4UL7tEl3UFLMiRpv5CiNWvXtQs9QjoTEuJpQP8BQoJSKW/0aPaa1f1akNt04FtqLPqaGlavZTWthlOSZZiTEsk2bw6F3HkbWXJzyCx+SwGIvXTpkvDEj3JIFNKN7lmDinA0vIULF9D4cePkI10jaEmGh7vh6420bft23oezk5MzSnymCIeqv7CL/dkZUgNkNm7cTI3f7BTq+QC1XLwkn2kPVyQrMAlHzVYgNMMdt5FN2Gyz+E014BuAZPgH54UJAT9nhf0GJk8qpHvmz+dtd2CQLJOMsKPSBdKGHRv37KXG1ULit2yn1hs3qFUQIPS7fLYj3CGZIX4HatskGpP1jmkU9tBiso7OQXhMvgA/08oSXly8m1a8/TYf00uyMQolwyoeLBwdENxys5Qa12+g6hf/jcqn3EWV9z9Mde+8J+zvOWqtrnZJsC6IetBgWoTENgibfmvRYiqfdIdw1l6ihvVF1FpaxveD+0If2lMYJMuoE3ZWQc1Lr1Dlz5+i+vc+4G6Q10h1Ay3XfqT69z+kqp8/TTW/+4N8tHsIWpIhIaFhbdJx/foNeat3Qh1l04ugJRlealRklLwnDfb3ZpSWtUXb4uPl6JqbCGp1bTa3OVhVsLUKrBZ5o/dAHe/u109fBCyoSQ4NDaOwsDDextivEl60DE7jT7/CYmavW8Gly1fkLZDcT95yD0FNcpiwyQrJUNeOcd/oaP70K6yiK5eUKO8Iki9JfXKYGYxJ60GQkwxJlpyvpqZGR/zYnDGYP/0JkyDTHCM1toqKCqqsrORtxMwtZn3mJKhJjo6K4ocGNDZKqTyANTOTP/0Km5XM/ZN48+xZKdIFJCJSFuJ8zLozBDXJGNaLjJDsHqJKCCEiwgRJNkX5NlujK5hCQsmcmcHbJ0+d5E8gPiGeVbYeBDXJeFgJiUIybDZ2uqCulbFj6+hc/vQXTOK+LHIO2JEjR/kTgySJCYlCyNuGON1BUJMMpCQnO4YP4WGjANbJhfzpL9gmFgj3P4QdLiUjBV41nC5tbL0rBD3JyUJalLjwTfEwr9+QIl8hs6ZD1HnbH7Ddfht/Iq+sTk71jYmJoVhR9CLoSbYLDzt9sORNY1z5xImTnBViEhJjGTWCj/c04HBZpxTyfZyWp9pAevsnJVFsrEGyRxitsr+HSg5x+o8poh+FTJsqH+1ZhCyYRybR+ODtnz93np1BjEQheUGv0wUYJAsMHTLEkR1582YpHTt2nExChVsLxzu6MT0F/G7IwvlMLPLNlG4dTAqS8j2BQbIApGPC+PG8jYf7VVERe9tIz7FgEL8HYZ04nizCfECbHDz4rSM1adTIkR4n4Rsky0DqT4RQ0cC58+fp2PHjZI6PI9vUKR2S7nwFU0QEhdy7gPvomHmBXG8A3j9mW3gKg2QZkJLcnDbbvPqLL6iuro7to3lwqnzUt7Dm5ZJt0kTBiplWfbHGMYEOSffdmTfltRyvk6dO0Y4dO+ma3M8MNEBNg1QUwG4Po58++igVFhZSw5p1VPXkcj7uDtzO8VIB2sL+4gsU9g+PUMmRI/Tfr77GJgNe9aIFC2jCBMmceIJuk4yHg9l9mNTV15ArVPjSpUt5pmLlIz+jxq3b5TOu4QnJ1nH5FPnhu9QopPj3f/wTp+Sqce+iRcJvKJD39KHb6hoTwbZs3Sbv9S2cPHVaOD8HeRgy/IXnyJycLJ/xLmCDw4UUtwjbu1U8y8uXO6b6IqsUSfeeoNuSjElcb7y5wjEUhtkGyFk26wy9uYJZeL8DBwyQ9/Shtq6WysrKqVVOCADChGqMdzGh7OTJk3RCFGDQoGR6bvlyShDSXPfWu1T7X69Sa01b0p8z6JJkQaz9mafI/uwyuiCcrRVvvc1SDDVtFf+7Uc4IQQ7440t/xvOw9MLrJGMC9ozp09vNE+o2xB+OiozwqE5IYWVllSPrAzCbLRQdHdlpDBjjt7956WUp8iWuQffqyV/+gjMpa158mRq+3uQyg1MPybaZ0yniT/9JTUKaP1+1mr5cv57vlecvjxlD2775hq/rDsle964xQoLBeAzjea2I+lpaWrkrobfgXmJiotvVFxoawhw5ux4F01B/+thj3Kjgc+zes4eXi6DEBApb/jSZhXR3G6LxWEYMF1L8JM94PHX6NBVt2OBwtqZNnUppcri1uwiYLhT+fEOD80lgXQFkacOBCDK4ytDMH5NHBePGOaT9w48+YhWObg7sp6mb84dNouGF/XIpWYVzhymyK1a85ZjkNjw7mxYtXMDb3kDAkAyJQsaiWu26CxCFsKBaPaM+ZIN0pnUh8TOm380LvADI/1q7dh1PQEPfOfzXzwui9A8WAAhdhj//LIXOm0vlwpS8v3Ilmz0A/swDixezRvEWAioYAslravIsP9piMQuJbi/NyOtqaem8PgwIgGjkgaFRYAG2DRs3Ur3QAqH3LSL7C8+yZ6wHILjfH39HoUsWU01zk7DDq4Q/9D2fs9vDac7sWZSamsL73kJAkSxJXyN/6gWkGNKhlmbYeUmandeHTAw4kvn5Y/l7aGRFRRto79691CzUPyaohT31BIcj3YEpXPgD//go2ebOoiZRX/Hu3cLei7pEvfgt9IPh5Hky0uQKAUUygAei2C69wMPTeuioqysT8MiSh3iesoJ33v0/2rJ1K+Eu7E8spbBlv+hSokU3huzPPcOT0BHdQgDpk08/o9raGj4POzx3zuxuLx3hDAFHMlBf3+CxbdZKM6QY9bkC0m6WPPQgZWcP4300DKxQsHffPmoRDQdEh//mV2TJSOfzWmC4EsGU0MeWCGkOZ2/9448/4WUagYz0dHrk4SVsj32BgCQZxKhXB9AD2GWtNMOh60o7IMjz0IMPMiEAEv4giYdKSqhV1Be6+D7q9+ffk2XkcD6vwDpsKEX8z+sU+vADDoJXrvyQbtyUVidAv/fxx5c6HDxfICBJBmBL1fOD9AD9ZLU0A5BmV7Ye1yNNaLZwjBDLBm4Kov73jTepuLiYmsV568QCivjrX8iEgIW4N/PAART+yktkLRhLzcLmYvmKv//9YyqvqODvIynvIaEhkgcO5H1fIWBJBiGunCZXgJOjndQN9e+OrceiaiAGKwEBWPZhxdvv0ObNW1i6MY/KZLPyij+Yy4RuFiJnWKwNIUtFgkHwT+6/j229tsF5G14Pa864+27R2tuvTIcshyosweBl4OEgvuvJM0LbgCZQNxHE2y1CnbtTHZY7hvOlpPAisjZl8mThPM0RBLYFSsrLK2jN2jW0Y2exw8mCjcczys3J4a4dEBMdQ5GRbV46Gt0m0XDee/993u9VsWtnJGO9qtKyMnmvbwAaBMn4mzZtcsyhgq3PyspiMjCdBflZH3ywkvvXSnQNztXMmTM75E9DZSeqVgLyJskBq679DRCEZRdnzZrFThP2oRm+//57+o9XfstDhq++9jovsaj0gwcNGkQzZszg2LivVbQaPUIyq0GhVn1ZIEWelu7UB8lctGgR21aEQgHY5rfeeYeuXJHmFEOrjRbnocoHCol1Vo96Qry30SPq2p0uSndhFc5OiM2TVwCIfjIGKzThUjhmINtd1DfU06FvD9H6oiKObytAI8AzyRuTR2Gh0lxoZ4DHr6zRCQScTe4JQB2Gh9v5Uy+gTqur2zuGkC7UpweoB7nS7wk7jIH//DFjaP68eRyL1tNgAMMmO4G7XSBnAAHaRimFT/X1w1FPeno6/eu/vEh/ef01Wvb0U2J/sG6CvY0+5XiBFMWL1QuoSrUWkPrhng2GAMoyFb0BfYpkSZo7HyN2BfRXnUmzp1G13oQescmYElqjWvHOl4CPyt0TD5xVNA6t5KKunujtIGSKNCcFAWeTm8UNQyJ6oiC7EUsHI1VIb4F67lCfh3XpLSDVV+hT6tqAc/QIyYr32tMFr85Df1d3Ed/T1oU3szm91kvFk66fu+gRmwxV5KmX6jGEHQVZ6gCDu8Cd1tbgnU9tKhS2GfOjfNUdQr3qUGdA2WSQ60nBn1YXPAAcVzzejkXqOkEi+DvygmbY14YQ1UV5sOp6m0VBHdjGw8Y1qEe5L2f1dLeoCfY2fC7JmLl/4uQJfmB6MHXKFHmL6OLFS3T12lWecVhTXcPjs1qYRRcoNiZWtPgIXoAtRmxjlgRUoTNpbhGEXbl8hZPaGxsbqKK8wjElhSGeSnNLM4XbwykqOooXZMHAAsKUIToXS/ME3pRkn5N86pQ0M8AZMa7w7PJn5C2ideu+5Pc0uQME+kFMbFwcZWVm0IgRI/jFIVpJQaPDQP6OHbvkI64B1Y81vzAQMWZMHkufLxFQ6rqngTRbLGuMGPI3O3bSui/X0w3N2148AQYxLl26TF9v3ETfHjokHw0MWIQ6+3dsLFu2jA/oBaauHjh4UPT1pMS6rMxMGjJkCNsuoKysjFVi+3CjZOMgXZ2V1MFpVFlVxeXM2bN0q+KW/F0JqB/aAhKFbXwHNlMNSAMmryF53d6vn6irmpMXuJSW8qv01CvWow7Uqa5X8REU4H/gTecxsbF0q7Kqrb5ulvi4WPkXJOA38b8xHg3A7GBJCb3LIAN+kWR4qcOHD3dZoN6V0qLychWkpKTQxMKJNGXqFCoYX8CvssWb0Jw9BIzvFu8q5gaHnCwUNE7tAATIHTVqFNeJgvozszIdpkcBVP1xYd6UurxRfAm/kIzg/dBhQ12WrhAZFcnLMsFWIV0WBINojNsKP0O+qg3IrFTWjO4MkGQM/KNOFNSfnZ1NAwZ2nBtdeUvyQQIBfcomQ72C8AkTJ3RwjKBmb9y4wWFKPUA9vsyJ7gn4xbtGbtSDDyyW97qGM+/69ttuo/z8MfJeR+zbt59fZq1GnLB7Cxbcw6+bd+ZdY4knnMdLrtXYs2cvrf+qSN6TMFJ47XPmzGbT44toVcB710jRxap3nRW8t7i7wBtKtba0tqaW1azWQesMeNBYzWjf/gPyEQkgdcSI4awd9CYW+AN+IRkeL6S7s4L3C3cXCID000weQzcITk57T78NiJpdvHCRMy73HzhIGzdtptWrvmj3cmwge9gwzrwEoP7RGHoz+pRNbg/RFdOoUZCBeHRdnfPADEwKppOuWr2GNojGhiUk0ODUJMLznzptqkNF4xyGCnszeiXJEhnNjiJ6qvKZNmiv0RaeXO5ELbe2SrlgNUJ1I3CiBtQ4CEP4VDvGC1KRmDd71gxO8FP/FswP4gSw854Wd02IJ/BLMAS2EnFg9GmdlVi8Kl4Qi8gVyjkEQzR2OlY4USGhoY5rtAWTyuCs4QEqwO8m9k9iCS8rL+clleBxuwOQoEw1Rdxb+3tl5RVcZ2mZZwVOn/q1AwEfDMGN5osb7qygDwxpU4pW4gA0GvU12oLGVVfbfnEzPCg0PuUaba41GgEaKO4hJzeH4uLjuO+sAD0IzIFCcEX9Wyho5OoAjt6i1hrehl9IxoNDQKSzomiB7uAC3paqgVJ/Z4BKVgIrmUIj5eXlsVZRAwvEYLWeQILfSEaQwd3irB+KY51diwloGKBQQyEQ0TD1tWoo94WhRMxo4Nfeiz69+jqoUUTOcA0kX6lLKTbM5BDn9BbtvXgTfiEZ3ZtU0QVxt6izGBXERsd0uC4+No5qhH08XCLZMTUihInAMKFyLd4io54qCmAVgtTUQTQiO9tRCsbls5pXA2PPGYMHU/bQIZSeltruHtLTBtNw0cVS1+FOcfYfvQW/kFxdXUV79+5zWa5dc72kMvquSrkg+raHDpWIfu1G2rZtu8NBUgNOS5Lq3YfuIjEpqcN7mODMnRfmAGbFau04eNHbAiR+Ibmqqpr7o66KMiOwM2AU6ONPPuWydt06DmEihIrujBZYNik3N9cjlRhut9PA5I7LPeD3Aahnbb1wpHzZJdILv5CMB6DuZzorXT0kSIwyTId+LTxcNWBfsVzS5EmFvCC4p84c6tHGsgG8PxH3CYJhv9XAvXe1olBPwi8k+xJI00kSKnbkyBG8ul1BQQE7RN3BsGFD2clSA10mJB0AqF/biNDo0Ah6A3ptIl9mRoZjiA+xZNhA5dUBeOMZJBjrhaDPjQcMqYXnjJEmJPJhLNiVeka/FHVevHRRPiK6WMLBwjuiEKjRYifW/KhrG9xHNij61CkpUgwbcW+YCrUGgtcMpw3aQC9wfwGTyIc/jRvuSv1qAYIUkvB9SIUSMEBwBNt4drgGDxGfINsVsVqgDqVOQFLxWCq5vTcNODMh6nvEOclstDVmJBUiCcETU4H7CpihRjw4/El1X9KdoiYL22g0ePgoGMPFe/0hvQhu4BjO6yEYwPXq38R9QiKdRdic/Qf17+F/StNf26QW9UizLPU1cG/D5yQHGiCxyMP2BCDdYmlv/2Gb1drCHzBIdgJPZxlK0ux87U5/SrPXbTIG1PGyKrwcJJCBV+FjpR5PgNj2Lfl5KECSQaSbSyYDaGRYznHLNulNPX51vJAF+dc33vRKyo6BzoGewxOPL+VF3vSi2+oaP5ozapS8Z8BXwDP2hGDApSTDCcEMBiUhoDMgVrx7zx7ud0Kie0MQAHYRHrAngKrsDf8BHj0kOC0tlRdu7SphAN49TIK2y9YlyWvWruO1IbsCgh1oDHhA/u4yAPijyQOl5RD1oqy8zOFj+BO4d3jsIM+dBovX786fN7cDyS7VNS5GPxTRJfxpVwXRHjSK3kAwgPtwNljRFdBIlciav4H/gGeK/+HsmasLOOos4aJLxwt5UB/+7aMOaamBAEgC/rQeae4tqlovEMbFhIXUlI5vounS8cISvfPmzmUXPtAASZDGd9vnY7kqgUgwuAFHna2A71YXCtmJZUKSt27fzolsvUWdBTugnnNzc+j2adN40n1nL0H1qJ+Mzn67pRcM9DiQreLuRDyPSDYQWDBi10EAg+QggEFyEMAgOQhgkBwEMEgOAhgkBwEMkoMABslBAIPkIIBBchDAIDkIYJDc50H0//u7ilRC35yUAAAAAElFTkSuQmCC;" vertex="1" parent="jUlRzr_6Oyi4RR8aSzZF-92">
          <mxGeometry width="50.58000000000005" height="50.16435250779262" as="geometry" />
        </mxCell>
        <mxCell id="jUlRzr_6Oyi4RR8aSzZF-85" value="" style="shadow=0;dashed=0;html=1;strokeColor=none;fillColor=#EF8F21;labelPosition=center;verticalLabelPosition=bottom;verticalAlign=top;align=center;outlineConnect=0;shape=mxgraph.veeam.failed;" vertex="1" parent="1">
          <mxGeometry x="2220.51" y="1654.5" width="29.56" height="25.5" as="geometry" />
        </mxCell>
        <mxCell id="jUlRzr_6Oyi4RR8aSzZF-97" value="" style="image;html=1;image=img/lib/clip_art/networking/Firewall_128x128.png" vertex="1" parent="1">
          <mxGeometry x="2130" y="1698" width="69" height="62.2" as="geometry" />
        </mxCell>
        <mxCell id="jUlRzr_6Oyi4RR8aSzZF-98" value="" style="shadow=0;dashed=0;html=1;strokeColor=none;fillColor=#EF8F21;labelPosition=center;verticalLabelPosition=bottom;verticalAlign=top;align=center;outlineConnect=0;shape=mxgraph.veeam.failed;" vertex="1" parent="1">
          <mxGeometry x="2122" y="1720" width="27.5" height="28" as="geometry" />
        </mxCell>
        <mxCell id="jUlRzr_6Oyi4RR8aSzZF-99" value="2.EDR fail to detect&lt;br&gt;malicious file execution" style="edgeLabel;html=1;align=center;verticalAlign=middle;resizable=0;points=[];" vertex="1" connectable="0" parent="1">
          <mxGeometry x="2149.5" y="1630" as="geometry" />
        </mxCell>
      </root>
    </mxGraphModel>
  </diagram>
</mxfile>
